SplineFontDB: 3.2
FontName: WeatherIcons
FullName: WeatherIcons
FamilyName: WeatherIcons
Weight: Medium

StartChar: .notdef
Encoding: 65536 -1 0
Width: 364
Flags: W
LayerCount: 2
Fore
SplineSet
33 0 m 1,0,-1
 33 666 l 1,1,-1
 298 666 l 1,2,-1
 298 0 l 1,3,-1
 33 0 l 1,0,-1
66 33 m 1,4,-1
 265 33 l 1,5,-1
 265 633 l 1,6,-1
 66 633 l 1,7,-1
 66 33 l 1,4,-1
EndSplineSet
EndChar

StartChar: one
Encoding: 49 49 3
Width: 1000
GlyphClass: 2
Flags: W
LayerCount: 2
Fore
SplineSet
336.099609375 659.799804688 m 0,0,1
 346.900390625 661 346.900390625 661 371.200195312 660.400390625 c 128,-1,2
 395.5 659.799804688 395.5 659.799804688 406.299804688 658 c 0,3,4
 507.099609375 643.599609375 507.099609375 643.599609375 577.900390625 571.599609375 c 0,5,6
 628.900390625 520 628.900390625 520 650.5 451.599609375 c 0,7,8
 664.299804688 409.599609375 664.299804688 409.599609375 664.299804688 361 c 0,9,10
 664.299804688 311.200195312 664.299804688 311.200195312 649.299804688 266.799804688 c 0,11,12
 624.700195312 191.200195312 624.700195312 191.200195312 564.700195312 137.5 c 128,-1,13
 504.700195312 83.7998046875 504.700195312 83.7998046875 427.299804688 67.599609375 c 0,14,15
 398.5 61.599609375 398.5 61.599609375 364.900390625 61.599609375 c 0,16,17
 332.5 61.599609375 332.5 61.599609375 302.5 67.599609375 c 0,18,19
 278.5 72.400390625 278.5 72.400390625 249.700195312 84.400390625 c 128,-1,20
 220.900390625 96.400390625 220.900390625 96.400390625 199.900390625 110.200195312 c 0,21,22
 136.900390625 152.799804688 136.900390625 152.799804688 101.5 217.599609375 c 0,23,24
 63.099609375 287.799804688 63.099609375 287.799804688 65.2001953125 369.700195312 c 128,-1,25
 67.2998046875 451.599609375 67.2998046875 451.599609375 110.5 519.400390625 c 0,26,27
 147.700195312 579.400390625 147.700195312 579.400390625 206.799804688 616 c 128,-1,28
 265.900390625 652.599609375 265.900390625 652.599609375 336.099609375 659.799804688 c 0,0,1
393.099609375 600.400390625 m 0,29,30
 338.5 607 338.5 607 286.599609375 589.299804688 c 128,-1,31
 234.700195312 571.599609375 234.700195312 571.599609375 195.700195312 532.599609375 c 0,32,33
 149.5 487 149.5 487 132.400390625 425.200195312 c 128,-1,34
 115.299804688 363.400390625 115.299804688 363.400390625 130.900390625 301.599609375 c 0,35,36
 154.299804688 211 154.299804688 211 233.5 158.799804688 c 0,37,38
 275.5 131.200195312 275.5 131.200195312 325.599609375 123.099609375 c 128,-1,39
 375.700195312 115 375.700195312 115 424.299804688 127 c 0,40,41
 487.900390625 143.799804688 487.900390625 143.799804688 533.799804688 188.799804688 c 128,-1,42
 579.700195312 233.799804688 579.700195312 233.799804688 597.400390625 295.299804688 c 128,-1,43
 615.099609375 356.799804688 615.099609375 356.799804688 598.900390625 420.400390625 c 0,44,45
 580.299804688 493 580.299804688 493 523.900390625 542.5 c 128,-1,46
 467.5 592 467.5 592 393.099609375 600.400390625 c 0,29,30
309.099609375 485.799804688 m 2,47,-1
 312.099609375 488.799804688 l 1,48,-1
 363.700195312 488.799804688 l 2,49,50
 415.299804688 488.799804688 415.299804688 488.799804688 420.099609375 487 c 128,-1,51
 424.900390625 485.200195312 424.900390625 485.200195312 426.099609375 482.799804688 c 128,-1,52
 427.299804688 480.400390625 427.299804688 480.400390625 427.299804688 359.799804688 c 2,53,-1
 427.299804688 239.200195312 l 1,54,-1
 424.299804688 237.400390625 l 2,55,56
 418.900390625 233.799804688 418.900390625 233.799804688 391.299804688 233.799804688 c 128,-1,57
 363.700195312 233.799804688 363.700195312 233.799804688 356.5 236.799804688 c 2,58,-1
 352.900390625 238.599609375 l 1,59,-1
 352.900390625 329.200195312 l 1,60,-1
 352.900390625 419.799804688 l 1,61,-1
 333.099609375 419.200195312 l 2,62,63
 315.700195312 418 315.700195312 418 311.799804688 419.5 c 128,-1,64
 307.900390625 421 307.900390625 421 305.5 428.200195312 c 0,65,66
 303.099609375 434.200195312 303.099609375 434.200195312 303.099609375 451.599609375 c 0,67,68
 303.099609375 480.400390625 303.099609375 480.400390625 309.099609375 485.799804688 c 2,47,-1
EndSplineSet
EndChar

StartChar: two
Encoding: 50 50 4
Width: 1000
GlyphClass: 2
Flags: W
LayerCount: 2
Fore
SplineSet
336.099609375 659.799804688 m 0,0,1
 346.900390625 661 346.900390625 661 371.200195312 660.400390625 c 128,-1,2
 395.5 659.799804688 395.5 659.799804688 406.299804688 658 c 0,3,4
 507.099609375 643.599609375 507.099609375 643.599609375 577.900390625 571.599609375 c 0,5,6
 628.900390625 520 628.900390625 520 650.5 451.599609375 c 0,7,8
 664.299804688 409.599609375 664.299804688 409.599609375 664.299804688 361 c 0,9,10
 664.299804688 311.200195312 664.299804688 311.200195312 649.299804688 266.799804688 c 0,11,12
 624.700195312 191.200195312 624.700195312 191.200195312 564.700195312 137.5 c 128,-1,13
 504.700195312 83.7998046875 504.700195312 83.7998046875 427.299804688 67.599609375 c 0,14,15
 398.5 61.599609375 398.5 61.599609375 364.900390625 61.599609375 c 0,16,17
 332.5 61.599609375 332.5 61.599609375 302.5 67.599609375 c 0,18,19
 278.5 72.400390625 278.5 72.400390625 249.700195312 84.400390625 c 128,-1,20
 220.900390625 96.400390625 220.900390625 96.400390625 199.900390625 110.200195312 c 0,21,22
 136.900390625 152.799804688 136.900390625 152.799804688 101.5 217.599609375 c 0,23,24
 63.099609375 287.799804688 63.099609375 287.799804688 65.2001953125 369.700195312 c 128,-1,25
 67.2998046875 451.599609375 67.2998046875 451.599609375 110.5 519.400390625 c 0,26,27
 147.700195312 579.400390625 147.700195312 579.400390625 206.799804688 616 c 128,-1,28
 265.900390625 652.599609375 265.900390625 652.599609375 336.099609375 659.799804688 c 0,0,1
393.099609375 600.400390625 m 0,29,30
 338.5 607 338.5 607 286.599609375 589.299804688 c 128,-1,31
 234.700195312 571.599609375 234.700195312 571.599609375 195.700195312 532.599609375 c 0,32,33
 149.5 487 149.5 487 132.400390625 425.200195312 c 128,-1,34
 115.299804688 363.400390625 115.299804688 363.400390625 130.900390625 301.599609375 c 0,35,36
 154.299804688 211 154.299804688 211 233.5 158.799804688 c 0,37,38
 275.5 131.200195312 275.5 131.200195312 325.599609375 123.099609375 c 128,-1,39
 375.700195312 115 375.700195312 115 424.299804688 127 c 0,40,41
 487.900390625 143.799804688 487.900390625 143.799804688 533.799804688 188.799804688 c 128,-1,42
 579.700195312 233.799804688 579.700195312 233.799804688 597.400390625 295.299804688 c 128,-1,43
 615.099609375 356.799804688 615.099609375 356.799804688 598.900390625 420.400390625 c 0,44,45
 580.299804688 493 580.299804688 493 523.900390625 542.5 c 128,-1,46
 467.5 592 467.5 592 393.099609375 600.400390625 c 0,29,30
342.099609375 489.400390625 m 0,47,48
 346.299804688 490 346.299804688 490 366.099609375 489.400390625 c 0,49,50
 386.5 488.799804688 386.5 488.799804688 395.5 486.400390625 c 0,51,52
 435.700195312 475.599609375 435.700195312 475.599609375 442.900390625 434.799804688 c 0,53,54
 451.299804688 385 451.299804688 385 403.299804688 328 c 0,55,56
 394.299804688 316.599609375 394.299804688 316.599609375 383.5 306.400390625 c 2,57,-1
 372.700195312 296.200195312 l 1,58,-1
 394.900390625 296.799804688 l 2,59,60
 415.900390625 297.400390625 415.900390625 297.400390625 431.5 298.599609375 c 2,61,-1
 445.299804688 299.200195312 l 1,62,-1
 446.5 281.799804688 l 2,63,64
 447.099609375 262 447.099609375 262 445.299804688 252.400390625 c 128,-1,65
 443.5 242.799804688 443.5 242.799804688 436.900390625 236.799804688 c 2,66,-1
 432.700195312 232.599609375 l 1,67,-1
 366.099609375 232.599609375 l 2,68,69
 316.299804688 232 316.299804688 232 307.599609375 232.299804688 c 128,-1,70
 298.900390625 232.599609375 298.900390625 232.599609375 296.5 234.400390625 c 0,71,72
 286.299804688 242.799804688 286.299804688 242.799804688 284.5 271.599609375 c 2,73,-1
 283.900390625 283.599609375 l 1,74,-1
 297.700195312 298.599609375 l 2,75,76
 343.900390625 348.400390625 343.900390625 348.400390625 358.900390625 375.400390625 c 128,-1,77
 373.900390625 402.400390625 373.900390625 402.400390625 361.900390625 415 c 0,78,79
 355.900390625 421.599609375 355.900390625 421.599609375 341.5 420.400390625 c 128,-1,80
 327.099609375 419.200195312 327.099609375 419.200195312 312.700195312 411.400390625 c 2,81,-1
 303.700195312 406.599609375 l 1,82,-1
 298.900390625 413.799804688 l 2,83,84
 288.099609375 428.799804688 288.099609375 428.799804688 284.5 443.5 c 128,-1,85
 280.900390625 458.200195312 280.900390625 458.200195312 285.700195312 466 c 0,86,87
 289.900390625 472.599609375 289.900390625 472.599609375 306.400390625 479.5 c 128,-1,88
 322.900390625 486.400390625 322.900390625 486.400390625 342.099609375 489.400390625 c 0,47,48
EndSplineSet
EndChar

StartChar: three
Encoding: 51 51 5
Width: 1000
GlyphClass: 2
Flags: W
LayerCount: 2
Fore
SplineSet
336.099609375 659.799804688 m 0,0,1
 346.900390625 661 346.900390625 661 371.200195312 660.400390625 c 128,-1,2
 395.5 659.799804688 395.5 659.799804688 406.299804688 658 c 0,3,4
 507.099609375 643.599609375 507.099609375 643.599609375 577.900390625 571.599609375 c 0,5,6
 628.900390625 520 628.900390625 520 650.5 451.599609375 c 0,7,8
 664.299804688 409.599609375 664.299804688 409.599609375 664.299804688 361 c 0,9,10
 664.299804688 311.200195312 664.299804688 311.200195312 649.299804688 266.799804688 c 0,11,12
 624.700195312 191.200195312 624.700195312 191.200195312 564.700195312 137.5 c 128,-1,13
 504.700195312 83.7998046875 504.700195312 83.7998046875 427.299804688 67.599609375 c 0,14,15
 398.5 61.599609375 398.5 61.599609375 364.900390625 61.599609375 c 0,16,17
 332.5 61.599609375 332.5 61.599609375 302.5 67.599609375 c 0,18,19
 278.5 72.400390625 278.5 72.400390625 249.700195312 84.400390625 c 128,-1,20
 220.900390625 96.400390625 220.900390625 96.400390625 199.900390625 110.200195312 c 0,21,22
 136.900390625 152.799804688 136.900390625 152.799804688 101.5 217.599609375 c 0,23,24
 63.099609375 287.799804688 63.099609375 287.799804688 65.2001953125 369.700195312 c 128,-1,25
 67.2998046875 451.599609375 67.2998046875 451.599609375 110.5 519.400390625 c 0,26,27
 147.700195312 579.400390625 147.700195312 579.400390625 206.799804688 616 c 128,-1,28
 265.900390625 652.599609375 265.900390625 652.599609375 336.099609375 659.799804688 c 0,0,1
393.099609375 600.400390625 m 0,29,30
 338.5 607 338.5 607 286.599609375 589.299804688 c 128,-1,31
 234.700195312 571.599609375 234.700195312 571.599609375 195.700195312 532.599609375 c 0,32,33
 149.5 487 149.5 487 132.400390625 425.200195312 c 128,-1,34
 115.299804688 363.400390625 115.299804688 363.400390625 130.900390625 301.599609375 c 0,35,36
 154.299804688 211 154.299804688 211 233.5 158.799804688 c 0,37,38
 275.5 131.200195312 275.5 131.200195312 325.599609375 123.099609375 c 128,-1,39
 375.700195312 115 375.700195312 115 424.299804688 127 c 0,40,41
 487.900390625 143.799804688 487.900390625 143.799804688 533.799804688 188.799804688 c 128,-1,42
 579.700195312 233.799804688 579.700195312 233.799804688 597.400390625 295.299804688 c 128,-1,43
 615.099609375 356.799804688 615.099609375 356.799804688 598.900390625 420.400390625 c 0,44,45
 580.299804688 493 580.299804688 493 523.900390625 542.5 c 128,-1,46
 467.5 592 467.5 592 393.099609375 600.400390625 c 0,29,30
345.099609375 491.200195312 m 0,47,48
 389.5 494.799804688 389.5 494.799804688 414.099609375 482.200195312 c 0,49,50
 444.700195312 466 444.700195312 466 441.700195312 431.200195312 c 0,51,52
 438.700195312 395.200195312 438.700195312 395.200195312 410.5 374.200195312 c 2,53,-1
 404.5 370 l 1,54,-1
 412.299804688 366.400390625 l 2,55,56
 450.099609375 347.200195312 450.099609375 347.200195312 449.5 305.799804688 c 0,57,58
 449.5 277 449.5 277 431.5 257.200195312 c 0,59,60
 409.299804688 233.200195312 409.299804688 233.200195312 364.299804688 230.200195312 c 0,61,62
 337.900390625 228.400390625 337.900390625 228.400390625 311.200195312 235.900390625 c 128,-1,63
 284.5 243.400390625 284.5 243.400390625 280.299804688 254.200195312 c 0,64,65
 278.5 259 278.5 259 283 274 c 128,-1,66
 287.5 289 287.5 289 294.700195312 301.599609375 c 2,67,-1
 299.5 309.400390625 l 1,68,-1
 307.900390625 305.200195312 l 2,69,70
 325.299804688 297.400390625 325.299804688 297.400390625 343.900390625 297.400390625 c 0,71,72
 357.099609375 297.400390625 357.099609375 297.400390625 363.700195312 300.400390625 c 0,73,74
 375.700195312 305.799804688 375.700195312 305.799804688 376.299804688 317.799804688 c 0,75,76
 376.900390625 324.400390625 376.900390625 324.400390625 373.299804688 328 c 0,77,78
 367.900390625 334.599609375 367.900390625 334.599609375 340.900390625 335.799804688 c 0,79,80
 328.299804688 336.400390625 328.299804688 336.400390625 325.900390625 338.200195312 c 0,81,82
 319.299804688 344.200195312 319.299804688 344.200195312 318.099609375 364 c 0,83,84
 317.5 377.200195312 317.5 377.200195312 321.099609375 381.400390625 c 128,-1,85
 324.700195312 385.599609375 324.700195312 385.599609375 337.299804688 385.599609375 c 0,86,87
 354.099609375 385.599609375 354.099609375 385.599609375 364.900390625 395.799804688 c 0,88,89
 368.5 399.400390625 368.5 399.400390625 369.099609375 400.900390625 c 128,-1,90
 369.700195312 402.400390625 369.700195312 402.400390625 369.099609375 406 c 0,91,92
 368.5 410.799804688 368.5 410.799804688 367 413.200195312 c 128,-1,93
 365.5 415.599609375 365.5 415.599609375 360.099609375 417.400390625 c 0,94,95
 342.700195312 425.200195312 342.700195312 425.200195312 311.5 415.599609375 c 2,96,-1
 302.5 412.599609375 l 1,97,-1
 299.5 419.799804688 l 2,98,99
 289.900390625 437.799804688 289.900390625 437.799804688 287.5 451.599609375 c 0,100,101
 283.900390625 471.400390625 283.900390625 471.400390625 303.099609375 480.400390625 c 0,102,103
 319.299804688 488.799804688 319.299804688 488.799804688 345.099609375 491.200195312 c 0,47,48
EndSplineSet
EndChar

StartChar: four
Encoding: 52 52 6
Width: 1000
GlyphClass: 2
Flags: W
LayerCount: 2
Fore
SplineSet
336.099609375 659.799804688 m 0,0,1
 346.900390625 661 346.900390625 661 371.200195312 660.400390625 c 128,-1,2
 395.5 659.799804688 395.5 659.799804688 406.299804688 658 c 0,3,4
 507.099609375 643.599609375 507.099609375 643.599609375 577.900390625 571.599609375 c 0,5,6
 628.900390625 520 628.900390625 520 650.5 451.599609375 c 0,7,8
 664.299804688 409.599609375 664.299804688 409.599609375 664.299804688 361 c 0,9,10
 664.299804688 311.200195312 664.299804688 311.200195312 649.299804688 266.799804688 c 0,11,12
 624.700195312 191.200195312 624.700195312 191.200195312 564.700195312 137.5 c 128,-1,13
 504.700195312 83.7998046875 504.700195312 83.7998046875 427.299804688 67.599609375 c 0,14,15
 398.5 61.599609375 398.5 61.599609375 364.900390625 61.599609375 c 0,16,17
 332.5 61.599609375 332.5 61.599609375 302.5 67.599609375 c 0,18,19
 278.5 72.400390625 278.5 72.400390625 249.700195312 84.400390625 c 128,-1,20
 220.900390625 96.400390625 220.900390625 96.400390625 199.900390625 110.200195312 c 0,21,22
 136.900390625 152.799804688 136.900390625 152.799804688 101.5 217.599609375 c 0,23,24
 63.099609375 287.799804688 63.099609375 287.799804688 65.2001953125 369.700195312 c 128,-1,25
 67.2998046875 451.599609375 67.2998046875 451.599609375 110.5 519.400390625 c 0,26,27
 147.700195312 579.400390625 147.700195312 579.400390625 206.799804688 616 c 128,-1,28
 265.900390625 652.599609375 265.900390625 652.599609375 336.099609375 659.799804688 c 0,0,1
393.099609375 600.400390625 m 0,29,30
 338.5 607 338.5 607 286.599609375 589.299804688 c 128,-1,31
 234.700195312 571.599609375 234.700195312 571.599609375 195.700195312 532.599609375 c 0,32,33
 149.5 487 149.5 487 132.400390625 425.200195312 c 128,-1,34
 115.299804688 363.400390625 115.299804688 363.400390625 130.900390625 301.599609375 c 0,35,36
 154.299804688 211 154.299804688 211 233.5 158.799804688 c 0,37,38
 275.5 131.200195312 275.5 131.200195312 325.599609375 123.099609375 c 128,-1,39
 375.700195312 115 375.700195312 115 424.299804688 127 c 0,40,41
 487.900390625 143.799804688 487.900390625 143.799804688 533.799804688 188.799804688 c 128,-1,42
 579.700195312 233.799804688 579.700195312 233.799804688 597.400390625 295.299804688 c 128,-1,43
 615.099609375 356.799804688 615.099609375 356.799804688 598.900390625 420.400390625 c 0,44,45
 580.299804688 493 580.299804688 493 523.900390625 542.5 c 128,-1,46
 467.5 592 467.5 592 393.099609375 600.400390625 c 0,29,30
366.700195312 487.599609375 m 0,47,48
 376.900390625 488.200195312 376.900390625 488.200195312 406.299804688 488.200195312 c 2,49,-1
 435.700195312 488.200195312 l 1,50,-1
 436.299804688 415 l 1,51,-1
 436.900390625 341.799804688 l 1,52,-1
 449.5 341.200195312 l 2,53,54
 462.099609375 341.200195312 462.099609375 341.200195312 462.700195312 338.799804688 c 0,55,56
 463.900390625 336.400390625 463.900390625 336.400390625 464.200195312 322 c 128,-1,57
 464.5 307.599609375 464.5 307.599609375 463.900390625 299.799804688 c 0,58,59
 463.299804688 289.599609375 463.299804688 289.599609375 461.5 287.799804688 c 128,-1,60
 459.700195312 286 459.700195312 286 447.700195312 286 c 2,61,-1
 436.299804688 286 l 1,62,-1
 436.299804688 262.599609375 l 2,63,64
 436.299804688 239.200195312 436.299804688 239.200195312 435.099609375 238 c 0,65,66
 429.700195312 233.799804688 429.700195312 233.799804688 396.099609375 233.799804688 c 0,67,68
 371.5 233.799804688 371.5 233.799804688 367.299804688 235.599609375 c 2,69,-1
 362.5 238 l 1,70,-1
 362.5 261.400390625 l 1,71,-1
 362.5 284.799804688 l 1,72,-1
 326.5 284.799804688 l 1,73,-1
 289.900390625 284.799804688 l 1,74,-1
 285.099609375 290.799804688 l 2,75,76
 276.700195312 301.599609375 276.700195312 301.599609375 269.5 317.799804688 c 0,77,78
 265.900390625 325.599609375 265.900390625 325.599609375 265.900390625 332.200195312 c 2,79,-1
 265.900390625 339.400390625 l 1,80,-1
 306.700195312 412 l 2,81,82
 311.5 419.799804688 311.5 419.799804688 318.700195312 432.400390625 c 0,83,84
 341.5 473.200195312 341.5 473.200195312 346.900390625 480.099609375 c 128,-1,85
 352.299804688 487 352.299804688 487 361.299804688 487 c 0,86,87
 364.299804688 487 364.299804688 487 366.700195312 487.599609375 c 0,47,48
373.299804688 378.400390625 m 2,88,89
 373.299804688 416.200195312 373.299804688 416.200195312 373 416.200195312 c 128,-1,90
 372.700195312 416.200195312 372.700195312 416.200195312 352.299804688 379.900390625 c 128,-1,91
 331.900390625 343.599609375 331.900390625 343.599609375 331.299804688 341.799804688 c 1,92,93
 331.299804688 341.799804688 331.299804688 341.799804688 334 341.5 c 128,-1,94
 336.700195312 341.200195312 336.700195312 341.200195312 341.5 341.200195312 c 128,-1,95
 346.299804688 341.200195312 346.299804688 341.200195312 351.700195312 341.200195312 c 2,96,-1
 373.299804688 341.200195312 l 1,97,-1
 373.299804688 378.400390625 l 2,88,89
EndSplineSet
EndChar

StartChar: five
Encoding: 53 53 7
Width: 1000
GlyphClass: 2
Flags: W
LayerCount: 2
Fore
SplineSet
336.099609375 659.799804688 m 0,0,1
 346.900390625 661 346.900390625 661 371.200195312 660.400390625 c 128,-1,2
 395.5 659.799804688 395.5 659.799804688 406.299804688 658 c 0,3,4
 507.099609375 643.599609375 507.099609375 643.599609375 577.900390625 571.599609375 c 0,5,6
 628.900390625 520 628.900390625 520 650.5 451.599609375 c 0,7,8
 664.299804688 409.599609375 664.299804688 409.599609375 664.299804688 361 c 0,9,10
 664.299804688 311.200195312 664.299804688 311.200195312 649.299804688 266.799804688 c 0,11,12
 624.700195312 191.200195312 624.700195312 191.200195312 564.700195312 137.5 c 128,-1,13
 504.700195312 83.7998046875 504.700195312 83.7998046875 427.299804688 67.599609375 c 0,14,15
 398.5 61.599609375 398.5 61.599609375 364.900390625 61.599609375 c 0,16,17
 332.5 61.599609375 332.5 61.599609375 302.5 67.599609375 c 0,18,19
 278.5 72.400390625 278.5 72.400390625 249.700195312 84.400390625 c 128,-1,20
 220.900390625 96.400390625 220.900390625 96.400390625 199.900390625 110.200195312 c 0,21,22
 136.900390625 152.799804688 136.900390625 152.799804688 101.5 217.599609375 c 0,23,24
 63.099609375 287.799804688 63.099609375 287.799804688 65.2001953125 369.700195312 c 128,-1,25
 67.2998046875 451.599609375 67.2998046875 451.599609375 110.5 519.400390625 c 0,26,27
 147.700195312 579.400390625 147.700195312 579.400390625 206.799804688 616 c 128,-1,28
 265.900390625 652.599609375 265.900390625 652.599609375 336.099609375 659.799804688 c 0,0,1
393.099609375 600.400390625 m 0,29,30
 338.5 607 338.5 607 286.599609375 589.299804688 c 128,-1,31
 234.700195312 571.599609375 234.700195312 571.599609375 195.700195312 532.599609375 c 0,32,33
 149.5 487 149.5 487 132.400390625 425.200195312 c 128,-1,34
 115.299804688 363.400390625 115.299804688 363.400390625 130.900390625 301.599609375 c 0,35,36
 154.299804688 211 154.299804688 211 233.5 158.799804688 c 0,37,38
 275.5 131.200195312 275.5 131.200195312 325.599609375 123.099609375 c 128,-1,39
 375.700195312 115 375.700195312 115 424.299804688 127 c 0,40,41
 487.900390625 143.799804688 487.900390625 143.799804688 533.799804688 188.799804688 c 128,-1,42
 579.700195312 233.799804688 579.700195312 233.799804688 597.400390625 295.299804688 c 128,-1,43
 615.099609375 356.799804688 615.099609375 356.799804688 598.900390625 420.400390625 c 0,44,45
 580.299804688 493 580.299804688 493 523.900390625 542.5 c 128,-1,46
 467.5 592 467.5 592 393.099609375 600.400390625 c 0,29,30
301.900390625 488.200195312 m 256,47,48
 304.299804688 490 304.299804688 490 366.700195312 490 c 2,49,-1
 428.5 490 l 1,50,-1
 430.299804688 485.799804688 l 2,51,52
 435.099609375 473.200195312 435.099609375 473.200195312 432.099609375 443.200195312 c 0,53,54
 429.700195312 427.599609375 429.700195312 427.599609375 426.700195312 425.200195312 c 0,55,56
 424.900390625 424 424.900390625 424 390.099609375 424 c 2,57,-1
 354.099609375 424 l 1,58,-1
 354.099609375 411.400390625 l 1,59,-1
 354.099609375 398.799804688 l 1,60,-1
 368.5 398.200195312 l 2,61,62
 408.700195312 395.799804688 408.700195312 395.799804688 425.5 373.599609375 c 0,63,64
 438.700195312 356.200195312 438.700195312 356.200195312 442 332.200195312 c 128,-1,65
 445.299804688 308.200195312 445.299804688 308.200195312 438.099609375 287.200195312 c 0,66,67
 432.700195312 271 432.700195312 271 419.5 258.099609375 c 128,-1,68
 406.299804688 245.200195312 406.299804688 245.200195312 389.5 238.599609375 c 0,69,70
 370.299804688 231.400390625 370.299804688 231.400390625 341.5 232 c 128,-1,71
 312.700195312 232.599609375 312.700195312 232.599609375 294.700195312 241 c 0,72,73
 290.5 242.799804688 290.5 242.799804688 289.599609375 244 c 128,-1,74
 288.700195312 245.200195312 288.700195312 245.200195312 287.5 250 c 0,75,76
 285.700195312 260.200195312 285.700195312 260.200195312 288.700195312 280.900390625 c 128,-1,77
 291.700195312 301.599609375 291.700195312 301.599609375 295.900390625 304 c 0,78,79
 297.099609375 305.200195312 297.099609375 305.200195312 307.299804688 301 c 0,80,81
 339.700195312 287.799804688 339.700195312 287.799804688 357.099609375 297.400390625 c 0,82,83
 370.900390625 305.200195312 370.900390625 305.200195312 370.900390625 321.400390625 c 128,-1,84
 370.900390625 337.599609375 370.900390625 337.599609375 357.099609375 344.799804688 c 0,85,86
 352.299804688 347.200195312 352.299804688 347.200195312 348.400390625 347.799804688 c 128,-1,87
 344.5 348.400390625 344.5 348.400390625 327.700195312 348.400390625 c 256,88,89
 310.900390625 348.400390625 310.900390625 348.400390625 307.299804688 348.700195312 c 128,-1,90
 303.700195312 349 303.700195312 349 301.900390625 350.799804688 c 0,91,92
 299.5 353.200195312 299.5 353.200195312 298.299804688 356.5 c 128,-1,93
 297.099609375 359.799804688 297.099609375 359.799804688 297.099609375 418.599609375 c 128,-1,94
 297.099609375 477.400390625 297.099609375 477.400390625 298.299804688 482.200195312 c 0,95,96
 299.5 486.400390625 299.5 486.400390625 301.900390625 488.200195312 c 256,47,48
EndSplineSet
EndChar

StartChar: A
Encoding: 65 65 8
Width: 700
GlyphClass: 2
Flags: W
LayerCount: 2
Fore
SplineSet
350 500 m 0,0,1
 420 500 420 500 474 457 c 128,-1,2
 528 414 528 414 544 349 c 1,3,4
 589 342 589 342 619.5 307 c 128,-1,5
 650 272 650 272 650 225 c 0,6,7
 650 173 650 173 613.5 136.5 c 128,-1,8
 577 100 577 100 525 100 c 2,9,-1
 350 100 l 1,10,-1
 200 100 l 2,11,12
 138 100 138 100 94 144 c 128,-1,13
 50 188 50 188 50 250 c 0,14,15
 50 306 50 306 86 347.5 c 128,-1,16
 122 389 122 389 176 398 c 1,17,18
 202 444 202 444 248.5 472 c 128,-1,19
 295 500 295 500 350 500 c 0,0,1
350 450 m 0,20,21
 302 450 302 450 263 422 c 128,-1,22
 224 394 224 394 208 350 c 0,23,24
 204 350 204 350 200 350 c 0,25,26
 159 350 159 350 129.5 320.5 c 128,-1,27
 100 291 100 291 100 250 c 128,-1,28
 100 209 100 209 129.5 179.5 c 128,-1,29
 159 150 159 150 200 150 c 2,30,-1
 525 150 l 2,31,32
 556 150 556 150 578 172 c 128,-1,33
 600 194 600 194 600 225 c 128,-1,34
 600 256 600 256 578 278 c 128,-1,35
 556 300 556 300 525 300 c 0,36,37
 496 300 496 300 475 281 c 1,38,-1
 440 316 l 1,39,40
 463 338 463 338 493 346 c 1,41,42
 478 392 478 392 439 421 c 128,-1,43
 400 450 400 450 350 450 c 0,20,21
EndSplineSet
EndChar

StartChar: B
Encoding: 66 66 9
Width: 700
GlyphClass: 2
Flags: W
LayerCount: 2
Fore
SplineSet
350 600 m 0,0,1
 420 600 420 600 474 557 c 128,-1,2
 528 514 528 514 544 449 c 1,3,4
 589 442 589 442 619.5 407 c 128,-1,5
 650 372 650 372 650 325 c 0,6,7
 650 273 650 273 613.5 236.5 c 128,-1,8
 577 200 577 200 525 200 c 2,9,-1
 505 200 l 1,10,-1
 505 250 l 1,11,-1
 525 250 l 2,12,13
 556 250 556 250 578 272 c 128,-1,14
 600 294 600 294 600 325 c 128,-1,15
 600 356 600 356 578 378 c 128,-1,16
 556 400 556 400 525 400 c 0,17,18
 496 400 496 400 475 381 c 1,19,-1
 440 416 l 1,20,21
 463 438 463 438 493 446 c 1,22,23
 487 464 487 464 477 480 c 128,-1,24
 467 496 467 496 453.5 508.5 c 128,-1,25
 440 521 440 521 423.5 530.5 c 128,-1,26
 407 540 407 540 388.5 545 c 128,-1,27
 370 550 370 550 350 550 c 0,28,29
 302 550 302 550 263 522 c 128,-1,30
 224 494 224 494 208 450 c 0,31,32
 204 450 204 450 200 450 c 0,33,34
 159 450 159 450 129.5 420.5 c 128,-1,35
 100 391 100 391 100 350 c 0,36,37
 100 310 100 310 127.5 281 c 128,-1,38
 155 252 155 252 195 250 c 1,39,-1
 195 200 l 1,40,41
 155 201 155 201 122 221.5 c 128,-1,42
 89 242 89 242 69.5 276 c 128,-1,43
 50 310 50 310 50 350 c 0,44,45
 50 406 50 406 86 447.5 c 128,-1,46
 122 489 122 489 176 498 c 1,47,48
 202 544 202 544 248.5 572 c 128,-1,49
 295 600 295 600 350 600 c 0,0,1
498 80 m 1,50,-1
 498 55 l 1,51,52
 478 54 478 54 464 39.5 c 128,-1,53
 450 25 450 25 450 5 c 0,54,55
 450 3 450 3 450 0 c 1,56,-1
 425 0 l 1,57,58
 425 3 425 3 425 5 c 0,59,60
 425 35 425 35 446 57 c 128,-1,61
 467 79 467 79 498 80 c 1,50,-1
375 60 m 128,-1,63
 375 50 375 50 367.5 42.5 c 128,-1,64
 360 35 360 35 350 35 c 128,-1,65
 340 35 340 35 332.5 42.5 c 128,-1,66
 325 50 325 50 325 60 c 128,-1,67
 325 70 325 70 332.5 77.5 c 128,-1,68
 340 85 340 85 350 85 c 128,-1,69
 360 85 360 85 367.5 77.5 c 128,-1,62
 375 70 375 70 375 60 c 128,-1,63
338 120 m 1,70,-1
 338 240 l 1,71,-1
 363 240 l 1,72,-1
 363 120 l 1,73,-1
 338 120 l 1,70,-1
250 0 m 1,74,-1
 250 300 l 1,75,-1
 275 300 l 1,76,-1
 275 0 l 1,77,-1
 250 0 l 1,74,-1
425 0 m 1,78,-1
 425 300 l 1,79,-1
 450 300 l 1,80,-1
 450 0 l 1,81,-1
 425 0 l 1,78,-1
162 129 m 1,82,83
 194 126 194 126 219.5 109 c 128,-1,84
 245 92 245 92 260 64.5 c 128,-1,85
 275 37 275 37 275 5 c 0,86,87
 275 2 275 2 275 0 c 1,88,-1
 250 0 l 1,89,90
 250 3 250 3 250 5 c 0,91,92
 250 43 250 43 225 71.5 c 128,-1,93
 200 100 200 100 162 104 c 1,94,-1
 162 129 l 1,82,83
112 120 m 0,95,96
 112 110 112 110 105 102.5 c 128,-1,97
 98 95 98 95 87.5 95 c 128,-1,98
 77 95 77 95 69.5 102.5 c 128,-1,99
 62 110 62 110 62 120 c 0,100,101
 62 127 62 127 65.5 132.5 c 128,-1,102
 69 138 69 138 75 141.5 c 128,-1,103
 81 145 81 145 87.5 145 c 128,-1,104
 94 145 94 145 100 141.5 c 128,-1,105
 106 138 106 138 109 132.5 c 128,-1,106
 112 127 112 127 112 120 c 0,95,96
588 75 m 128,-1,108
 588 65 588 65 580.5 57.5 c 128,-1,109
 573 50 573 50 562.5 50 c 128,-1,110
 552 50 552 50 545 57.5 c 128,-1,111
 538 65 538 65 538 75 c 128,-1,112
 538 85 538 85 545 92.5 c 128,-1,113
 552 100 552 100 562.5 100 c 128,-1,114
 573 100 573 100 580.5 92.5 c 128,-1,107
 588 85 588 85 588 75 c 128,-1,108
EndSplineSet
EndChar

StartChar: C
Encoding: 67 67 10
Width: 700
GlyphClass: 2
Flags: W
LayerCount: 2
Fore
SplineSet
350 500 m 0,0,1
 364 500 364 500 378 498 c 1,2,-1
 213 100 l 1,3,-1
 200 100 l 2,4,5
 181 100 181 100 161 105 c 1,6,-1
 324 498 l 1,7,8
 338 500 338 500 350 500 c 0,0,1
427 485 m 1,9,10
 450 475 450 475 470 459 c 1,11,-1
 321 100 l 1,12,-1
 267 100 l 1,13,-1
 427 485 l 1,9,10
262 480 m 1,14,-1
 116 126 l 1,15,16
 93 141 93 141 77 164 c 1,17,-1
 174 398 l 1,18,19
 174 398 174 398 174.5 398 c 128,-1,20
 175 398 175 398 176 398 c 0,21,22
 206 452 206 452 262 480 c 1,14,-1
509 422 m 1,23,24
 528 396 528 396 539 364 c 1,25,-1
 430 100 l 1,26,-1
 375 100 l 1,27,-1
 509 422 l 1,23,24
108 368 m 1,28,-1
 51 232 l 1,29,30
 50 242 50 242 50 250 c 0,31,32
 50 323 50 323 108 368 c 1,28,-1
582 336 m 1,33,34
 605 324 605 324 622 303 c 1,35,-1
 538 101 l 1,36,37
 532 100 532 100 525 100 c 2,38,-1
 484 100 l 1,39,-1
 582 336 l 1,33,34
649 238 m 1,40,41
 650 229 650 229 650 225 c 0,42,43
 650 165 650 165 603 128 c 1,44,-1
 649 238 l 1,40,41
EndSplineSet
EndChar

StartChar: D
Encoding: 68 68 11
Width: 600
GlyphClass: 2
Flags: W
LayerCount: 2
Fore
SplineSet
300 550 m 0,0,1
 321 550 321 550 340 547 c 1,2,3
 304 478 304 478 331 405 c 0,4,5
 355 338 355 338 419 307.5 c 128,-1,6
 483 277 483 277 550 299 c 1,7,8
 550 272 550 272 544 246 c 0,9,10
 542 236 542 236 540 231 c 0,11,12
 538 222 538 222 535 216 c 2,13,14
 535 216 535 216 535 215 c 128,-1,15
 535 214 535 214 535 214 c 2,16,17
 533 210 533 210 530 202 c 0,18,19
 527 195 527 195 523 188 c 0,20,21
 513 168 513 168 500 151 c 0,22,23
 500 150 500 150 499.5 149.5 c 128,-1,24
 499 149 499 149 499 149 c 2,25,26
 496 145 496 145 493 141 c 0,27,28
 492 141 492 141 491 139 c 128,-1,29
 490 137 490 137 489 136.5 c 128,-1,30
 488 136 488 136 486.5 134.5 c 128,-1,31
 485 133 485 133 485 132 c 0,32,33
 483 130 483 130 478 125 c 0,34,35
 470 117 470 117 468 115 c 0,36,37
 467 114 467 114 467 114 c 2,38,39
 462 110 462 110 455 104 c 0,40,41
 451 100 451 100 442 95 c 0,42,43
 431 87 431 87 430 86 c 2,44,-1
 429 86 l 1,45,46
 423 82 423 82 415 78 c 0,47,48
 401 71 401 71 385 65 c 0,49,50
 373 61 373 61 362 58 c 0,51,52
 357 57 357 57 350 55 c 2,53,54
 350 55 350 55 349.5 55 c 128,-1,55
 349 55 349 55 348 55 c 0,56,57
 343 54 343 54 338 53 c 0,58,59
 331 52 331 52 326 51 c 0,60,61
 325 51 325 51 324.5 51 c 128,-1,62
 324 51 324 51 324 51 c 2,63,64
 319 51 319 51 317 51 c 0,65,66
 316 51 316 51 312 50 c 0,67,68
 295 49 295 49 275 51 c 2,69,-1
 274 51 l 1,70,71
 274 52 274 52 273 52 c 128,-1,72
 272 52 272 52 271 52 c 0,73,74
 267 52 267 52 262 53 c 128,-1,75
 257 54 257 54 251 55 c 0,76,77
 250 55 250 55 249.5 55 c 128,-1,78
 249 55 249 55 249 55.5 c 128,-1,79
 249 56 249 56 249 56 c 1,80,81
 240 57 240 57 237 58 c 2,82,-1
 236 59 l 1,83,84
 219 63 219 63 205 69 c 1,85,86
 205 69 205 69 204 69 c 128,-1,87
 203 69 203 69 203 70 c 0,88,89
 195 73 195 73 183 79 c 2,90,91
 183 79 183 79 182 79.5 c 128,-1,92
 181 80 181 80 181 80 c 2,93,94
 176 83 176 83 173 85 c 2,95,96
 173 85 173 85 172 85.5 c 128,-1,97
 171 86 171 86 170 86 c 0,98,99
 169 87 169 87 166 89 c 128,-1,100
 163 91 163 91 163 91 c 2,101,102
 162 91 162 91 161.5 91.5 c 128,-1,103
 161 92 161 92 160 93 c 0,104,105
 157 95 157 95 153 98 c 256,106,107
 149 101 149 101 143 105 c 0,108,109
 143 106 143 106 142 106.5 c 128,-1,110
 141 107 141 107 141 107 c 2,111,112
 138 109 138 109 134 113 c 2,113,114
 134 113 134 113 133 114 c 128,-1,115
 132 115 132 115 132 115 c 2,116,117
 130 117 130 117 127 119 c 0,118,119
 127 120 127 120 126 121 c 128,-1,120
 125 122 125 122 124 122 c 0,121,122
 122 124 122 124 121 126 c 0,123,124
 117 130 117 130 115 132 c 0,125,126
 111 136 111 136 107 141 c 0,127,128
 107 142 107 142 104.5 144.5 c 128,-1,129
 102 147 102 147 101 149 c 2,130,131
 101 149 101 149 100.5 149.5 c 128,-1,132
 100 150 100 150 100 151 c 0,133,134
 95 156 95 156 94 159 c 2,135,136
 94 159 94 159 93.5 159.5 c 128,-1,137
 93 160 93 160 93 160 c 2,138,139
 86 170 86 170 82 178 c 0,140,141
 81 179 81 179 81 179.5 c 128,-1,142
 81 180 81 180 81 180 c 129,-1,143
 81 180 81 180 80.5 180.5 c 128,-1,144
 80 181 80 181 80 181 c 2,145,146
 79 182 79 182 78.5 184 c 128,-1,147
 78 186 78 186 77 188 c 128,-1,148
 76 190 76 190 75 191 c 2,149,-1
 75 192 l 2,150,151
 72 198 72 198 70 203 c 0,152,153
 67 209 67 209 65 215 c 0,154,155
 63 219 63 219 61 226 c 0,156,157
 61 227 61 227 61 227 c 2,158,159
 61 228 61 228 60.5 230 c 128,-1,160
 60 232 60 232 59 232 c 1,161,162
 59 233 59 233 58.5 235.5 c 128,-1,163
 58 238 58 238 57.5 239 c 128,-1,164
 57 240 57 240 57 240 c 2,165,166
 56 246 56 246 55 252 c 0,167,168
 54 257 54 257 53 262 c 2,169,170
 53 262 53 262 53 262.5 c 128,-1,171
 53 263 53 263 52 264 c 0,172,173
 52 266 52 266 51 275 c 0,174,175
 50 287 50 287 50 300 c 0,176,177
 50 301 50 301 50 302.5 c 128,-1,178
 50 304 50 304 50 306 c 128,-1,179
 50 308 50 308 50 309 c 2,180,181
 50 309 50 309 50 310.5 c 128,-1,182
 50 312 50 312 50 313 c 0,183,184
 51 318 51 318 51 325 c 2,185,186
 51 325 51 325 51 326 c 2,187,188
 51 326 51 326 51 327 c 128,-1,189
 51 328 51 328 52 329 c 0,190,191
 52 333 52 333 53 338 c 128,-1,192
 54 343 54 343 55 349 c 2,193,194
 55 349 55 349 55 349.5 c 128,-1,195
 55 350 55 350 55 350.5 c 128,-1,196
 55 351 55 351 55 352 c 128,-1,197
 55 353 55 353 56 354 c 0,198,199
 56 356 56 356 58 362 c 0,200,201
 58 365 58 365 61 372 c 2,202,203
 61 372 61 372 61 373 c 128,-1,204
 61 374 61 374 61 374 c 1,205,206
 65 387 65 387 68 393 c 0,207,208
 68 394 68 394 68.5 395 c 128,-1,209
 69 396 69 396 69 397 c 0,210,211
 71 400 71 400 73 406 c 0,212,213
 74 406 74 406 74 407 c 128,-1,214
 74 408 74 408 75 408 c 0,215,216
 77 413 77 413 79 417 c 256,217,218
 81 421 81 421 83 424 c 0,219,220
 83 425 83 425 85 428 c 0,221,222
 86 429 86 429 86 430 c 0,223,224
 89 434 89 434 91 437 c 2,225,-1
 92 438 l 1,226,-1
 92 439 l 1,227,228
 92 439 92 439 93 440 c 0,229,230
 94 442 94 442 94.5 442.5 c 128,-1,231
 95 443 95 443 96.5 445.5 c 128,-1,232
 98 448 98 448 99 449 c 2,233,234
 99 449 99 449 99.5 450 c 128,-1,235
 100 451 100 451 101 451 c 0,236,237
 102 453 102 453 107 459 c 0,238,239
 111 464 111 464 115 468 c 0,240,241
 116 469 116 469 117 470.5 c 128,-1,242
 118 472 118 472 119 473 c 128,-1,243
 120 474 120 474 121 475 c 2,244,-1
 122 476 l 2,245,246
 125 479 125 479 130 483 c 2,247,248
 130 483 130 483 130.5 484 c 128,-1,249
 131 485 131 485 132 485 c 0,250,251
 133 486 133 486 138 491 c 0,252,253
 139 491 139 491 139.5 492 c 128,-1,254
 140 493 140 493 141 493 c 0,255,256
 144 496 144 496 148 499 c 0,257,258
 149 499 149 499 149.5 499.5 c 128,-1,259
 150 500 150 500 150 501 c 0,260,261
 152 502 152 502 154 503.5 c 128,-1,262
 156 505 156 505 157 505 c 1,263,264
 157 506 157 506 158.5 506.5 c 128,-1,265
 160 507 160 507 160 507 c 2,266,267
 167 512 167 512 169 513 c 0,268,269
 170 514 170 514 170 514 c 257,270,271
 170 514 170 514 171.5 515 c 128,-1,272
 173 516 173 516 174 516 c 0,273,274
 178 518 178 518 181 520 c 0,275,276
 191 526 191 526 202 530 c 1,277,-1
 203 531 l 2,278,279
 212 535 212 535 226 539 c 0,280,281
 233 541 233 541 237 542 c 0,282,283
 244 544 244 544 250 545 c 128,-1,284
 256 546 256 546 262 547 c 0,285,286
 280 550 280 550 300 550 c 0,0,1
272 498 m 1,287,288
 251 495 251 495 232 488 c 0,289,290
 154 460 154 460 119 385 c 128,-1,291
 84 310 84 310 112.5 232 c 128,-1,292
 141 154 141 154 216 119 c 128,-1,293
 291 84 291 84 368 112 c 0,294,295
 413 128 413 128 445 162 c 128,-1,296
 477 196 477 196 491 240 c 1,297,298
 446 241 446 241 404.5 259 c 128,-1,299
 363 277 363 277 331.5 310.5 c 128,-1,300
 300 344 300 344 284 388 c 0,301,302
 264 442 264 442 272 498 c 1,287,288
EndSplineSet
EndChar

StartChar: E
Encoding: 69 69 12
Width: 800
GlyphClass: 2
Flags: W
LayerCount: 2
Fore
SplineSet
500 600 m 0,0,1
 521 600 521 600 540 597 c 1,2,3
 504 528 504 528 531 455 c 0,4,5
 555 388 555 388 619 357.5 c 128,-1,6
 683 327 683 327 750 349 c 1,7,8
 750 322 750 322 744 296 c 0,9,10
 742 286 742 286 740 281 c 0,11,12
 738 272 738 272 735 266 c 2,13,14
 735 266 735 266 735 265 c 128,-1,15
 735 264 735 264 735 264 c 2,16,17
 733 260 733 260 730 252 c 0,18,19
 727 245 727 245 723 238 c 0,20,21
 713 218 713 218 700 201 c 0,22,23
 700 200 700 200 699.5 199.5 c 128,-1,24
 699 199 699 199 699 199 c 2,25,26
 696 195 696 195 693 191 c 0,27,28
 692 191 692 191 691 189 c 128,-1,29
 690 187 690 187 689 186.5 c 128,-1,30
 688 186 688 186 686.5 184.5 c 128,-1,31
 685 183 685 183 685 182 c 0,32,33
 683 180 683 180 678 175 c 0,34,35
 670 167 670 167 668 165 c 0,36,37
 667 164 667 164 667 164 c 2,38,39
 662 160 662 160 655 154 c 0,40,41
 654 153 654 153 648 149 c 1,42,43
 650 137 650 137 650 125 c 0,44,45
 650 73 650 73 613.5 36.5 c 128,-1,46
 577 0 577 0 525 0 c 2,47,-1
 350 0 l 1,48,-1
 200 0 l 2,49,50
 138 0 138 0 94 44 c 128,-1,51
 50 88 50 88 50 150 c 0,52,53
 50 206 50 206 86 247.5 c 128,-1,54
 122 289 122 289 176 298 c 1,55,56
 203 346 203 346 251 374 c 0,57,58
 251 375 251 375 251 375 c 257,59,60
 251 375 251 375 251 376 c 2,61,62
 251 376 251 376 251 377 c 128,-1,63
 251 378 251 378 252 379 c 0,64,65
 252 383 252 383 253 388 c 128,-1,66
 254 393 254 393 255 399 c 2,67,68
 255 399 255 399 255 399.5 c 128,-1,69
 255 400 255 400 255 400.5 c 128,-1,70
 255 401 255 401 255 402 c 256,71,72
 255 403 255 403 256 404 c 0,73,74
 256 406 256 406 258 412 c 0,75,76
 258 415 258 415 261 422 c 2,77,78
 261 422 261 422 261 423 c 128,-1,79
 261 424 261 424 261 424 c 1,80,81
 265 437 265 437 268 443 c 0,82,83
 268 444 268 444 268.5 445 c 128,-1,84
 269 446 269 446 269 447 c 0,85,86
 271 450 271 450 273 456 c 0,87,88
 274 456 274 456 274 457 c 128,-1,89
 274 458 274 458 275 458 c 0,90,91
 277 463 277 463 279 467 c 256,92,93
 281 471 281 471 283 474 c 0,94,95
 283 475 283 475 285 478 c 0,96,97
 286 479 286 479 286 480 c 0,98,99
 289 484 289 484 291 487 c 2,100,101
 291 487 291 487 291.5 487.5 c 128,-1,102
 292 488 292 488 292 488.5 c 128,-1,103
 292 489 292 489 293 490.5 c 128,-1,104
 294 492 294 492 294.5 492.5 c 128,-1,105
 295 493 295 493 296.5 495.5 c 128,-1,106
 298 498 298 498 299 499 c 2,107,108
 299 499 299 499 299.5 500 c 128,-1,109
 300 501 300 501 301 501 c 0,110,111
 302 503 302 503 307 509 c 0,112,113
 311 514 311 514 315 518 c 0,114,115
 316 519 316 519 317 520.5 c 128,-1,116
 318 522 318 522 319 523 c 128,-1,117
 320 524 320 524 321 525 c 2,118,-1
 322 526 l 2,119,120
 325 529 325 529 330 533 c 2,121,122
 330 533 330 533 330.5 534 c 128,-1,123
 331 535 331 535 332 535 c 0,124,125
 333 536 333 536 338 541 c 0,126,127
 339 541 339 541 339.5 542 c 128,-1,128
 340 543 340 543 341 543 c 0,129,130
 344 546 344 546 348 549 c 0,131,132
 349 549 349 549 349.5 549.5 c 128,-1,133
 350 550 350 550 350 551 c 0,134,135
 352 552 352 552 354 553.5 c 128,-1,136
 356 555 356 555 357 555 c 1,137,138
 357 556 357 556 358.5 556.5 c 128,-1,139
 360 557 360 557 360 558 c 0,140,141
 367 562 367 562 369 563 c 0,142,143
 370 564 370 564 370 564 c 257,144,145
 370 564 370 564 371.5 565 c 128,-1,146
 373 566 373 566 374 566 c 0,147,148
 378 568 378 568 381 570 c 0,149,150
 391 576 391 576 402 580 c 1,151,-1
 403 581 l 2,152,153
 412 585 412 585 426 589 c 0,154,155
 433 591 433 591 438 592 c 0,156,157
 444 594 444 594 450 595 c 128,-1,158
 456 596 456 596 462 597 c 0,159,160
 480 600 480 600 500 600 c 0,0,1
472 548 m 1,161,162
 451 545 451 545 432 538 c 0,163,164
 383 520 383 520 350 482 c 128,-1,165
 317 444 317 444 305 395 c 1,166,167
 327 400 327 400 350 400 c 0,168,169
 420 400 420 400 474 357 c 128,-1,170
 528 314 528 314 544 249 c 1,171,172
 597 240 597 240 628 196 c 1,173,174
 673 234 673 234 691 290 c 1,175,176
 646 291 646 291 604.5 309 c 128,-1,177
 563 327 563 327 531.5 360.5 c 128,-1,178
 500 394 500 394 484 438 c 0,179,180
 464 492 464 492 472 548 c 1,161,162
289 390 m 1,181,182
 285 389 285 389 283 389 c 0,183,184
 280 387 280 387 277 386 c 1,185,186
 280 387 280 387 283 389 c 0,187,188
 285 389 285 389 289 390 c 1,181,182
350 350 m 0,189,190
 302 350 302 350 263 322 c 128,-1,191
 224 294 224 294 208 250 c 0,192,193
 204 250 204 250 200 250 c 0,194,195
 159 250 159 250 129.5 220.5 c 128,-1,196
 100 191 100 191 100 150 c 128,-1,197
 100 109 100 109 129.5 79.5 c 128,-1,198
 159 50 159 50 200 50 c 2,199,-1
 525 50 l 2,200,201
 556 50 556 50 578 72 c 128,-1,202
 600 94 600 94 600 125 c 128,-1,203
 600 156 600 156 578 178 c 128,-1,204
 556 200 556 200 525 200 c 0,205,206
 496 200 496 200 475 181 c 1,207,-1
 440 216 l 1,208,209
 463 238 463 238 493 246 c 1,210,211
 478 292 478 292 439 321 c 128,-1,212
 400 350 400 350 350 350 c 0,189,190
EndSplineSet
EndChar

StartChar: F
Encoding: 70 70 13
Width: 799
GlyphClass: 2
Flags: W
LayerCount: 2
Fore
SplineSet
467 467 m 0,0,1
 469 467 469 467 471 467 c 0,2,3
 527 466 527 466 570.5 429 c 128,-1,4
 614 392 614 392 624 335 c 0,5,6
 635 275 635 275 602 223 c 1,7,8
 650 185 650 185 650 125 c 0,9,10
 650 73 650 73 613 36.5 c 128,-1,11
 576 0 576 0 524 0 c 2,12,-1
 350 0 l 1,13,-1
 200 0 l 2,14,15
 137 0 137 0 93.5 44 c 128,-1,16
 50 88 50 88 50 150 c 0,17,18
 50 206 50 206 85.5 247.5 c 128,-1,19
 121 289 121 289 175 298 c 1,20,21
 200 341 200 341 242.5 368.5 c 128,-1,22
 285 396 285 396 336 400 c 1,23,24
 374 453 374 453 439 465 c 0,25,26
 453 467 453 467 467 467 c 0,0,1
467 417 m 0,27,28
 457 417 457 417 447 415 c 0,29,30
 420 411 420 411 399 394 c 1,31,32
 452 380 452 380 491 341 c 128,-1,33
 530 302 530 302 544 249 c 1,34,35
 551 247 551 247 558 246 c 1,36,37
 582 283 582 283 575 326 c 0,38,39
 568 366 568 366 537 391.5 c 128,-1,40
 506 417 506 417 467 417 c 0,27,28
350 350 m 256,41,42
 301 350 301 350 262 322 c 128,-1,43
 223 294 223 294 208 250 c 0,44,45
 204 250 204 250 200 250 c 0,46,47
 158 250 158 250 129 220.5 c 128,-1,48
 100 191 100 191 100 150 c 128,-1,49
 100 109 100 109 129 79.5 c 128,-1,50
 158 50 158 50 200 50 c 2,51,-1
 524 50 l 2,52,53
 556 50 556 50 578 72 c 128,-1,54
 600 94 600 94 600 125 c 0,55,56
 600 145 600 145 589.5 162.5 c 128,-1,57
 579 180 579 180 562 190 c 128,-1,58
 545 200 545 200 524 200 c 0,59,60
 496 200 496 200 475 181 c 1,61,-1
 439 216 l 1,62,63
 462 238 462 238 492 246 c 1,64,65
 478 292 478 292 438.5 321 c 128,-1,66
 399 350 399 350 350 350 c 256,41,42
568 242 m 1,67,68
 570 241 570 241 573 240 c 1,69,70
 571 241 571 241 568 242 c 1,67,68
417 600 m 2,71,72
 417 600 417 600 418 600 c 128,-1,73
 419 600 419 600 419 600 c 257,74,75
 419 600 419 600 420 600 c 2,76,-1
 421 599 l 1,77,-1
 422 599 l 2,78,79
 424 598 424 598 425 597 c 2,80,-1
 426 596 l 2,81,82
 428 594 428 594 428 592 c 2,83,-1
 463 518 l 2,84,85
 464 517 464 517 464 515 c 1,86,-1
 464 515 l 1,87,-1
 464 514 l 1,88,89
 464 514 464 514 464 513 c 0,90,91
 464 511 464 511 464 509 c 1,92,93
 464 509 464 509 464 509 c 1,94,95
 464 508 464 508 463 507 c 2,96,-1
 463 506 l 2,97,98
 462 505 462 505 461.5 504.5 c 128,-1,99
 461 504 461 504 461 503 c 1,100,-1
 460 503 l 2,101,102
 459 502 459 502 457 501 c 2,103,104
 457 501 457 501 456.5 501 c 128,-1,105
 456 501 456 501 455 500.5 c 128,-1,106
 454 500 454 500 454 500 c 1,107,-1
 412 493 l 2,108,109
 411 493 411 493 411 493 c 1,110,-1
 410 493 l 2,111,112
 409 493 409 493 409 493 c 1,113,-1
 408 493 l 1,114,-1
 407 493 l 2,115,116
 405 493 405 493 403 494 c 0,117,118
 403 495 403 495 403 495 c 2,119,120
 400 496 400 496 399 499 c 0,121,122
 398 500 398 500 398 500 c 2,123,124
 398 501 398 501 398 501 c 2,125,126
 398 502 398 502 397 503 c 2,127,128
 397 503 397 503 397 504 c 256,129,130
 397 505 397 505 397 506 c 2,131,-1
 397 507 l 1,132,-1
 404 588 l 2,133,134
 405 589 405 589 405 590 c 0,135,136
 405 592 405 592 406 593 c 2,137,138
 406 593 406 593 406 594 c 1,139,-1
 406 594 l 1,140,141
 407 595 407 595 407 595 c 257,142,143
 407 595 407 595 407 595 c 1,144,-1
 407 596 l 1,145,146
 408 596 408 596 409 597 c 2,147,-1
 410 598 l 1,148,-1
 411 598 l 2,149,150
 412 599 412 599 413 599 c 2,151,152
 413 599 413 599 414 600 c 2,153,154
 414 600 414 600 415 600 c 2,155,-1
 416 600 l 1,156,157
 416 600 416 600 417 600 c 2,71,72
238 498 m 2,158,159
 239 499 239 499 239 499 c 1,160,-1
 240 499 l 1,161,162
 240 500 240 500 240 500 c 1,163,164
 241 500 241 500 241 500 c 1,165,-1
 242 501 l 1,166,-1
 243 501 l 1,167,168
 243 501 243 501 244 501 c 0,169,170
 245 502 245 502 247 502 c 2,171,-1
 248 502 l 2,172,173
 251 501 251 501 252 500 c 2,174,-1
 327 466 l 2,175,176
 328 465 328 465 329 464 c 0,177,178
 330 464 330 464 330 464 c 1,179,-1
 330 463 l 1,180,181
 331 463 331 463 331 463 c 129,-1,182
 331 463 331 463 331 462 c 0,183,184
 332 461 332 461 333 460 c 0,185,186
 333 459 333 459 333 459 c 2,187,188
 334 458 334 458 334 457 c 2,189,-1
 334 456 l 2,190,191
 334 455 334 455 334 454 c 256,192,193
 334 453 334 453 334 453 c 2,194,195
 334 451 334 451 333 449 c 2,196,197
 333 449 333 449 333 448 c 1,198,-1
 332 448 l 1,199,200
 332 447 332 447 331.5 446.5 c 128,-1,201
 331 446 331 446 331 446 c 1,202,-1
 304 413 l 2,203,204
 303 413 303 413 303 412 c 1,205,-1
 303 412 l 1,206,-1
 302 412 l 1,207,208
 302 411 302 411 301 411 c 1,209,-1
 301 411 l 1,210,-1
 300 410 l 2,211,212
 298 409 298 409 296 409 c 0,213,214
 295 409 295 409 295 409 c 2,215,216
 293 409 293 409 290 410 c 2,217,218
 290 410 290 410 289 410 c 2,219,-1
 288 410 l 1,220,221
 288 410 288 410 288 411 c 1,222,-1
 287 411 l 1,223,224
 287 411 287 411 286 412 c 1,225,-1
 286 412 l 1,226,227
 285 413 285 413 284 414 c 2,228,-1
 284 415 l 1,229,-1
 237 481 l 2,230,231
 236 482 236 482 236 483 c 0,232,233
 235 485 235 485 234 487 c 1,234,235
 234 487 234 487 234 487 c 1,236,-1
 234 488 l 1,237,238
 234 488 234 488 234 488.5 c 128,-1,239
 234 489 234 489 234 489 c 1,240,-1
 234 489 l 1,241,242
 234 490 234 490 234 491 c 256,243,244
 234 492 234 492 234 492 c 1,245,-1
 235 492 l 1,246,247
 235 493 235 493 235 493 c 2,248,249
 235 494 235 494 236 496 c 2,250,-1
 237 497 l 1,251,252
 237 497 237 497 237 497 c 1,253,-1
 237 498 l 1,254,-1
 238 498 l 2,158,159
748 200 m 129,-1,256
 748 200 748 200 747.5 199 c 128,-1,257
 747 198 747 198 747 198 c 2,258,259
 746 198 746 198 746 197 c 1,260,-1
 746 197 l 1,261,262
 745 197 745 197 745 197 c 1,263,-1
 745 196 l 1,264,265
 744 196 744 196 744 196 c 2,266,267
 743 195 743 195 741 194 c 2,268,-1
 740 194 l 2,269,270
 738 193 738 193 736 194 c 2,271,-1
 653 201 l 2,272,273
 652 201 652 201 651 201 c 256,274,275
 650 201 650 201 650 202 c 1,276,-1
 650 202 l 1,277,278
 649 202 649 202 649 202 c 257,279,280
 649 202 649 202 648 202 c 0,281,282
 647 203 647 203 646 204 c 0,283,284
 646 205 646 205 645 205 c 1,285,286
 645 206 645 206 644 207 c 1,287,-1
 644 207 l 1,288,289
 643 208 643 208 642.5 209 c 128,-1,290
 642 210 642 210 642 210 c 1,291,-1
 642 211 l 2,292,293
 642 212 642 212 642 214 c 0,294,295
 642 215 642 215 642 215 c 1,296,-1
 642 216 l 1,297,298
 642 216 642 216 642.5 216.5 c 128,-1,299
 643 217 643 217 643 218 c 2,300,-1
 657 258 l 2,301,302
 658 258 658 258 658 259 c 1,303,-1
 658 259 l 1,304,-1
 658 260 l 1,305,306
 659 260 659 260 659 261 c 1,307,-1
 660 261 l 1,308,-1
 660 262 l 2,309,310
 661 263 661 263 663 265 c 0,311,312
 664 265 664 265 664 265 c 2,313,314
 666 266 666 266 669 266 c 2,315,316
 669 266 669 266 670 266 c 2,317,318
 670 266 670 266 671 266 c 2,319,320
 671 266 671 266 672 266 c 256,321,322
 673 266 673 266 673 265 c 1,323,324
 674 265 674 265 674 265 c 2,325,326
 675 264 675 264 676 264 c 2,327,-1
 677 264 l 1,328,-1
 677 263 l 1,329,-1
 744 217 l 2,330,331
 744 216 744 216 745 216 c 1,332,-1
 745 215 l 2,333,334
 747 214 747 214 748 213 c 2,335,336
 748 213 748 213 748 212 c 1,337,-1
 748 212 l 1,338,339
 748 211 748 211 748 211 c 1,340,341
 749 211 749 211 749 211 c 129,-1,342
 749 211 749 211 749 210 c 256,343,344
 749 209 749 209 749 208 c 2,345,-1
 749 207 l 1,346,347
 749 207 749 207 749 206 c 0,348,349
 750 205 750 205 749 204 c 0,350,351
 749 203 749 203 749 203 c 2,352,353
 749 202 749 202 749 202 c 1,354,-1
 749 201 l 1,355,-1
 748 201 l 1,356,255
 748 200 748 200 748 200 c 129,-1,256
749 406 m 1,357,358
 749 405 749 405 749 404 c 1,359,-1
 749 404 l 1,360,-1
 749 403 l 1,361,-1
 749 402 l 1,362,-1
 749 401 l 1,363,-1
 749 400 l 1,364,365
 749 400 749 400 749 399 c 256,366,367
 749 398 749 398 748 396 c 2,368,-1
 747 396 l 1,369,370
 747 395 747 395 747 395 c 2,371,372
 746 393 746 393 744 392 c 2,373,-1
 676 345 l 2,374,375
 675 344 675 344 674 344 c 2,376,377
 674 344 674 344 673 343 c 1,378,-1
 673 343 l 1,379,380
 672 343 672 343 672 343 c 257,381,382
 672 343 672 343 671 343 c 256,383,384
 670 343 670 343 668 343 c 2,385,386
 668 343 668 343 667 343 c 256,387,388
 666 343 666 343 665 343 c 1,389,-1
 665 344 l 1,390,391
 664 344 664 344 663 344 c 1,392,-1
 663 345 l 1,393,394
 662 345 662 345 662 345 c 2,395,396
 660 346 660 346 659 348 c 2,397,398
 659 348 659 348 658.5 349 c 128,-1,399
 658 350 658 350 658 350.5 c 128,-1,400
 658 351 658 351 657 351 c 2,401,-1
 643 391 l 2,402,403
 643 392 643 392 642 392 c 1,404,405
 642 392 642 392 642 393 c 256,406,407
 642 394 642 394 642 394 c 1,408,-1
 642 395 l 1,409,410
 642 395 642 395 642 396 c 0,411,412
 642 398 642 398 643 400 c 0,413,414
 643 401 643 401 643 401 c 2,415,416
 644 403 644 403 646 405 c 0,417,418
 647 405 647 405 647 405 c 2,419,420
 648 406 648 406 648 406 c 257,421,422
 648 406 648 406 649 406 c 1,423,-1
 649 407 l 1,424,425
 650 407 650 407 650 407 c 257,426,427
 650 407 650 407 651 407 c 0,428,429
 652 408 652 408 653 408 c 2,430,-1
 654 408 l 1,431,-1
 735 415 l 2,432,433
 736 415 736 415 737 415 c 0,434,435
 739 415 739 415 741 415 c 1,436,-1
 741 414 l 1,437,-1
 742 414 l 1,438,-1
 743 414 l 1,439,-1
 743 414 l 1,440,-1
 743 413 l 1,441,442
 744 413 744 413 745 412 c 2,443,-1
 746 412 l 1,444,445
 746 411 746 411 746 411 c 1,446,-1
 747 411 l 1,447,448
 747 410 747 410 748 409 c 0,449,450
 748 408 748 408 748 408 c 1,451,452
 749 408 749 408 749 407 c 2,453,-1
 749 406 l 1,454,-1
 749 406 l 1,357,358
618.5 563 m 128,-1,456
 619 563 619 563 619.5 562.5 c 128,-1,457
 620 562 620 562 620 562 c 2,458,459
 620 561 620 561 621 561 c 1,460,-1
 621 560 l 1,461,-1
 622 559 l 2,462,463
 623 557 623 557 623 555 c 1,464,-1
 623 555 l 1,465,466
 623 554 623 554 623 554 c 2,467,468
 623 552 623 552 623 550 c 2,469,-1
 601 470 l 2,470,471
 601 469 601 469 600 468 c 0,472,473
 600 467 600 467 600 467 c 1,474,-1
 600 467 l 1,475,476
 599 466 599 466 599 466 c 129,-1,477
 599 466 599 466 599 465 c 0,478,479
 598 464 598 464 597 463 c 2,480,-1
 596 463 l 2,481,482
 595 462 595 462 594 462 c 2,483,-1
 593 462 l 2,484,485
 592 461 592 461 591 461 c 256,486,487
 590 461 590 461 590 461 c 2,488,489
 588 461 588 461 586 461 c 2,490,-1
 585 462 l 2,491,492
 584 462 584 462 583.5 462 c 128,-1,493
 583 462 583 462 583 463 c 2,494,-1
 546 484 l 2,495,496
 545 484 545 484 545 485 c 1,497,-1
 545 485 l 1,498,-1
 544 485 l 1,499,500
 544 486 544 486 543 486 c 1,501,-1
 543 487 l 1,502,-1
 542 487 l 2,503,504
 541 489 541 489 540 491 c 2,505,506
 540 491 540 491 540 492 c 0,507,508
 539 494 539 494 540 497 c 2,509,510
 540 497 540 497 540 498 c 2,511,-1
 540 499 l 1,512,513
 540 499 540 499 541 499 c 1,514,-1
 541 500 l 1,515,516
 541 500 541 500 541 501 c 2,517,518
 541 501 541 501 542 502 c 0,519,520
 542 503 542 503 543 504 c 2,521,-1
 544 504 l 1,522,-1
 601 562 l 2,523,524
 602 562 602 562 603 563 c 256,525,526
 604 564 604 564 606 565 c 2,527,528
 606 565 606 565 607 565 c 2,529,530
 607 565 607 565 607.5 565 c 128,-1,531
 608 565 608 565 608 565.5 c 128,-1,532
 608 566 608 566 608 566 c 1,533,-1
 609 566 l 2,534,535
 610 566 610 566 611 566 c 1,536,-1
 611 566 l 1,537,538
 612 566 612 566 612 566 c 1,539,-1
 613 566 l 2,540,541
 614 565 614 565 615 565 c 256,542,543
 616 565 616 565 616 565 c 1,544,545
 616 564 616 564 617 564 c 2,546,-1
 618 564 l 1,547,455
 618 563 618 563 618.5 563 c 128,-1,456
EndSplineSet
EndChar

StartChar: G
Encoding: 71 71 14
Width: 700
GlyphClass: 2
Flags: W
LayerCount: 2
Fore
SplineSet
450 152 m 128,-1,1
 460 152 460 152 467.5 145 c 128,-1,2
 475 138 475 138 475 128 c 2,3,-1
 475 65 l 2,4,5
 475 55 475 55 467.5 47.5 c 128,-1,6
 460 40 460 40 450 40 c 128,-1,7
 440 40 440 40 432.5 47.5 c 128,-1,8
 425 55 425 55 425 65 c 2,9,-1
 425 128 l 2,10,11
 425 138 425 138 432.5 145 c 128,-1,0
 440 152 440 152 450 152 c 128,-1,1
350 112 m 128,-1,13
 360 112 360 112 367.5 105 c 128,-1,14
 375 98 375 98 375 88 c 2,15,-1
 375 25 l 2,16,17
 375 15 375 15 367.5 7.5 c 128,-1,18
 360 0 360 0 350 0 c 128,-1,19
 340 0 340 0 332.5 7.5 c 128,-1,20
 325 15 325 15 325 25 c 2,21,-1
 325 88 l 2,22,23
 325 98 325 98 332.5 105 c 128,-1,12
 340 112 340 112 350 112 c 128,-1,13
250 152 m 128,-1,25
 260 152 260 152 267.5 145 c 128,-1,26
 275 138 275 138 275 128 c 2,27,-1
 275 65 l 2,28,29
 275 55 275 55 267.5 47.5 c 128,-1,30
 260 40 260 40 250 40 c 128,-1,31
 240 40 240 40 232.5 47.5 c 128,-1,32
 225 55 225 55 225 65 c 2,33,-1
 225 128 l 2,34,35
 225 138 225 138 232.5 145 c 128,-1,24
 240 152 240 152 250 152 c 128,-1,25
450 315 m 128,-1,37
 460 315 460 315 467.5 307.5 c 128,-1,38
 475 300 475 300 475 290 c 2,39,-1
 475 228 l 2,40,41
 475 217 475 217 467.5 209.5 c 128,-1,42
 460 202 460 202 450 202 c 128,-1,43
 440 202 440 202 432.5 209.5 c 128,-1,44
 425 217 425 217 425 228 c 2,45,-1
 425 290 l 2,46,47
 425 300 425 300 432.5 307.5 c 128,-1,36
 440 315 440 315 450 315 c 128,-1,37
350 275 m 128,-1,49
 360 275 360 275 367.5 267.5 c 128,-1,50
 375 260 375 260 375 250 c 2,51,-1
 375 188 l 2,52,53
 375 177 375 177 367.5 169.5 c 128,-1,54
 360 162 360 162 350 162 c 128,-1,55
 340 162 340 162 332.5 169.5 c 128,-1,56
 325 177 325 177 325 188 c 2,57,-1
 325 250 l 2,58,59
 325 260 325 260 332.5 267.5 c 128,-1,48
 340 275 340 275 350 275 c 128,-1,49
350 600 m 0,60,61
 420 600 420 600 474 557 c 128,-1,62
 528 514 528 514 544 449 c 1,63,64
 589 442 589 442 619.5 407 c 128,-1,65
 650 372 650 372 650 325 c 0,66,67
 650 273 650 273 613.5 236.5 c 128,-1,68
 577 200 577 200 525 200 c 1,69,-1
 525 250 l 1,70,71
 556 250 556 250 578 272 c 128,-1,72
 600 294 600 294 600 325 c 128,-1,73
 600 356 600 356 578 378 c 128,-1,74
 556 400 556 400 525 400 c 0,75,76
 496 400 496 400 475 381 c 1,77,-1
 440 416 l 1,78,79
 463 438 463 438 493 446 c 1,80,81
 487 464 487 464 477 480 c 128,-1,82
 467 496 467 496 453.5 508.5 c 128,-1,83
 440 521 440 521 423.5 530.5 c 128,-1,84
 407 540 407 540 388.5 545 c 128,-1,85
 370 550 370 550 350 550 c 0,86,87
 302 550 302 550 263 522 c 128,-1,88
 224 494 224 494 208 450 c 0,89,90
 204 450 204 450 200 450 c 0,91,92
 159 450 159 450 129.5 420.5 c 128,-1,93
 100 391 100 391 100 350 c 0,94,95
 100 315 100 315 121 288.5 c 128,-1,96
 142 262 142 262 175 253 c 1,97,-1
 175 202 l 1,98,99
 140 208 140 208 111.5 229 c 128,-1,100
 83 250 83 250 66.5 281.5 c 128,-1,101
 50 313 50 313 50 350 c 0,102,103
 50 406 50 406 86 447.5 c 128,-1,104
 122 489 122 489 176 498 c 1,105,106
 202 544 202 544 248.5 572 c 128,-1,107
 295 600 295 600 350 600 c 0,60,61
250 315 m 128,-1,109
 260 315 260 315 267.5 307.5 c 128,-1,110
 275 300 275 300 275 290 c 2,111,-1
 275 228 l 2,112,113
 275 217 275 217 267.5 209.5 c 128,-1,114
 260 202 260 202 250 202 c 128,-1,115
 240 202 240 202 232.5 209.5 c 128,-1,116
 225 217 225 217 225 228 c 2,117,-1
 225 290 l 2,118,119
 225 300 225 300 232.5 307.5 c 128,-1,108
 240 315 240 315 250 315 c 128,-1,109
EndSplineSet
EndChar

StartChar: H
Encoding: 72 72 15
Width: 700
GlyphClass: 2
Flags: W
LayerCount: 2
Fore
SplineSet
180 88 m 2,0,-1
 294 68 l 2,1,2
 306 66 306 66 304 53.5 c 128,-1,3
 302 41 302 41 289 43 c 2,4,-1
 176 63 l 2,5,6
 164 65 164 65 166 77.5 c 128,-1,7
 168 90 168 90 180 88 c 2,0,-1
188 30 m 2,8,-1
 262 118 l 2,9,10
 270 127 270 127 279.5 119 c 128,-1,11
 289 111 289 111 281 102 c 2,12,-1
 207 14 l 2,13,14
 199 4 199 4 189.5 12 c 128,-1,15
 180 20 180 20 188 30 c 2,8,-1
243 7 m 2,16,-1
 203 115 l 2,17,18
 199 127 199 127 211 131.5 c 128,-1,19
 223 136 223 136 227 124 c 2,20,-1
 266 16 l 2,21,22
 270 4 270 4 258.5 0 c 128,-1,23
 247 -4 247 -4 243 7 c 2,16,-1
350 600 m 0,24,25
 420 600 420 600 474 557 c 128,-1,26
 528 514 528 514 544 449 c 1,27,28
 589 442 589 442 619.5 407 c 128,-1,29
 650 372 650 372 650 325 c 0,30,31
 650 273 650 273 613.5 236.5 c 128,-1,32
 577 200 577 200 525 200 c 2,33,-1
 505 200 l 1,34,-1
 505 250 l 1,35,-1
 525 250 l 2,36,37
 556 250 556 250 578 272 c 128,-1,38
 600 294 600 294 600 325 c 128,-1,39
 600 356 600 356 578 378 c 128,-1,40
 556 400 556 400 525 400 c 0,41,42
 496 400 496 400 475 381 c 1,43,-1
 440 416 l 1,44,45
 463 438 463 438 493 446 c 1,46,47
 487 464 487 464 477 480 c 128,-1,48
 467 496 467 496 453.5 508.5 c 128,-1,49
 440 521 440 521 423.5 530.5 c 128,-1,50
 407 540 407 540 388.5 545 c 128,-1,51
 370 550 370 550 350 550 c 0,52,53
 302 550 302 550 263 522 c 128,-1,54
 224 494 224 494 208 450 c 0,55,56
 204 450 204 450 200 450 c 0,57,58
 159 450 159 450 129.5 420.5 c 128,-1,59
 100 391 100 391 100 350 c 0,60,61
 100 310 100 310 127.5 281 c 128,-1,62
 155 252 155 252 195 250 c 1,63,-1
 195 200 l 1,64,65
 155 201 155 201 122 221.5 c 128,-1,66
 89 242 89 242 69.5 276 c 128,-1,67
 50 310 50 310 50 350 c 0,68,69
 50 406 50 406 86 447.5 c 128,-1,70
 122 489 122 489 176 498 c 1,71,72
 202 544 202 544 248.5 572 c 128,-1,73
 295 600 295 600 350 600 c 0,24,25
417 116 m 2,74,-1
 532 116 l 2,75,76
 535 116 535 116 538 114 c 128,-1,77
 541 112 541 112 542.5 109 c 128,-1,78
 544 106 544 106 544 103 c 0,79,80
 544 101 544 101 543 98.5 c 128,-1,81
 542 96 542 96 540.5 94.5 c 128,-1,82
 539 93 539 93 536.5 92 c 128,-1,83
 534 91 534 91 532 91 c 2,84,-1
 417 91 l 2,85,86
 412 91 412 91 408 94.5 c 128,-1,87
 404 98 404 98 404 103 c 0,88,89
 404 106 404 106 406 109 c 128,-1,90
 408 112 408 112 410.5 114 c 128,-1,91
 413 116 413 116 417 116 c 2,74,-1
435 60 m 2,92,-1
 492 159 l 2,93,94
 498 170 498 170 509 163.5 c 128,-1,95
 520 157 520 157 514 147 c 2,96,-1
 456 47 l 2,97,98
 450 36 450 36 439 42.5 c 128,-1,99
 428 49 428 49 435 60 c 2,92,-1
492 47 m 2,100,-1
 435 147 l 2,101,102
 428 157 428 157 439 163.5 c 128,-1,103
 450 170 450 170 456 159 c 2,104,-1
 514 60 l 2,105,106
 520 49 520 49 509 42.5 c 128,-1,107
 498 36 498 36 492 47 c 2,100,-1
294 249 m 2,108,-1
 407 268 l 2,109,110
 419 271 419 271 421.5 258.5 c 128,-1,111
 424 246 424 246 411 244 c 2,112,-1
 298 224 l 2,113,114
 286 222 286 222 283.5 234 c 128,-1,115
 281 246 281 246 294 249 c 2,108,-1
321 196 m 2,116,-1
 360 304 l 2,117,118
 365 316 365 316 376.5 312 c 128,-1,119
 388 308 388 308 384 296 c 2,120,-1
 345 188 l 2,121,122
 340 176 340 176 328.5 180.5 c 128,-1,123
 317 185 317 185 321 196 c 2,116,-1
380 194 m 2,124,-1
 306 282 l 2,125,126
 298 292 298 292 307.5 300 c 128,-1,127
 317 308 317 308 325 298 c 2,128,-1
 399 210 l 2,129,130
 407 201 407 201 397.5 193 c 128,-1,131
 388 185 388 185 380 194 c 2,124,-1
EndSplineSet
EndChar

StartChar: I
Encoding: 73 73 16
Width: 700
GlyphClass: 2
Flags: W
LayerCount: 2
Fore
SplineSet
288 280 m 1,0,-1
 313 280 l 1,1,-1
 323 280 l 1,2,-1
 291 158 l 1,3,-1
 292 158 l 1,4,-1
 302 158 l 1,5,-1
 318 158 l 1,6,-1
 328 158 l 1,7,-1
 321 133 l 1,8,-1
 321 132 l 1,9,-1
 315 111 l 1,10,-1
 345 140 l 1,11,-1
 376 171 l 1,12,-1
 370 171 l 1,13,-1
 342 171 l 1,14,-1
 356 196 l 1,15,-1
 404 280 l 1,16,-1
 433 280 l 1,17,-1
 443 280 l 1,18,-1
 395 196 l 1,19,-1
 413 196 l 1,20,-1
 447 196 l 1,21,-1
 422 171 l 1,22,-1
 382 131 l 1,23,-1
 285 35 l 1,24,-1
 250 0 l 1,25,-1
 263 48 l 1,26,-1
 276 97 l 1,27,-1
 285 133 l 1,28,-1
 284 133 l 1,29,-1
 274 133 l 1,30,-1
 258 133 l 1,31,-1
 248 133 l 1,32,-1
 255 158 l 1,33,-1
 288 280 l 1,0,-1
350 600 m 0,34,35
 420 600 420 600 474 557 c 128,-1,36
 528 514 528 514 544 449 c 1,37,38
 589 442 589 442 619.5 407 c 128,-1,39
 650 372 650 372 650 325 c 0,40,41
 650 273 650 273 613.5 236.5 c 128,-1,42
 577 200 577 200 525 200 c 2,43,-1
 505 200 l 1,44,-1
 505 250 l 1,45,-1
 525 250 l 2,46,47
 556 250 556 250 578 272 c 128,-1,48
 600 294 600 294 600 325 c 128,-1,49
 600 356 600 356 578 378 c 128,-1,50
 556 400 556 400 525 400 c 0,51,52
 496 400 496 400 475 381 c 1,53,-1
 440 416 l 1,54,55
 463 438 463 438 493 446 c 1,56,57
 487 464 487 464 477 480 c 128,-1,58
 467 496 467 496 453.5 508.5 c 128,-1,59
 440 521 440 521 423.5 530.5 c 128,-1,60
 407 540 407 540 388.5 545 c 128,-1,61
 370 550 370 550 350 550 c 0,62,63
 302 550 302 550 263 522 c 128,-1,64
 224 494 224 494 208 450 c 0,65,66
 204 450 204 450 200 450 c 0,67,68
 159 450 159 450 129.5 420.5 c 128,-1,69
 100 391 100 391 100 350 c 0,70,71
 100 310 100 310 127.5 281 c 128,-1,72
 155 252 155 252 195 250 c 1,73,-1
 195 200 l 1,74,75
 155 201 155 201 122 221.5 c 128,-1,76
 89 242 89 242 69.5 276 c 128,-1,77
 50 310 50 310 50 350 c 0,78,79
 50 406 50 406 86 447.5 c 128,-1,80
 122 489 122 489 176 498 c 1,81,82
 202 544 202 544 248.5 572 c 128,-1,83
 295 600 295 600 350 600 c 0,34,35
EndSplineSet
EndChar

StartChar: J
Encoding: 74 74 17
Width: 682
GlyphClass: 2
Flags: W
LayerCount: 2
Fore
SplineSet
121 491.5 m 128,-1,1
 121 492 121 492 122 492.5 c 128,-1,2
 123 493 123 493 123 493 c 2,3,4
 124 493 124 493 124 493 c 1,5,-1
 125 494 l 1,6,-1
 126 494 l 2,7,8
 128 495 128 495 130 495 c 1,9,-1
 130 495 l 1,10,11
 131 494 131 494 131 494 c 2,12,13
 133 494 133 494 135 493 c 2,14,-1
 210 458 l 2,15,16
 211 458 211 458 212 457 c 2,17,18
 212 457 212 457 213 457 c 1,19,-1
 213 456 l 1,20,21
 213 456 213 456 213.5 455.5 c 128,-1,22
 214 455 214 455 214 455 c 2,23,24
 215 454 215 454 216 453 c 2,25,-1
 216 452 l 2,26,27
 216 451 216 451 217 450 c 2,28,-1
 217 449 l 2,29,30
 217 448 217 448 217 447 c 256,31,32
 217 446 217 446 217 446 c 1,33,-1
 217 445 l 2,34,35
 217 444 217 444 216 442 c 0,36,37
 216 441 216 441 215.5 440.5 c 128,-1,38
 215 440 215 440 215 440 c 1,39,-1
 214 440 l 1,40,41
 214 439 214 439 214 439 c 1,42,-1
 187 406 l 2,43,44
 186 406 186 406 186 405 c 1,45,-1
 186 405 l 1,46,-1
 185 405 l 1,47,48
 185 404 185 404 184 404 c 2,49,-1
 183 404 l 1,50,-1
 183 403 l 2,51,52
 181 402 181 402 179 402 c 0,53,54
 178 402 178 402 178 402 c 2,55,56
 175 402 175 402 173 403 c 2,57,-1
 172 403 l 2,58,59
 171 403 171 403 171 403 c 257,60,61
 171 403 171 403 170 404 c 0,62,63
 169 404 169 404 169 405 c 1,64,65
 169 405 169 405 168 405 c 0,66,67
 167 406 167 406 167 407 c 1,68,-1
 166 407 l 1,69,-1
 166 408 l 1,70,-1
 120 474 l 2,71,72
 119 475 119 475 119 476 c 0,73,74
 118 478 118 478 117 479 c 0,75,76
 117 480 117 480 117 480 c 1,77,-1
 117 481 l 1,78,79
 117 481 117 481 117 481 c 1,80,-1
 117 482 l 1,81,82
 117 482 117 482 117 482 c 1,83,84
 117 483 117 483 117 484 c 2,85,86
 117 484 117 484 117 485 c 2,87,88
 117 485 117 485 118 486 c 0,89,90
 118 487 118 487 119 488 c 2,91,-1
 119 489 l 1,92,-1
 119 490 l 1,93,94
 119 490 119 490 120 490 c 1,95,-1
 120 491 l 1,96,0
 121 491 121 491 121 491.5 c 128,-1,1
50 299 m 129,-1,98
 50 299 50 299 50 300 c 2,99,-1
 50 301 l 2,100,101
 51 302 51 302 51 302 c 1,102,-1
 51 303 l 1,103,104
 51 303 51 303 51 304 c 1,105,-1
 52 304 l 1,106,107
 52 304 52 304 52 305 c 0,108,109
 53 306 53 306 54 307 c 2,110,-1
 55 307 l 1,111,112
 55 308 55 308 56 308 c 0,113,114
 57 309 57 309 59 309 c 2,115,-1
 139 331 l 2,116,117
 140 331 140 331 141 331 c 256,118,119
 142 331 142 331 142 331 c 1,120,-1
 143 331 l 1,121,122
 143 331 143 331 143 331 c 1,123,124
 144 331 144 331 144 331 c 2,125,126
 146 331 146 331 147 330 c 0,127,128
 148 330 148 330 148 330 c 2,129,130
 149 329 149 329 150 329 c 1,131,-1
 150 328 l 2,132,133
 151 327 151 327 152 327 c 1,134,-1
 152 326 l 1,135,136
 152 326 152 326 153 326 c 1,137,-1
 153 325 l 2,138,139
 154 324 154 324 154 322 c 2,140,141
 154 322 154 322 154.5 321 c 128,-1,142
 155 320 155 320 155 320 c 1,143,-1
 155 319 l 1,144,-1
 155 318 l 1,145,-1
 155 276 l 2,146,147
 155 275 155 275 155 275 c 257,148,149
 155 275 155 275 155 274 c 1,150,-1
 154 274 l 1,151,152
 154 273 154 273 154 273 c 1,153,-1
 154 272 l 1,154,-1
 154 271 l 2,155,156
 153 269 153 269 151 268 c 0,157,158
 151 267 151 267 151 267 c 2,159,160
 149 265 149 265 146 264 c 0,161,162
 145 264 145 264 145 264 c 1,163,-1
 144 264 l 1,164,-1
 144 263 l 1,165,166
 143 263 143 263 142 263 c 2,167,168
 142 263 142 263 141 263 c 256,169,170
 140 263 140 263 139 264 c 2,171,-1
 138 264 l 1,172,-1
 60 285 l 2,173,174
 59 285 59 285 58 286 c 0,175,176
 56 286 56 286 55 287 c 2,177,-1
 54 288 l 1,178,-1
 54 288 l 1,179,180
 53 288 53 288 53 288 c 1,181,-1
 53 289 l 1,182,183
 53 289 53 289 53 289 c 1,184,185
 52 290 52 290 51 291 c 2,186,187
 51 291 51 291 51 292 c 2,188,189
 51 292 51 292 51 293 c 1,190,-1
 50 293 l 1,191,192
 50 294 50 294 50 295 c 256,193,194
 50 296 50 296 50 296 c 1,195,-1
 50 297 l 1,196,197
 50 297 50 297 50 298 c 1,198,-1
 50 298 l 1,199,97
 50 299 50 299 50 299 c 129,-1,98
119 106 m 129,-1,201
 119 106 119 106 118.5 107 c 128,-1,202
 118 108 118 108 118 108 c 2,203,204
 118 109 118 109 117 109 c 1,205,-1
 117 110 l 1,206,-1
 117 111 l 1,207,208
 117 111 117 111 117 112 c 256,209,210
 117 113 117 113 117 115 c 2,211,-1
 117 116 l 1,212,213
 117 116 117 116 118 116 c 1,214,215
 118 118 118 118 119 120 c 2,216,-1
 167 187 l 2,217,218
 167 188 167 188 168 189 c 256,219,220
 169 190 169 190 169 190 c 1,221,-1
 169 190 l 1,222,223
 170 191 170 191 170 191 c 129,-1,224
 170 191 170 191 171 191 c 0,225,226
 172 192 172 192 174 192 c 1,227,-1
 174 193 l 1,228,229
 175 193 175 193 176 193 c 2,230,-1
 177 193 l 2,231,232
 178 193 178 193 179 193 c 2,233,-1
 180 193 l 1,234,235
 180 192 180 192 180 192 c 1,236,-1
 181 192 l 2,237,238
 182 192 182 192 184 191 c 0,239,240
 184 190 184 190 184.5 190 c 128,-1,241
 185 190 185 190 185.5 189.5 c 128,-1,242
 186 189 186 189 186 188 c 1,243,-1
 187 188 l 1,244,-1
 214 156 l 2,245,246
 214 155 214 155 215 155 c 1,247,-1
 215 154 l 2,248,249
 216 153 216 153 216 153 c 1,250,-1
 216 152 l 1,251,-1
 216 151 l 2,252,253
 217 149 217 149 217 147 c 2,254,255
 217 147 217 147 217 146 c 0,256,257
 217 144 217 144 215 141 c 0,258,259
 215 140 215 140 215 140 c 1,260,-1
 214 140 l 1,261,262
 214 140 214 140 214 139 c 0,263,264
 213 138 213 138 212 138 c 1,265,266
 212 138 212 138 212 137 c 1,267,268
 211 137 211 137 210 136 c 2,269,-1
 209 136 l 1,270,-1
 135 102 l 2,271,272
 135 101 135 101 134 101 c 2,273,-1
 133 101 l 2,274,275
 132 100 132 100 130 100 c 0,276,277
 129 100 129 100 129 100 c 2,278,279
 128 100 128 100 128 100 c 1,280,-1
 128 100 l 1,281,282
 128 100 128 100 127 100 c 256,283,284
 126 100 126 100 125 101 c 2,285,-1
 124 101 l 1,286,287
 124 101 124 101 124 102 c 1,288,-1
 123 102 l 2,289,290
 122 102 122 102 121 103 c 2,291,292
 121 103 121 103 120 104 c 2,293,294
 120 104 120 104 120 105 c 1,295,-1
 119 105 l 1,296,200
 119 106 119 106 119 106 c 129,-1,201
295.5 2 m 128,-1,298
 295 2 295 2 295 3 c 1,299,-1
 294 3 l 2,300,301
 293 4 293 4 293 4 c 1,302,-1
 292 4 l 1,303,304
 292 4 292 4 292 5 c 1,305,-1
 291 5 l 2,306,307
 290 7 290 7 289 8 c 2,308,-1
 288 9 l 2,309,310
 287 11 287 11 287 13 c 2,311,-1
 280 96 l 2,312,313
 280 97 280 97 280 98 c 256,314,315
 280 99 280 99 280 99 c 1,316,-1
 280 99 l 1,317,318
 280 100 280 100 280 100 c 1,319,320
 281 100 281 100 281 101 c 256,321,322
 281 102 281 102 282 104 c 2,323,324
 282 104 282 104 283 104 c 1,325,326
 283 105 283 105 284 106 c 2,327,-1
 285 106 l 1,328,329
 285 107 285 107 286 108 c 2,330,-1
 287 108 l 1,331,-1
 288 108 l 2,332,333
 289 109 289 109 291 109 c 0,334,335
 292 109 292 109 292.5 109 c 128,-1,336
 293 109 293 109 293.5 109 c 128,-1,337
 294 109 294 109 295 109 c 2,338,-1
 337 102 l 2,339,340
 338 101 338 101 338 101 c 1,341,-1
 338 101 l 1,342,-1
 339 101 l 2,343,344
 340 101 340 101 340 101 c 1,345,-1
 340 100 l 1,346,-1
 341 100 l 2,347,348
 343 99 343 99 344 97 c 0,349,350
 345 96 345 96 345 96 c 2,351,352
 347 94 347 94 347 91 c 0,353,354
 347 90 347 90 347 90 c 2,355,356
 347 89 347 89 347 89 c 2,357,358
 347 88 347 88 347 87 c 2,359,360
 347 87 347 87 347 86 c 256,361,362
 347 85 347 85 346 84 c 2,363,-1
 346 83 l 1,364,-1
 311 10 l 2,365,366
 311 9 311 9 311 8 c 1,367,-1
 310 8 l 2,368,369
 309 6 309 6 308 5 c 2,370,371
 308 5 308 5 308 4 c 1,372,-1
 307 4 l 1,373,-1
 307 4 l 1,374,-1
 306 4 l 1,375,-1
 306 3 l 1,376,377
 305 3 305 3 304 2 c 2,378,379
 304 2 304 2 303 2 c 2,380,381
 303 2 303 2 302 2 c 256,382,383
 301 2 301 2 300 2 c 256,384,385
 299 2 299 2 298 2 c 2,386,387
 298 2 298 2 297 2 c 1,388,-1
 297 2 l 1,389,297
 296 2 296 2 295.5 2 c 128,-1,298
498 37 m 129,-1,391
 498 37 498 37 497 36.5 c 128,-1,392
 496 36 496 36 496 36 c 2,393,394
 495 36 495 36 495 36 c 1,395,-1
 494 36 l 1,396,397
 494 36 494 36 493 36 c 2,398,399
 493 36 493 36 492 36 c 256,400,401
 491 36 491 36 489 37 c 2,402,-1
 488 37 l 2,403,404
 486 38 486 38 484 40 c 2,405,-1
 426 98 l 2,406,407
 425 99 425 99 424 100 c 2,408,409
 424 100 424 100 424 101 c 1,410,-1
 424 101 l 1,411,412
 424 102 424 102 423.5 102 c 128,-1,413
 423 102 423 102 423 103 c 256,414,415
 423 104 423 104 422 106 c 2,416,417
 422 106 422 106 422 107 c 2,418,419
 422 107 422 107 422 109 c 1,420,-1
 423 109 l 1,421,422
 423 110 423 110 423 111 c 2,423,-1
 423 112 l 1,424,425
 423 112 423 112 424 112 c 1,426,-1
 424 113 l 2,427,428
 425 114 425 114 426 116 c 2,429,430
 426 116 426 116 427 116 c 1,431,-1
 427 117 l 1,432,433
 427 117 427 117 427.5 117.5 c 128,-1,434
 428 118 428 118 429 118 c 2,435,-1
 466 139 l 1,436,437
 466 139 466 139 467 140 c 1,438,-1
 467 140 l 1,439,440
 468 140 468 140 469 140 c 2,441,-1
 470 141 l 2,442,443
 472 141 472 141 474 140 c 0,444,445
 475 140 475 140 475 140 c 2,446,447
 478 140 478 140 480 138 c 2,448,449
 480 138 480 138 480 137 c 1,450,451
 481 137 481 137 481 137 c 1,452,453
 481 136 481 136 482 136 c 1,454,455
 482 135 482 135 483 135 c 1,456,457
 483 134 483 134 483 134 c 2,458,459
 484 133 484 133 484 131 c 1,460,-1
 484 131 l 1,461,-1
 505 52 l 2,462,463
 506 51 506 51 506 50 c 0,464,465
 506 48 506 48 506 47 c 2,466,467
 506 47 506 47 506 46 c 1,468,-1
 506 46 l 1,469,470
 505 45 505 45 505 45 c 1,471,-1
 505 45 l 1,472,-1
 505 44 l 2,473,474
 505 43 505 43 504 42 c 2,475,-1
 504 41 l 1,476,477
 504 41 504 41 503 41 c 1,478,-1
 503 40 l 2,479,480
 502 39 502 39 501 39 c 1,481,482
 501 38 501 38 500 38 c 2,483,484
 500 38 500 38 499 37 c 1,485,-1
 499 37 l 1,486,390
 498 37 498 37 498 37 c 129,-1,391
631 193 m 129,-1,488
 631 193 631 193 630.5 192 c 128,-1,489
 630 191 630 191 629 191 c 1,490,491
 629 191 629 191 629 190 c 1,492,-1
 628 190 l 1,493,494
 628 190 628 190 628 189 c 1,495,-1
 627 189 l 2,496,497
 626 188 626 188 624 187 c 2,498,-1
 623 187 l 1,499,500
 623 187 623 187 622 187 c 0,501,502
 620 186 620 186 618 187 c 2,503,-1
 536 194 l 2,504,505
 535 194 535 194 534 194 c 256,506,507
 533 194 533 194 533 194 c 1,508,-1
 533 195 l 1,509,510
 532 195 532 195 531.5 195 c 128,-1,511
 531 195 531 195 531 195 c 2,512,513
 530 196 530 196 529 197 c 0,514,515
 528 197 528 197 528 198 c 0,516,517
 527 199 527 199 527 200 c 1,518,-1
 526 200 l 1,519,520
 526 201 526 201 526 202 c 1,521,-1
 525 202 l 1,522,523
 525 203 525 203 525 203 c 1,524,-1
 525 204 l 2,525,526
 525 205 525 205 525 207 c 0,527,528
 525 208 525 208 525 208 c 1,529,-1
 525 209 l 1,530,531
 525 209 525 209 525.5 209.5 c 128,-1,532
 526 210 526 210 526 210 c 1,533,-1
 526 211 l 1,534,-1
 540 251 l 1,535,536
 540 251 540 251 541 252 c 1,537,-1
 541 252 l 1,538,-1
 541 253 l 1,539,540
 541 253 541 253 542 254 c 1,541,-1
 542 254 l 1,542,-1
 543 255 l 2,543,544
 544 256 544 256 546 257 c 0,545,546
 547 258 547 258 547 258 c 2,547,548
 549 259 549 259 552 259 c 2,549,550
 552 259 552 259 553 259 c 2,551,-1
 554 259 l 1,552,-1
 555 259 l 2,553,554
 556 258 556 258 556 258 c 257,555,556
 556 258 556 258 557 258 c 0,557,558
 558 257 558 257 559 257 c 2,559,-1
 560 256 l 1,560,-1
 626 210 l 2,561,562
 627 209 627 209 628 208 c 256,563,564
 629 207 629 207 630 206 c 256,565,566
 631 205 631 205 631 205 c 2,567,568
 631 204 631 204 631 204 c 257,569,570
 631 204 631 204 631 204 c 129,-1,571
 631 204 631 204 631.5 203.5 c 128,-1,572
 632 203 632 203 632 203 c 2,573,574
 632 202 632 202 632 201 c 2,575,-1
 632 200 l 1,576,577
 632 200 632 200 632 199 c 256,578,579
 632 198 632 198 632 197 c 256,580,581
 632 196 632 196 632 196 c 1,582,-1
 632 195 l 1,583,584
 632 195 632 195 631 194 c 1,585,-1
 631 194 l 1,586,487
 631 193 631 193 631 193 c 129,-1,488
632 398 m 257,587,588
 632 398 632 398 632 397 c 128,-1,589
 632 396 632 396 632 396 c 2,590,591
 632 395 632 395 632 395 c 1,592,-1
 632 394 l 1,593,594
 632 394 632 394 632 393 c 2,595,596
 632 393 632 393 632 392 c 0,597,598
 631 391 631 391 630 389 c 2,599,-1
 630 388 l 2,600,601
 628 386 628 386 627 385 c 2,602,-1
 559 338 l 2,603,604
 558 337 558 337 557 337 c 1,605,-1
 557 337 l 1,606,-1
 556 336 l 1,607,-1
 556 336 l 1,608,609
 555 336 555 336 555 336 c 129,-1,610
 555 336 555 336 554 336 c 256,611,612
 553 336 553 336 551 336 c 2,613,614
 551 336 551 336 550 336 c 256,615,616
 549 336 549 336 548 336 c 1,617,-1
 548 336 l 1,618,619
 547 337 547 337 546 337 c 2,620,-1
 545 338 l 1,621,-1
 544 338 l 2,622,623
 543 339 543 339 542 341 c 2,624,625
 542 341 542 341 541.5 341.5 c 128,-1,626
 541 342 541 342 540.5 343 c 128,-1,627
 540 344 540 344 540 344 c 1,628,-1
 526 384 l 2,629,630
 525 385 525 385 525 385 c 257,631,632
 525 385 525 385 525 385 c 1,633,-1
 525 386 l 2,634,635
 525 387 525 387 525 387 c 1,636,-1
 525 388 l 1,637,-1
 525 389 l 2,638,639
 525 391 525 391 526 393 c 0,640,641
 526 394 526 394 526 394 c 2,642,643
 527 396 527 396 529 398 c 0,644,645
 530 398 530 398 530 398 c 1,646,647
 530 399 530 399 530 399 c 1,648,-1
 531 399 l 1,649,-1
 532 399 l 1,650,651
 532 400 532 400 533 400 c 2,652,653
 533 400 533 400 534 400 c 0,654,655
 535 401 535 401 536 401 c 2,656,-1
 537 401 l 1,657,-1
 618 408 l 2,658,659
 619 408 619 408 620 408 c 0,660,661
 622 408 622 408 624 407 c 1,662,-1
 624 407 l 1,663,664
 625 407 625 407 625 407 c 2,665,666
 626 407 626 407 626 407 c 129,-1,667
 626 407 626 407 626 406 c 1,668,669
 627 406 627 406 628 405 c 1,670,-1
 628 405 l 1,671,672
 629 404 629 404 629 404 c 2,673,674
 630 403 630 403 631 402 c 0,675,676
 631 401 631 401 631 401 c 2,677,678
 631 400 631 400 632 400 c 1,679,-1
 632 399 l 2,680,681
 632 398 632 398 632 398 c 257,587,588
501 556 m 129,-1,683
 501 556 501 556 502 555.5 c 128,-1,684
 503 555 503 555 503 554 c 1,685,686
 503 554 503 554 504 554 c 1,687,-1
 504 553 l 1,688,689
 504 553 504 553 504 552 c 1,690,691
 505 552 505 552 505 551 c 256,692,693
 505 550 505 550 506 548 c 2,694,-1
 506 547 l 2,695,696
 506 545 506 545 505 543 c 2,697,-1
 484 463 l 2,698,699
 484 462 484 462 483 461 c 0,700,701
 483 460 483 460 483 460 c 1,702,-1
 483 460 l 1,703,704
 482 459 482 459 482 459 c 129,-1,705
 482 459 482 459 482 458 c 0,706,707
 481 457 481 457 479 456 c 1,708,709
 479 456 479 456 479 456 c 1,710,711
 478 455 478 455 477 455 c 2,712,-1
 476 455 l 1,713,-1
 476 454 l 1,714,715
 475 454 475 454 474 454 c 128,-1,716
 473 454 473 454 473 454 c 1,717,-1
 472 454 l 2,718,719
 471 454 471 454 469 454 c 0,720,721
 468 454 468 454 467.5 454.5 c 128,-1,722
 467 455 467 455 466.5 455 c 128,-1,723
 466 455 466 455 466 455 c 1,724,-1
 465 456 l 1,725,-1
 429 477 l 2,726,727
 428 477 428 477 428 478 c 1,728,-1
 427 478 l 2,729,730
 426 479 426 479 426 479 c 129,-1,731
 426 479 426 479 425 480 c 0,732,733
 424 482 424 482 423 484 c 0,734,735
 422 487 422 487 423 490 c 0,736,737
 423 491 423 491 423 491 c 2,738,739
 423 492 423 492 423 492 c 2,740,741
 424 493 424 493 424 494 c 2,742,743
 424 494 424 494 424 495 c 0,744,745
 425 496 425 496 426 497 c 1,746,-1
 426 497 l 1,747,-1
 484 555 l 2,748,749
 485 555 485 555 485 556 c 1,750,-1
 486 556 l 2,751,752
 487 557 487 557 489 558 c 1,753,754
 489 558 489 558 489 558 c 1,755,-1
 490 558 l 1,756,757
 490 558 490 558 490.5 558 c 128,-1,758
 491 558 491 558 491 558.5 c 128,-1,759
 491 559 491 559 491 559 c 1,760,761
 492 559 492 559 493 559 c 256,762,763
 494 559 494 559 494 559 c 2,764,765
 495 559 495 559 495 559 c 2,766,767
 497 558 497 558 498 558 c 2,768,769
 498 558 498 558 499 557 c 2,770,771
 499 557 499 557 500 557 c 1,772,-1
 500 557 l 1,773,682
 501 556 501 556 501 556 c 129,-1,683
299 593 m 2,774,775
 300 593 300 593 300.5 593 c 128,-1,776
 301 593 301 593 302 593 c 2,777,778
 302 593 302 593 303 592 c 1,779,-1
 303 592 l 1,780,781
 304 592 304 592 304 592 c 1,782,-1
 305 592 l 2,783,784
 307 591 307 591 308 590 c 2,785,-1
 309 589 l 2,786,787
 310 587 310 587 311 585 c 2,788,-1
 346 511 l 2,789,790
 347 510 347 510 347 508 c 1,791,792
 347 508 347 508 347 508 c 257,793,794
 347 508 347 508 347 507 c 128,-1,795
 347 506 347 506 347 506 c 129,-1,796
 347 506 347 506 347 505 c 256,797,798
 347 504 347 504 347 502 c 2,799,800
 347 502 347 502 347 501 c 0,801,802
 346 500 346 500 346 500 c 1,803,-1
 346 499 l 1,804,-1
 345 499 l 1,805,806
 345 498 345 498 344.5 497.5 c 128,-1,807
 344 497 344 497 343 496 c 256,808,809
 342 495 342 495 340 494 c 2,810,811
 340 494 340 494 339 493.5 c 128,-1,812
 338 493 338 493 337.5 493 c 128,-1,813
 337 493 337 493 337 493 c 1,814,-1
 336 493 l 1,815,-1
 295 486 l 2,816,817
 294 485 294 485 294 485 c 1,818,-1
 293 485 l 1,819,-1
 293 485 l 1,820,821
 292 485 292 485 291 485 c 1,822,-1
 291 486 l 1,823,-1
 290 486 l 2,824,825
 288 486 288 486 286 487 c 0,826,827
 285 488 285 488 285 488 c 2,828,829
 283 489 283 489 282 492 c 2,830,831
 282 492 282 492 281 492 c 1,832,833
 281 493 281 493 281 493 c 257,834,835
 281 493 281 493 281 494 c 0,836,837
 280 495 280 495 280 496 c 2,838,-1
 280 497 l 2,839,840
 280 498 280 498 280 499 c 2,841,-1
 280 500 l 1,842,-1
 287 581 l 2,843,844
 287 582 287 582 287 583 c 1,845,-1
 288 583 l 1,846,847
 288 585 288 585 289 586 c 0,848,849
 289 587 289 587 289 587 c 2,850,851
 290 588 290 588 290 588 c 257,852,853
 290 588 290 588 290 588 c 257,854,855
 290 588 290 588 290 588 c 1,856,857
 291 589 291 589 292 590 c 1,858,-1
 292 590 l 1,859,860
 293 591 293 591 293 591 c 2,861,862
 294 592 294 592 296 592 c 2,863,864
 296 592 296 592 297 592 c 1,865,-1
 297 593 l 1,866,867
 297 593 297 593 298 593 c 1,868,-1
 298 593 l 1,869,870
 299 593 299 593 299 593 c 2,774,775
321.5 457.5 m 128,-1,872
 387 469 387 469 441 431 c 128,-1,873
 495 393 495 393 506.5 328 c 128,-1,874
 518 263 518 263 480 208.5 c 128,-1,875
 442 154 442 154 377 142.5 c 128,-1,876
 312 131 312 131 257.5 169 c 128,-1,877
 203 207 203 207 191.5 272 c 128,-1,878
 180 337 180 337 218 391.5 c 128,-1,871
 256 446 256 446 321.5 457.5 c 128,-1,872
330 408 m 0,879,880
 308 404 308 404 289.5 392 c 128,-1,881
 271 380 271 380 259 363 c 128,-1,882
 247 346 247 346 242 324.5 c 128,-1,883
 237 303 237 303 241 281 c 0,884,885
 249 236 249 236 286 210 c 128,-1,886
 323 184 323 184 368 192 c 128,-1,887
 413 200 413 200 439 237 c 128,-1,888
 465 274 465 274 457.5 319 c 128,-1,889
 450 364 450 364 412.5 390 c 128,-1,890
 375 416 375 416 330 408 c 0,879,880
EndSplineSet
EndChar

StartChar: K
Encoding: 75 75 18
Width: 691
GlyphClass: 2
Flags: W
LayerCount: 2
Fore
SplineSet
154 474.5 m 128,-1,1
 154 475 154 475 155 475 c 128,-1,2
 156 475 156 475 156 475 c 2,3,4
 157 476 157 476 157 476 c 1,5,-1
 158 476 l 1,6,7
 158 476 158 476 159 476 c 2,8,9
 159 476 159 476 160 476 c 256,10,11
 161 476 161 476 163 476 c 2,12,-1
 164 476 l 1,13,14
 164 476 164 476 165 476 c 0,15,16
 167 475 167 475 168 474 c 2,17,-1
 236 427 l 2,18,19
 237 426 237 426 238 425 c 2,20,21
 238 425 238 425 238 424 c 1,22,-1
 238 424 l 1,23,24
 239 423 239 423 239 423 c 2,25,26
 240 421 240 421 241 420 c 0,27,28
 241 419 241 419 241 419 c 2,29,30
 241 418 241 418 241 417 c 2,31,-1
 241 416 l 2,32,33
 241 415 241 415 241 414 c 256,34,35
 241 413 241 413 241 413 c 1,36,-1
 240 413 l 1,37,38
 240 411 240 411 239 409 c 2,39,40
 239 409 239 409 238.5 408.5 c 128,-1,41
 238 408 238 408 237.5 407.5 c 128,-1,42
 237 407 237 407 237 407 c 1,43,-1
 236 406 l 1,44,-1
 204 379 l 2,45,46
 203 379 203 379 203 378 c 1,47,-1
 203 378 l 1,48,-1
 202 378 l 2,49,50
 201 378 201 378 201 377 c 1,51,-1
 200 377 l 2,52,53
 198 376 198 376 195 376 c 0,54,55
 192 377 192 377 190 378 c 0,56,57
 189 378 189 378 189 378 c 2,58,59
 188 379 188 379 188 379 c 257,60,61
 188 379 188 379 187 379 c 1,62,-1
 187 380 l 1,63,64
 187 380 187 380 186 381 c 1,65,-1
 186 381 l 1,66,67
 185 382 185 382 184 384 c 1,68,-1
 184 384 l 1,69,-1
 150 458 l 2,70,71
 149 459 149 459 149 460 c 0,72,73
 148 461 148 461 148 463 c 2,74,75
 148 463 148 463 148 464 c 1,76,-1
 148 464 l 1,77,78
 148 465 148 465 148 465 c 257,79,80
 148 465 148 465 148 466 c 1,81,-1
 148 466 l 1,82,83
 149 467 149 467 149 468 c 2,84,85
 149 468 149 468 149 469 c 2,86,87
 149 469 149 469 150 470 c 0,88,89
 150 471 150 471 151 472 c 0,90,91
 152 472 152 472 152 473 c 1,92,93
 152 473 152 473 153 473 c 1,94,-1
 153 474 l 1,95,0
 154 474 154 474 154 474.5 c 128,-1,1
51 297 m 1,96,97
 51 298 51 298 51 298.5 c 128,-1,98
 51 299 51 299 51 300 c 1,99,100
 52 300 52 300 52 301 c 1,101,-1
 52 301 l 1,102,103
 53 301 53 301 53 302 c 1,104,105
 53 302 53 302 54 302 c 0,106,107
 55 304 55 304 56 304 c 2,108,-1
 57 305 l 1,109,110
 57 305 57 305 58 305 c 0,111,112
 60 306 60 306 62 306 c 2,113,-1
 144 313 l 2,114,115
 145 313 145 313 146 313 c 256,116,117
 147 313 147 313 147 313 c 1,118,-1
 148 313 l 1,119,120
 148 313 148 313 148.5 313 c 128,-1,121
 149 313 149 313 149 312 c 1,122,123
 151 312 151 312 152 311 c 2,124,125
 152 311 152 311 153 311 c 1,126,127
 153 310 153 310 154 309 c 2,128,-1
 155 309 l 1,129,130
 155 308 155 308 155.5 307 c 128,-1,131
 156 306 156 306 156 306 c 1,132,-1
 156 305 l 2,133,134
 157 304 157 304 157 302 c 0,135,136
 157 301 157 301 157 300.5 c 128,-1,137
 157 300 157 300 157 299.5 c 128,-1,138
 157 299 157 299 157 299 c 1,139,-1
 157 298 l 1,140,-1
 150 256 l 1,141,142
 150 256 150 256 149 255 c 1,143,-1
 149 255 l 1,144,-1
 149 254 l 1,145,146
 149 254 149 254 149 253 c 2,147,-1
 148 252 l 2,148,149
 147 250 147 250 145 249 c 0,150,151
 145 248 145 248 145 248 c 2,152,153
 142 247 142 247 140 246 c 2,154,-1
 139 246 l 2,155,156
 138 246 138 246 138 246 c 257,157,158
 138 246 138 246 137 246 c 256,159,160
 136 246 136 246 135 246 c 2,161,-1
 134 246 l 2,162,163
 133 247 133 247 132 247 c 1,164,-1
 132 247 l 1,165,-1
 58 282 l 2,166,167
 57 282 57 282 56 283 c 0,168,169
 54 284 54 284 53 285 c 0,170,171
 53 286 53 286 53 286 c 1,172,173
 52 286 52 286 52 286 c 129,-1,174
 52 286 52 286 52 286.5 c 128,-1,175
 52 287 52 287 52 287 c 2,176,177
 51 288 51 288 51 289 c 2,178,179
 51 289 51 289 51 290 c 1,180,-1
 50 290 l 1,181,182
 50 290 50 290 50 291 c 256,183,184
 50 292 50 292 50 294 c 2,185,186
 50 294 50 294 50 295 c 2,187,188
 50 295 50 295 50 296 c 1,189,-1
 50 296 l 1,190,191
 50 297 50 297 51 297 c 1,96,97
641 294 m 257,192,193
 641 294 641 294 641 293 c 2,194,-1
 641 292 l 2,195,196
 641 291 641 291 641 290 c 1,197,-1
 641 290 l 1,198,199
 640 290 640 290 640 289 c 256,200,201
 640 288 640 288 640 288 c 2,202,203
 639 287 639 287 638 285 c 2,204,-1
 637 285 l 1,205,206
 637 285 637 285 637 284 c 0,207,208
 635 283 635 283 634 282 c 2,209,-1
 559 247 l 2,210,211
 558 247 558 247 557 246 c 2,212,-1
 556 246 l 1,213,-1
 555 246 l 1,214,215
 555 246 555 246 554 246 c 0,216,217
 552 246 552 246 551 246 c 2,218,-1
 550 246 l 1,219,220
 550 246 550 246 550 247 c 1,221,222
 549 247 549 247 548 247 c 2,223,-1
 547 248 l 2,224,225
 546 248 546 248 545.5 249 c 128,-1,226
 545 250 545 250 545 250 c 1,227,-1
 544 250 l 2,228,229
 543 251 543 251 542 253 c 0,230,231
 542 254 542 254 542 254.5 c 128,-1,232
 542 255 542 255 541.5 255.5 c 128,-1,233
 541 256 541 256 541 256 c 257,234,235
 541 256 541 256 541 257 c 2,236,-1
 534 299 l 1,237,238
 534 299 534 299 534 300 c 1,239,-1
 534 300 l 1,240,-1
 534 301 l 1,241,242
 534 301 534 301 534 302 c 2,243,-1
 534 303 l 2,244,245
 534 305 534 305 536 307 c 0,246,247
 536 308 536 308 536 308 c 2,248,249
 537 310 537 310 540 311 c 0,250,251
 540 312 540 312 540 312 c 1,252,253
 541 312 541 312 541 312 c 2,254,255
 542 312 542 312 542 313 c 1,256,257
 543 313 543 313 544 313 c 2,258,259
 544 313 544 313 545 313 c 256,260,261
 546 313 546 313 547 313 c 2,262,-1
 548 313 l 1,263,-1
 629 306 l 2,264,265
 630 306 630 306 631 306 c 0,266,267
 633 305 633 305 634 305 c 2,268,269
 634 305 634 305 635 304 c 1,270,-1
 635 304 l 1,271,272
 636 304 636 304 636 304 c 1,273,274
 636 303 636 303 636 303 c 1,275,276
 637 303 637 303 637 303 c 2,277,278
 638 302 638 302 638 302 c 2,279,280
 638 301 638 301 638 301 c 1,281,-1
 639 301 l 1,282,283
 639 301 639 301 639 300 c 0,284,285
 640 299 640 299 640 298 c 0,286,287
 641 297 641 297 641 297 c 1,288,-1
 641 296 l 1,289,290
 641 296 641 296 641 295 c 1,291,-1
 641 295 l 1,292,293
 641 294 641 294 641 294 c 257,192,193
539.5 472 m 128,-1,295
 540 472 540 472 540 471 c 1,296,-1
 541 471 l 1,297,298
 541 470 541 470 541 470 c 257,299,300
 541 470 541 470 542 469 c 1,301,-1
 542 469 l 1,302,303
 542 468 542 468 542 468 c 2,304,305
 542 467 542 467 542 467 c 2,306,307
 543 465 543 465 543 464 c 2,308,-1
 543 463 l 1,309,310
 543 463 543 463 543 462 c 0,311,312
 542 460 542 460 541 458 c 2,313,-1
 507 384 l 2,314,315
 506 382 506 382 505 381 c 1,316,317
 505 381 505 381 505 381 c 1,318,-1
 505 380 l 1,319,320
 504 380 504 380 504 379.5 c 128,-1,321
 504 379 504 379 503 379 c 0,322,323
 502 378 502 378 501 378 c 1,324,-1
 501 377 l 1,325,326
 500 377 500 377 500 377 c 2,327,328
 499 377 499 377 498 377 c 1,329,-1
 498 376 l 1,330,-1
 497 376 l 2,331,332
 496 376 496 376 495 376 c 256,333,334
 494 376 494 376 494 376 c 2,335,336
 492 377 492 377 490 377 c 1,337,338
 490 378 490 378 489.5 378 c 128,-1,339
 489 378 489 378 488 378.5 c 128,-1,340
 487 379 487 379 487 379 c 1,341,-1
 487 380 l 1,342,-1
 454 407 l 1,343,344
 454 407 454 407 454 408 c 1,345,-1
 453 408 l 1,346,347
 453 409 453 409 452 409 c 1,348,-1
 452 410 l 1,349,-1
 452 410 l 1,350,351
 450 412 450 412 450 415 c 256,352,353
 450 418 450 418 451 421 c 0,354,355
 451 422 451 422 451 422 c 1,356,357
 452 422 452 422 452 423 c 256,358,359
 452 424 452 424 453 424 c 1,360,361
 453 424 453 424 453 425 c 0,362,363
 454 426 454 426 455 427 c 2,364,-1
 456 427 l 1,365,-1
 523 474 l 1,366,367
 523 474 523 474 524 475 c 0,368,369
 526 476 526 476 528 476 c 1,370,371
 528 476 528 476 528 476 c 1,372,-1
 529 476 l 1,373,374
 529 476 529 476 529.5 476 c 128,-1,375
 530 476 530 476 530 476 c 2,376,377
 532 476 532 476 532 476 c 2,378,379
 533 476 533 476 533 476 c 2,380,381
 534 476 534 476 534 476 c 2,382,383
 536 475 536 475 537 475 c 1,384,385
 537 474 537 474 538 474 c 1,386,387
 538 474 538 474 538 473 c 1,388,-1
 539 473 l 1,389,294
 539 472 539 472 539.5 472 c 128,-1,295
347 543 m 2,390,391
 348 543 348 543 348 543 c 1,392,-1
 349 543 l 1,393,394
 349 543 349 543 350 543 c 2,395,396
 350 543 350 543 351 542 c 1,397,-1
 351 542 l 1,398,399
 351 542 351 542 352 542 c 1,400,401
 352 541 352 541 353 541 c 0,402,403
 354 540 354 540 355 539 c 2,404,-1
 356 538 l 2,405,406
 357 536 357 536 358 534 c 2,407,-1
 379 454 l 2,408,409
 379 453 379 453 379 452 c 256,410,411
 379 451 379 451 379 451 c 257,412,413
 379 451 379 451 379 451 c 1,414,415
 379 450 379 450 379 450 c 2,416,417
 379 449 379 449 379 449 c 2,418,419
 379 447 379 447 378 446 c 2,420,421
 378 446 378 446 378 445 c 0,422,423
 377 444 377 444 377 443 c 1,424,-1
 376 443 l 1,425,426
 376 442 376 442 375 441.5 c 128,-1,427
 374 441 374 441 374 441 c 2,428,429
 372 440 372 440 370 439 c 2,430,431
 370 439 370 439 369.5 439 c 128,-1,432
 369 439 369 439 368 439 c 128,-1,433
 367 439 367 439 367 439 c 1,434,-1
 366 439 l 1,435,-1
 324 439 l 2,436,437
 323 439 323 439 323 439 c 1,438,-1
 323 439 l 1,439,-1
 322 439 l 2,440,441
 321 439 321 439 321 439 c 1,442,-1
 320 439 l 1,443,-1
 320 439 l 1,444,445
 317 440 317 440 316 442 c 2,446,-1
 315 442 l 2,447,448
 313 444 313 444 312 447 c 0,449,450
 312 448 312 448 312 448 c 2,451,452
 312 449 312 449 312 449 c 2,453,454
 312 450 312 450 312 451 c 2,455,456
 312 451 312 451 312 452 c 1,457,458
 312 452 312 452 312 452 c 1,459,460
 312 453 312 453 312 454 c 2,461,-1
 312 455 l 1,462,-1
 333 534 l 2,463,464
 333 535 333 535 334 535 c 1,465,-1
 334 536 l 2,466,467
 335 537 335 537 336 539 c 1,468,-1
 336 539 l 1,469,470
 337 540 337 540 337 540 c 257,471,472
 337 540 337 540 337 540 c 1,473,-1
 337 541 l 1,474,-1
 338 541 l 1,475,476
 338 541 338 541 339 542 c 2,477,478
 339 542 339 542 340 542 c 2,479,480
 340 542 340 542 341 543 c 0,481,482
 342 543 342 543 343 543 c 2,483,-1
 344 543 l 1,484,485
 344 543 344 543 345 544 c 2,486,487
 345 544 345 544 346 544 c 1,488,-1
 346 544 l 1,489,490
 347 543 347 543 347 543 c 2,390,391
108 181 m 2,491,-1
 583 181 l 2,492,493
 588 181 588 181 591.5 177.5 c 128,-1,494
 595 174 595 174 595 169 c 128,-1,495
 595 164 595 164 591.5 160.5 c 128,-1,496
 588 157 588 157 583 156 c 2,497,-1
 108 156 l 2,498,499
 103 157 103 157 99.5 160.5 c 128,-1,500
 96 164 96 164 96 169 c 128,-1,501
 96 174 96 174 99.5 177.5 c 128,-1,502
 103 181 103 181 108 181 c 2,491,-1
133 131 m 2,503,-1
 558 131 l 2,504,505
 561 131 561 131 564 129.5 c 128,-1,506
 567 128 567 128 568.5 125 c 128,-1,507
 570 122 570 122 570 119 c 0,508,509
 570 114 570 114 566.5 110.5 c 128,-1,510
 563 107 563 107 558 106 c 2,511,-1
 133 106 l 2,512,513
 128 107 128 107 124.5 110.5 c 128,-1,514
 121 114 121 114 121 119 c 128,-1,515
 121 124 121 124 124.5 127.5 c 128,-1,516
 128 131 128 131 133 131 c 2,503,-1
208 81 m 2,517,-1
 483 81 l 2,518,519
 488 81 488 81 491.5 77.5 c 128,-1,520
 495 74 495 74 495 69 c 0,521,522
 495 66 495 66 493.5 63 c 128,-1,523
 492 60 492 60 489 58.5 c 128,-1,524
 486 57 486 57 483 56 c 2,525,-1
 208 56 l 2,526,527
 203 57 203 57 199.5 60.5 c 128,-1,528
 196 64 196 64 196 69 c 0,529,530
 196 71 196 71 197 73.5 c 128,-1,531
 198 76 198 76 199.5 77.5 c 128,-1,532
 201 79 201 79 203 80 c 128,-1,533
 205 81 205 81 208 81 c 2,517,-1
345.5 406 m 128,-1,535
 412 406 412 406 459 359.5 c 128,-1,536
 506 313 506 313 506 246 c 0,537,538
 506 227 506 227 500 206 c 1,539,-1
 448 206 l 1,540,541
 456 226 456 226 456 246 c 0,542,543
 456 292 456 292 423.5 324 c 128,-1,544
 391 356 391 356 345.5 356 c 128,-1,545
 300 356 300 356 268 324 c 128,-1,546
 236 292 236 292 236 246 c 0,547,548
 236 226 236 226 243 206 c 1,549,-1
 191 206 l 1,550,551
 186 227 186 227 186 246 c 0,552,553
 186 313 186 313 232.5 359.5 c 128,-1,534
 279 406 279 406 345.5 406 c 128,-1,535
EndSplineSet
EndChar

StartChar: L
Encoding: 76 76 19
Width: 697
GlyphClass: 2
Flags: W
LayerCount: 2
Fore
SplineSet
127 600 m 1,0,-1
 238 600 l 1,1,-1
 59 526 l 1,2,3
 53 545 53 545 50 568 c 1,4,-1
 127 600 l 1,0,-1
368 600 m 1,5,-1
 499 600 l 1,6,-1
 110 439 l 1,7,8
 92 460 92 460 80 480 c 1,9,-1
 368 600 l 1,5,-1
630 600 m 1,10,-1
 647 600 l 1,11,12
 647 592 647 592 645.5 584.5 c 128,-1,13
 644 577 644 577 642 571.5 c 128,-1,14
 640 566 640 566 635 560.5 c 128,-1,15
 630 555 630 555 627.5 552 c 128,-1,16
 625 549 625 549 617.5 544.5 c 128,-1,17
 610 540 610 540 607.5 538.5 c 128,-1,18
 605 537 605 537 595.5 532.5 c 128,-1,19
 586 528 586 528 584 527 c 2,20,-1
 187 363 l 1,21,22
 174 375 174 375 147 400 c 1,23,-1
 630 600 l 1,10,-1
536 453 m 1,24,25
 537 432 537 432 546 403 c 1,26,-1
 254 282 l 1,27,28
 241 302 241 302 223 323 c 1,29,-1
 536 453 l 1,24,25
560 355 m 1,30,31
 567 326 567 326 568 304 c 1,32,-1
 286 187 l 1,33,34
 284 211 284 211 275 237 c 1,35,-1
 560 355 l 1,30,31
563 247 m 1,36,37
 553 213 553 213 521 176 c 1,38,-1
 261 68 l 1,39,40
 276 103 276 103 281 131 c 1,41,-1
 563 247 l 1,36,37
434 86 m 1,42,43
 384 35 384 35 371 14 c 1,44,-1
 337 0 l 1,45,-1
 226 0 l 1,46,-1
 434 86 l 1,42,43
EndSplineSet
EndChar

StartChar: P
Encoding: 80 80 23
Width: 700
GlyphClass: 2
Flags: W
LayerCount: 2
Fore
SplineSet
399 597 m 0,0,1
 410 600 410 600 420 596 c 0,2,3
 433 589 433 589 435 574 c 0,4,5
 436 570 436 570 436 536 c 128,-1,6
 436 502 436 502 435 497 c 0,7,8
 435 493 435 493 433 489 c 0,9,10
 430 481 430 481 420 476 c 0,11,12
 416 474 416 474 407.5 474 c 128,-1,13
 399 474 399 474 395 476 c 0,14,15
 383 481 383 481 380 494 c 0,16,17
 379 498 379 498 379 536 c 128,-1,18
 379 574 379 574 380 578 c 0,19,20
 382 585 382 585 387 590 c 128,-1,21
 392 595 392 595 399 597 c 0,0,1
167 501 m 0,22,23
 170 502 170 502 176 502 c 0,24,25
 185 502 185 502 190 498 c 128,-1,26
 195 494 195 494 218 471 c 0,27,28
 245 444 245 444 247 440 c 0,29,30
 252 432 252 432 251 422.5 c 128,-1,31
 250 413 250 413 244 406 c 0,32,33
 230 391 230 391 211 401 c 0,34,35
 206 403 206 403 174 434 c 0,36,37
 153 454 153 454 151 458 c 0,38,39
 141 478 141 478 154 492 c 0,40,41
 159 498 159 498 167 501 c 0,22,23
632 501 m 0,42,43
 650 505 650 505 661 492 c 0,44,45
 668 483 668 483 667 471 c 0,46,47
 667 463 667 463 664.5 459 c 128,-1,48
 662 455 662 455 652 445 c 0,49,50
 641 434 641 434 624 418 c 0,51,52
 610 404 610 404 604.5 401 c 128,-1,53
 599 398 599 398 592 397 c 0,54,55
 585 397 585 397 581 399 c 0,56,57
 570 403 570 403 565.5 414.5 c 128,-1,58
 561 426 561 426 567 437 c 0,59,60
 570 444 570 444 600 474 c 0,61,62
 617 492 617 492 622 496 c 128,-1,63
 627 500 627 500 632 501 c 0,42,43
387 415 m 0,64,65
 394 415 394 415 411 415 c 128,-1,66
 428 415 428 415 434 414 c 0,67,68
 459 410 459 410 484 398 c 0,69,70
 530 375 530 375 557 331 c 0,71,72
 584 285 584 285 581 231 c 0,73,74
 579 197 579 197 565 168 c 0,75,76
 562 161 562 161 559 160.5 c 128,-1,77
 556 160 556 160 529 160 c 0,78,79
 499 160 499 160 498 160 c 0,80,81
 495 163 495 163 501 171 c 0,82,83
 529 209 529 209 524 254 c 0,84,85
 520 295 520 295 491 325 c 0,86,87
 456 359 456 359 407 359 c 256,88,89
 358 359 358 359 323 324 c 0,90,91
 288 290 288 290 288 242 c 0,92,93
 288 204 288 204 313 171 c 0,94,95
 319 163 319 163 316 160 c 0,96,97
 315 160 315 160 284 160 c 2,98,-1
 254 160 l 1,99,-1
 252 161 l 1,100,101
 244 170 244 170 237 200 c 0,102,103
 230 227 230 227 233 257 c 0,104,105
 236 294 236 294 254 326.5 c 128,-1,106
 272 359 272 359 302 380 c 0,107,108
 340 409 340 409 387 415 c 0,64,65
70 268 m 2,109,-1
 74 270 l 1,110,-1
 114 269 l 1,111,-1
 155 269 l 1,112,-1
 159 267 l 2,113,114
 174 259 174 259 174 240.5 c 128,-1,115
 174 222 174 222 158 214 c 2,116,-1
 154 212 l 1,117,-1
 113 212 l 1,118,-1
 72 212 l 1,119,-1
 67 215 l 2,120,121
 58 219 58 219 53.5 228 c 128,-1,122
 49 237 49 237 51 246 c 0,123,124
 54 261 54 261 70 268 c 2,109,-1
657 268 m 0,125,126
 661 270 661 270 702 269 c 2,127,-1
 743 269 l 1,128,-1
 748 267 l 2,129,130
 757 262 757 262 761 253 c 0,131,132
 763 249 763 249 763 241 c 128,-1,133
 763 233 763 233 761 229 c 0,134,135
 757 221 757 221 750 216 c 0,136,137
 745 213 745 213 738.5 212.5 c 128,-1,138
 732 212 732 212 701 212 c 256,139,140
 670 212 670 212 664 212.5 c 128,-1,141
 658 213 658 213 653 216 c 0,142,143
 644 222 644 222 641 233.5 c 128,-1,144
 638 245 638 245 643 255 c 0,145,146
 648 264 648 264 657 268 c 0,125,126
399 191 m 0,147,148
 403 195 403 195 405.5 195 c 128,-1,149
 408 195 408 195 410 193 c 128,-1,150
 412 191 412 191 458 150 c 2,151,-1
 503 108 l 1,152,-1
 545 108 l 2,153,154
 587 108 587 108 592 107 c 0,155,156
 604 103 604 103 610 90 c 0,157,158
 612 87 612 87 612 80 c 128,-1,159
 612 73 612 73 609 68 c 0,160,161
 604 58 604 58 594 54 c 2,162,-1
 590 52 l 1,163,-1
 537 52 l 2,164,165
 485 52 485 52 481 52.5 c 128,-1,166
 477 53 477 53 442 86 c 128,-1,167
 407 119 407 119 406.5 119 c 128,-1,168
 406 119 406 119 371 86 c 128,-1,169
 336 53 336 53 333 52 c 256,170,171
 330 51 330 51 280.5 51.5 c 128,-1,172
 231 52 231 52 227 53 c 0,173,174
 219 55 219 55 213 61 c 0,175,176
 200 76 200 76 208 93 c 0,177,178
 212 101 212 101 222 105 c 2,179,-1
 226 107 l 1,180,-1
 268 108 l 1,181,-1
 311 108 l 1,182,-1
 352 147 l 2,183,184
 382 175 382 175 399 191 c 0,147,148
EndSplineSet
EndChar

StartChar: Q
Encoding: 81 81 24
Width: 700
GlyphClass: 2
Flags: W
LayerCount: 2
Fore
SplineSet
403 586 m 0,0,1
 412 588 412 588 421.5 583.5 c 128,-1,2
 431 579 431 579 435 570 c 2,3,-1
 437 566 l 1,4,-1
 437 524 l 1,5,-1
 437 482 l 1,6,-1
 435 477 l 2,7,8
 431 467 431 467 421 463 c 0,9,10
 416 461 416 461 409 461 c 128,-1,11
 402 461 402 461 397 463 c 0,12,13
 387 467 387 467 382 477 c 2,14,-1
 380 481 l 1,15,-1
 380 523 l 1,16,-1
 380 566 l 1,17,-1
 383 570 l 2,18,19
 389 583 389 583 403 586 c 0,0,1
166 488 m 0,20,21
 169 489 169 489 176 489 c 0,22,23
 185 489 185 489 190 485 c 128,-1,24
 195 481 195 481 220 456 c 0,25,26
 244 432 244 432 248.5 426 c 128,-1,27
 253 420 253 420 253 413 c 0,28,29
 253 408 253 408 251 403 c 0,30,31
 245 392 245 392 235 387 c 0,32,33
 231 385 231 385 224 385 c 128,-1,34
 217 385 217 385 212 387 c 0,35,36
 206 390 206 390 172 424 c 0,37,38
 156 440 156 440 152.5 444.5 c 128,-1,39
 149 449 149 449 147 456 c 0,40,41
 146 466 146 466 150 474 c 0,42,43
 155 484 155 484 166 488 c 0,20,21
634 489 m 0,44,45
 645 491 645 491 654 486 c 0,46,47
 665 481 665 481 668 469 c 0,48,49
 671 460 671 460 668 451 c 0,50,51
 667 447 667 447 665 444 c 128,-1,52
 663 441 663 441 637 415.5 c 128,-1,53
 611 390 611 390 605 387 c 0,54,55
 594 382 594 382 584 385 c 128,-1,56
 574 388 574 388 569 399 c 0,57,58
 562 412 562 412 568 425 c 0,59,60
 570 428 570 428 598 456.5 c 128,-1,61
 626 485 626 485 629 486.5 c 128,-1,62
 632 488 632 488 634 489 c 0,44,45
402 404 m 0,63,64
 416 404 416 404 433 402 c 0,65,66
 470 397 470 397 502.5 376.5 c 128,-1,67
 535 356 535 356 556 324 c 0,68,69
 568 306 568 306 574 287 c 0,70,71
 584 258 584 258 584 228 c 0,72,73
 584 201 584 201 578 178 c 0,74,75
 570 151 570 151 564 147 c 0,76,77
 563 146 563 146 532 146 c 128,-1,78
 501 146 501 146 500 147 c 0,79,80
 498 149 498 149 503 156 c 0,81,82
 526 187 526 187 527 224 c 0,83,84
 528 243 528 243 523 259 c 0,85,86
 515 288 515 288 492 311 c 128,-1,87
 469 334 469 334 439 342 c 0,88,89
 409 349 409 349 378 341 c 0,90,91
 334 330 334 330 307 290 c 0,92,93
 291 265 291 265 289.5 233.5 c 128,-1,94
 288 202 288 202 302 176 c 0,95,96
 307 166 307 166 314 156 c 0,97,98
 320 148 320 148 317 146 c 0,99,100
 315 145 315 145 286 145 c 0,101,102
 259 145 259 145 255.5 146 c 128,-1,103
 252 147 252 147 249 153 c 0,104,105
 234 185 234 185 233 227 c 0,106,107
 233 268 233 268 253 307 c 0,108,109
 266 333 266 333 287 354 c 0,110,111
 307 373 307 373 333 386 c 0,112,113
 366 402 366 402 402 404 c 0,63,64
69 254 m 0,114,115
 72 255 72 255 114 255 c 2,116,-1
 155 255 l 1,117,-1
 159 253 l 2,118,119
 168 249 168 249 171 241 c 0,120,121
 177 229 177 229 172 216 c 0,122,123
 171 211 171 211 166 206.5 c 128,-1,124
 161 202 161 202 157 200 c 256,125,126
 153 198 153 198 112 199 c 2,127,-1
 71 199 l 1,128,-1
 67 201 l 2,129,130
 57 205 57 205 52 216 c 0,131,132
 50 220 50 220 50 226 c 0,133,134
 50 238 50 238 57 246 c 0,135,136
 63 252 63 252 69 254 c 0,114,115
659 254 m 2,137,-1
 663 255 l 1,138,-1
 705 255 l 1,139,-1
 746 255 l 1,140,-1
 751 253 l 2,141,142
 767 245 767 245 767 227 c 128,-1,143
 767 209 767 209 750 201 c 2,144,-1
 746 199 l 1,145,-1
 704 199 l 1,146,-1
 662 199 l 1,147,-1
 658 201 l 2,148,149
 649 205 649 205 645 214 c 0,150,151
 639 227 639 227 645 240 c 0,152,153
 649 249 649 249 659 254 c 2,137,-1
228 95 m 0,154,155
 232 96 232 96 283 95.5 c 128,-1,156
 334 95 334 95 336 95 c 0,157,158
 337 94 337 94 372 61 c 128,-1,159
 407 28 407 28 407.5 28 c 128,-1,160
 408 28 408 28 443 60.5 c 128,-1,161
 478 93 478 93 480.5 94.5 c 128,-1,162
 483 96 483 96 537 96 c 2,163,-1
 592 95 l 1,164,-1
 596 93 l 2,165,166
 606 89 606 89 610 80 c 0,167,168
 615 70 615 70 612 59.5 c 128,-1,169
 609 49 609 49 599 43 c 0,170,171
 594 40 594 40 588 39.5 c 128,-1,172
 582 39 582 39 548 39 c 0,173,174
 507 39 507 39 505.5 38.5 c 128,-1,175
 504 38 504 38 458 -4 c 0,176,177
 412 -45 412 -45 409.5 -46.5 c 128,-1,178
 407 -48 407 -48 405 -47 c 0,179,180
 401 -45 401 -45 320 30 c 2,181,-1
 311 38 l 1,182,-1
 269 39 l 1,183,-1
 227 39 l 1,184,-1
 222 41 l 2,185,186
 213 46 213 46 208 55 c 0,187,188
 200 72 200 72 214 87 c 0,189,190
 220 93 220 93 228 95 c 0,154,155
EndSplineSet
EndChar

StartChar: a
Encoding: 97 97 40
Width: 700
GlyphClass: 2
Flags: W
LayerCount: 2
Fore
SplineSet
350 500 m 0,0,1
 420 500 420 500 474 457 c 128,-1,2
 528 414 528 414 544 349 c 1,3,4
 589 342 589 342 619.5 307 c 128,-1,5
 650 272 650 272 650 225 c 0,6,7
 650 173 650 173 613.5 136.5 c 128,-1,8
 577 100 577 100 525 100 c 2,9,-1
 350 100 l 1,10,-1
 200 100 l 2,11,12
 138 100 138 100 94 144 c 128,-1,13
 50 188 50 188 50 250 c 0,14,15
 50 306 50 306 86 347.5 c 128,-1,16
 122 389 122 389 176 398 c 1,17,18
 202 444 202 444 248.5 472 c 128,-1,19
 295 500 295 500 350 500 c 0,0,1
350 465 m 0,20,21
 300 465 300 465 259 437.5 c 128,-1,22
 218 410 218 410 198 365 c 1,23,24
 151 364 151 364 118 330.5 c 128,-1,25
 85 297 85 297 85 250 c 0,26,27
 85 202 85 202 118.5 168.5 c 128,-1,28
 152 135 152 135 200 135 c 2,29,-1
 525 135 l 2,30,31
 562 135 562 135 588.5 161.5 c 128,-1,32
 615 188 615 188 615 225 c 128,-1,33
 615 262 615 262 588.5 288.5 c 128,-1,34
 562 315 562 315 525 315 c 0,35,36
 490 315 490 315 464 292 c 1,37,-1
 440 316 l 1,38,39
 469 343 469 343 508 349 c 1,40,41
 492 400 492 400 448.5 432.5 c 128,-1,42
 405 465 405 465 350 465 c 0,20,21
EndSplineSet
EndChar

StartChar: b
Encoding: 98 98 41
Width: 700
GlyphClass: 2
Flags: W
LayerCount: 2
Fore
SplineSet
350 600 m 0,0,1
 420 600 420 600 474 557 c 128,-1,2
 528 514 528 514 544 449 c 1,3,4
 589 442 589 442 619.5 407 c 128,-1,5
 650 372 650 372 650 325 c 0,6,7
 650 273 650 273 613.5 236.5 c 128,-1,8
 577 200 577 200 525 200 c 2,9,-1
 505 200 l 1,10,-1
 505 235 l 1,11,-1
 525 235 l 2,12,13
 562 235 562 235 588.5 261.5 c 128,-1,14
 615 288 615 288 615 325 c 128,-1,15
 615 362 615 362 588.5 388.5 c 128,-1,16
 562 415 562 415 525 415 c 0,17,18
 490 415 490 415 464 392 c 1,19,-1
 440 416 l 1,20,21
 469 443 469 443 508 449 c 1,22,23
 497 482 497 482 474 508.5 c 128,-1,24
 451 535 451 535 418.5 550 c 128,-1,25
 386 565 386 565 350 565 c 0,26,27
 300 565 300 565 259 537.5 c 128,-1,28
 218 510 218 510 198 465 c 1,29,30
 151 464 151 464 118 430.5 c 128,-1,31
 85 397 85 397 85 350 c 0,32,33
 85 304 85 304 117 270.5 c 128,-1,34
 149 237 149 237 195 235 c 1,35,-1
 195 200 l 1,36,37
 155 201 155 201 122 221.5 c 128,-1,38
 89 242 89 242 69.5 276 c 128,-1,39
 50 310 50 310 50 350 c 0,40,41
 50 406 50 406 86 447.5 c 128,-1,42
 122 489 122 489 176 498 c 1,43,44
 202 544 202 544 248.5 572 c 128,-1,45
 295 600 295 600 350 600 c 0,0,1
508 80 m 1,46,-1
 508 65 l 1,47,48
 492 64 492 64 478.5 56 c 128,-1,49
 465 48 465 48 457.5 34.5 c 128,-1,50
 450 21 450 21 450 5 c 0,51,52
 450 3 450 3 450 0 c 1,53,-1
 435 0 l 1,54,55
 435 3 435 3 435 5 c 0,56,57
 435 35 435 35 456 57 c 128,-1,58
 477 79 477 79 508 80 c 1,46,-1
368 58 m 0,59,60
 368 54 368 54 366.5 50.5 c 128,-1,61
 365 47 365 47 362.5 45 c 128,-1,62
 360 43 360 43 357 41.5 c 128,-1,63
 354 40 354 40 350 40 c 0,64,65
 343 40 343 40 337.5 45 c 128,-1,66
 332 50 332 50 332 58 c 0,67,68
 332 62 332 62 334.5 66 c 128,-1,69
 337 70 337 70 341 72.5 c 128,-1,70
 345 75 345 75 350 75 c 0,71,72
 357 75 357 75 362.5 70 c 128,-1,73
 368 65 368 65 368 58 c 0,59,60
342 120 m 1,74,-1
 342 240 l 1,75,-1
 358 240 l 1,76,-1
 358 120 l 1,77,-1
 342 120 l 1,74,-1
250 0 m 1,78,-1
 250 300 l 1,79,-1
 265 300 l 1,80,-1
 265 0 l 1,81,-1
 250 0 l 1,78,-1
435 0 m 1,82,-1
 435 300 l 1,83,-1
 450 300 l 1,84,-1
 450 0 l 1,85,-1
 435 0 l 1,82,-1
152 129 m 1,86,87
 200 125 200 125 232.5 89 c 128,-1,88
 265 53 265 53 265 5 c 0,89,90
 265 2 265 2 265 0 c 1,91,-1
 250 0 l 1,92,93
 250 3 250 3 250 5 c 0,94,95
 250 47 250 47 222 78.5 c 128,-1,96
 194 110 194 110 152 114 c 1,97,-1
 152 129 l 1,86,87
88 117.5 m 128,-1,99
 88 110 88 110 82.5 105 c 128,-1,100
 77 100 77 100 70 100 c 128,-1,101
 63 100 63 100 57.5 105 c 128,-1,102
 52 110 52 110 52 117.5 c 128,-1,103
 52 125 52 125 57.5 130 c 128,-1,104
 63 135 63 135 70 135 c 128,-1,105
 77 135 77 135 82.5 130 c 128,-1,98
 88 125 88 125 88 117.5 c 128,-1,99
582 72.5 m 128,-1,107
 582 65 582 65 577 60 c 128,-1,108
 572 55 572 55 565 55 c 128,-1,109
 558 55 558 55 553 60 c 128,-1,110
 548 65 548 65 548 72 c 0,111,112
 548 77 548 77 550 81 c 128,-1,113
 552 85 552 85 556 87.5 c 128,-1,114
 560 90 560 90 565 90 c 0,115,116
 572 90 572 90 577 85 c 128,-1,106
 582 80 582 80 582 72.5 c 128,-1,107
EndSplineSet
EndChar

StartChar: c
Encoding: 99 99 42
Width: 700
GlyphClass: 2
Flags: W
LayerCount: 2
Fore
SplineSet
350 500 m 0,0,1
 361 500 361 500 368 499 c 1,2,-1
 203 100 l 1,3,-1
 200 100 l 2,4,5
 183 100 183 100 167 104 c 1,6,-1
 330 499 l 1,7,8
 343 500 343 500 350 500 c 0,0,1
432 482 m 1,9,10
 448 475 448 475 462 465 c 1,11,-1
 311 100 l 1,12,-1
 273 100 l 1,13,-1
 432 482 l 1,9,10
249 472 m 1,14,-1
 108 132 l 1,15,16
 92 144 92 144 81 159 c 1,17,-1
 188 417 l 1,18,19
 213 451 213 451 249 472 c 1,14,-1
512 416 m 1,20,21
 526 397 526 397 534 377 c 1,22,-1
 420 100 l 1,23,-1
 381 100 l 1,24,-1
 512 416 l 1,20,21
91 353 m 1,25,-1
 50 253 l 1,26,27
 51 312 51 312 91 353 c 1,25,-1
587 333 m 1,28,29
 603 324 603 324 615 311 c 1,30,-1
 528 100 l 1,31,-1
 525 100 l 1,32,-1
 490 100 l 1,33,-1
 587 333 l 1,28,29
650 225 m 1,34,35
 650 173 650 173 613 136 c 1,36,-1
 650 225 l 1,34,35
EndSplineSet
EndChar

StartChar: d
Encoding: 100 100 43
Width: 600
GlyphClass: 2
Flags: W
LayerCount: 2
Fore
SplineSet
300 550 m 0,0,1
 312 550 312 550 325 549 c 1,2,3
 289 476 289 476 317 400 c 0,4,5
 343 329 343 329 410.5 295.5 c 128,-1,6
 478 262 478 262 550 283 c 1,7,8
 549 264 549 264 545 246 c 1,9,10
 545 246 545 246 544 246 c 0,11,12
 542 236 542 236 541 231 c 0,13,14
 538 222 538 222 536 216 c 2,15,16
 536 216 536 216 535.5 215 c 128,-1,17
 535 214 535 214 535 214 c 2,18,19
 534 210 534 210 530 202 c 0,20,21
 527 195 527 195 524 188 c 0,22,23
 514 168 514 168 501 151 c 0,24,25
 501 150 501 150 500.5 149.5 c 128,-1,26
 500 149 500 149 499 149 c 0,27,28
 496 145 496 145 493 141 c 2,29,30
 493 141 493 141 491.5 139 c 128,-1,31
 490 137 490 137 489.5 136.5 c 128,-1,32
 489 136 489 136 487.5 134.5 c 128,-1,33
 486 133 486 133 486 132 c 0,34,35
 484 130 484 130 479 125 c 0,36,37
 471 117 471 117 469 115 c 2,38,39
 469 115 469 115 468.5 114.5 c 128,-1,40
 468 114 468 114 468 114 c 2,41,42
 462 110 462 110 456 104 c 0,43,44
 451 100 451 100 443 95 c 0,45,46
 432 87 432 87 430 86 c 0,47,48
 424 82 424 82 416 78 c 0,49,50
 402 71 402 71 386 65 c 0,51,52
 374 61 374 61 363 58 c 0,53,54
 357 57 357 57 351 55 c 0,55,56
 350 55 350 55 349.5 55 c 128,-1,57
 349 55 349 55 349 55 c 2,58,59
 344 54 344 54 338 53 c 256,60,61
 332 52 332 52 326 51 c 2,62,63
 326 51 326 51 325 51 c 2,64,65
 325 51 325 51 324 51 c 0,66,67
 319 51 319 51 317 51 c 2,68,69
 317 51 317 51 312 50 c 0,70,71
 296 49 296 49 275 51 c 0,72,73
 274 52 274 52 273 52 c 128,-1,74
 272 52 272 52 271 52 c 0,75,76
 267 52 267 52 262 53 c 128,-1,77
 257 54 257 54 252 55 c 0,78,79
 250 55 250 55 250 55 c 129,-1,80
 250 55 250 55 249.5 55.5 c 128,-1,81
 249 56 249 56 249 56 c 1,82,83
 241 57 241 57 238 58 c 0,84,85
 237 58 237 58 236.5 58.5 c 128,-1,86
 236 59 236 59 236 59 c 1,87,88
 219 63 219 63 206 69 c 0,89,90
 205 69 205 69 204 69 c 128,-1,91
 203 69 203 69 203 70 c 0,92,93
 195 73 195 73 184 79 c 0,94,95
 183 79 183 79 182.5 79.5 c 128,-1,96
 182 80 182 80 181 80 c 0,97,98
 176 83 176 83 173 85 c 2,99,100
 173 85 173 85 172 85.5 c 128,-1,101
 171 86 171 86 170 86 c 0,102,103
 169 87 169 87 166.5 89 c 128,-1,104
 164 91 164 91 163 91 c 2,105,106
 163 91 163 91 162 91.5 c 128,-1,107
 161 92 161 92 160 93 c 0,108,109
 157 95 157 95 153 98 c 256,110,111
 149 101 149 101 144 105 c 0,112,113
 143 106 143 106 142 106.5 c 128,-1,114
 141 107 141 107 141 107 c 2,115,116
 138 109 138 109 134 113 c 2,117,-1
 133 114 l 1,118,-1
 132 115 l 2,119,120
 129 117 129 117 128 119 c 0,121,122
 127 120 127 120 126 121 c 128,-1,123
 125 122 125 122 124 122 c 0,124,125
 122 124 122 124 121 126 c 0,126,127
 117 130 117 130 115 132 c 0,128,129
 111 136 111 136 107 141 c 0,130,131
 107 142 107 142 104.5 144.5 c 128,-1,132
 102 147 102 147 101 149 c 2,133,134
 101 149 101 149 100.5 149.5 c 128,-1,135
 100 150 100 150 100 151 c 0,136,137
 95 156 95 156 94 159 c 2,138,139
 94 159 94 159 93.5 159.5 c 128,-1,140
 93 160 93 160 93 160 c 2,141,142
 86 170 86 170 82 178 c 0,143,144
 81 179 81 179 80.5 179.5 c 128,-1,145
 80 180 80 180 80 181 c 0,146,147
 79 182 79 182 78.5 184 c 128,-1,148
 78 186 78 186 77 188 c 128,-1,149
 76 190 76 190 75 191 c 0,150,151
 75 192 75 192 75 192 c 2,152,153
 72 198 72 198 70 203 c 0,154,155
 67 209 67 209 65 215 c 0,156,157
 63 219 63 219 61 226 c 0,158,159
 61 227 61 227 61 227 c 2,160,161
 61 228 61 228 60.5 230 c 128,-1,162
 60 232 60 232 59 232 c 1,163,164
 59 233 59 233 58.5 235.5 c 128,-1,165
 58 238 58 238 58 239 c 1,166,167
 57 239 57 239 57 239.5 c 128,-1,168
 57 240 57 240 57 240 c 2,169,170
 56 246 56 246 55 252 c 0,171,172
 54 257 54 257 53 262 c 2,173,-1
 53 263 l 1,174,-1
 53 264 l 2,175,176
 52 266 52 266 51 275 c 0,177,178
 50 287 50 287 50 300 c 0,179,180
 50 301 50 301 50 302.5 c 128,-1,181
 50 304 50 304 50 306 c 128,-1,182
 50 308 50 308 50 309 c 2,183,184
 50 309 50 309 50 310.5 c 128,-1,185
 50 312 50 312 50 313 c 0,186,187
 51 318 51 318 51 325 c 2,188,189
 51 325 51 325 51 326 c 2,190,-1
 51 327 l 1,191,-1
 52 329 l 2,192,193
 52 333 52 333 53 338 c 128,-1,194
 54 343 54 343 55 349 c 2,195,196
 55 349 55 349 55 349.5 c 128,-1,197
 55 350 55 350 55 350.5 c 128,-1,198
 55 351 55 351 55 352 c 128,-1,199
 55 353 55 353 56 354 c 0,200,201
 56 356 56 356 58 362 c 0,202,203
 58 365 58 365 61 372 c 2,204,-1
 61 373 l 1,205,-1
 61 374 l 1,206,207
 65 387 65 387 68 393 c 0,208,209
 68 394 68 394 68.5 395 c 128,-1,210
 69 396 69 396 69 397 c 0,211,212
 71 400 71 400 73 406 c 0,213,214
 74 406 74 406 74 407 c 128,-1,215
 74 408 74 408 75 408 c 0,216,217
 77 413 77 413 79 417 c 256,218,219
 81 421 81 421 83 424 c 0,220,221
 83 425 83 425 84.5 427 c 128,-1,222
 86 429 86 429 86 430 c 0,223,224
 89 435 89 435 91 437 c 2,225,-1
 92 438 l 1,226,-1
 92 439 l 1,227,228
 92 439 92 439 93 440.5 c 128,-1,229
 94 442 94 442 94.5 442.5 c 128,-1,230
 95 443 95 443 97 445 c 0,231,232
 98 448 98 448 99 449 c 2,233,234
 99 449 99 449 99.5 450 c 128,-1,235
 100 451 100 451 101 451 c 0,236,237
 102 453 102 453 107 459 c 0,238,239
 111 464 111 464 115 468 c 2,240,241
 115 468 115 468 117.5 470.5 c 128,-1,242
 120 473 120 473 121 475 c 2,243,244
 121 475 121 475 121.5 475.5 c 128,-1,245
 122 476 122 476 123 476 c 0,246,247
 125 479 125 479 130 483 c 2,248,-1
 131 484 l 1,249,-1
 132 485 l 2,250,251
 133 486 133 486 139 491 c 1,252,253
 139 491 139 491 139 492 c 0,254,255
 144 495 144 495 149 499 c 1,256,-1
 149 500 l 1,257,-1
 150 501 l 2,258,259
 152 502 152 502 154.5 503.5 c 128,-1,260
 157 505 157 505 157 505 c 2,261,262
 158 506 158 506 159 506.5 c 128,-1,263
 160 507 160 507 160 507 c 2,264,265
 168 512 168 512 169 513 c 2,266,-1
 170 514 l 2,267,268
 171 514 171 514 172 515 c 128,-1,269
 173 516 173 516 174 516 c 0,270,271
 178 518 178 518 181 520 c 0,272,273
 191 526 191 526 203 530 c 1,274,-1
 203 531 l 1,275,276
 212 535 212 535 226 539 c 0,277,278
 233 541 233 541 238 542 c 0,279,280
 244 544 244 544 250 545 c 128,-1,281
 256 546 256 546 262 547 c 0,282,283
 281 550 281 550 300 550 c 0,0,1
274 514 m 2,284,285
 251 511 251 511 227 502 c 0,286,287
 172 482 172 482 135 437.5 c 128,-1,288
 98 393 98 393 89 338.5 c 128,-1,289
 80 284 80 284 98 226 c 0,290,291
 129 143 129 143 209.5 105.5 c 128,-1,292
 290 68 290 68 374 98 c 0,293,294
 423 116 423 116 457.5 154 c 128,-1,295
 492 192 492 192 507 240 c 1,296,297
 434 237 434 237 372 277.5 c 128,-1,298
 310 318 310 318 284 388 c 0,299,300
 261 450 261 450 276 514 c 1,301,302
 275 514 275 514 274.5 514 c 128,-1,303
 274 514 274 514 274 514 c 2,284,285
EndSplineSet
EndChar

StartChar: e
Encoding: 101 101 44
Width: 800
GlyphClass: 2
Flags: W
LayerCount: 2
Fore
SplineSet
500 600 m 0,0,1
 512 600 512 600 525 599 c 1,2,3
 489 526 489 526 517 450 c 0,4,5
 543 379 543 379 610.5 345.5 c 128,-1,6
 678 312 678 312 750 333 c 1,7,8
 749 314 749 314 745 296 c 1,9,-1
 744 296 l 1,10,11
 742 286 742 286 741 281 c 0,12,13
 738 273 738 273 736 266 c 2,14,15
 736 266 736 266 735.5 265 c 128,-1,16
 735 264 735 264 735 264 c 2,17,18
 734 260 734 260 730 252 c 0,19,20
 727 245 727 245 724 238 c 0,21,22
 714 218 714 218 701 201 c 0,23,24
 701 200 701 200 700.5 199.5 c 128,-1,25
 700 199 700 199 699 199 c 0,26,27
 696 194 696 194 693 191 c 2,28,29
 693 191 693 191 691.5 189 c 128,-1,30
 690 187 690 187 689.5 186.5 c 128,-1,31
 689 186 689 186 687.5 184.5 c 128,-1,32
 686 183 686 183 686 182 c 0,33,34
 683 180 683 180 679 175 c 0,35,36
 671 167 671 167 669 165 c 2,37,38
 669 165 669 165 668.5 164.5 c 128,-1,39
 668 164 668 164 668 164 c 2,40,41
 663 160 663 160 656 154 c 0,42,43
 654 153 654 153 648 148 c 1,44,45
 650 137 650 137 650 125 c 0,46,47
 650 73 650 73 613.5 36.5 c 128,-1,48
 577 0 577 0 525 0 c 2,49,-1
 350 0 l 1,50,-1
 200 0 l 2,51,52
 138 0 138 0 94 44 c 128,-1,53
 50 88 50 88 50 150 c 0,54,55
 50 206 50 206 86 247.5 c 128,-1,56
 122 289 122 289 176 298 c 1,57,58
 203 346 203 346 251 374 c 0,59,60
 251 375 251 375 251 375 c 257,61,62
 251 375 251 375 251 376 c 2,63,64
 251 376 251 376 251 377 c 256,65,66
 251 378 251 378 252 379 c 0,67,68
 252 383 252 383 253 388 c 128,-1,69
 254 393 254 393 255 399 c 2,70,71
 255 399 255 399 255 399.5 c 128,-1,72
 255 400 255 400 255 400.5 c 128,-1,73
 255 401 255 401 255 402 c 256,74,75
 255 403 255 403 256 404 c 0,76,77
 256 406 256 406 258 412 c 0,78,79
 258 415 258 415 261 422 c 2,80,81
 261 422 261 422 261 423 c 128,-1,82
 261 424 261 424 261 424 c 1,83,84
 265 436 265 436 268 443 c 2,85,-1
 269 445 l 1,86,-1
 269 447 l 2,87,88
 271 450 271 450 273 456 c 0,89,90
 274 456 274 456 274 457 c 128,-1,91
 274 458 274 458 275 458 c 0,92,93
 277 463 277 463 279 467 c 256,94,95
 281 471 281 471 283 474 c 0,96,97
 283 475 283 475 284.5 477 c 128,-1,98
 286 479 286 479 286 480 c 0,99,100
 289 484 289 484 291 487 c 2,101,102
 291 487 291 487 291.5 487.5 c 128,-1,103
 292 488 292 488 292 488.5 c 128,-1,104
 292 489 292 489 293 490.5 c 128,-1,105
 294 492 294 492 294.5 492.5 c 128,-1,106
 295 493 295 493 296.5 495.5 c 128,-1,107
 298 498 298 498 299 499 c 2,108,109
 299 499 299 499 299.5 500 c 128,-1,110
 300 501 300 501 301 501 c 0,111,112
 302 503 302 503 307 509 c 0,113,114
 311 514 311 514 315 518 c 2,115,116
 315 518 315 518 317.5 520.5 c 128,-1,117
 320 523 320 523 321 525 c 2,118,119
 321 525 321 525 321.5 525.5 c 128,-1,120
 322 526 322 526 323 526 c 0,121,122
 325 529 325 529 330 533 c 2,123,124
 330 533 330 533 331 534 c 128,-1,125
 332 535 332 535 332 535 c 2,126,127
 333 536 333 536 339 541 c 1,128,-1
 339 542 l 1,129,130
 344 545 344 545 349 549 c 1,131,-1
 349 550 l 1,132,-1
 350 551 l 2,133,134
 352 552 352 552 354.5 553.5 c 128,-1,135
 357 555 357 555 357 555 c 2,136,137
 358 556 358 556 359 556.5 c 128,-1,138
 360 557 360 557 360 557 c 2,139,140
 367 562 367 562 369 563 c 0,141,142
 370 564 370 564 370 564 c 2,143,144
 371 564 371 564 372 565 c 128,-1,145
 373 566 373 566 374 566 c 0,146,147
 378 568 378 568 381 570 c 0,148,149
 391 576 391 576 403 580 c 1,150,-1
 403 581 l 1,151,152
 412 585 412 585 426 589 c 0,153,154
 433 591 433 591 438 592 c 0,155,156
 444 594 444 594 450 595 c 128,-1,157
 456 596 456 596 462 597 c 0,158,159
 481 600 481 600 500 600 c 0,0,1
474 564 m 2,160,161
 451 561 451 561 427 552 c 0,162,163
 372 532 372 532 336 488.5 c 128,-1,164
 300 445 300 445 289 391 c 1,165,166
 319 400 319 400 350 400 c 0,167,168
 420 400 420 400 474 357 c 128,-1,169
 528 314 528 314 544 249 c 1,170,171
 574 244 574 244 598 226.5 c 128,-1,172
 622 209 622 209 636 183 c 1,173,174
 688 225 688 225 706 290 c 1,175,176
 659 288 659 288 614.5 305 c 128,-1,177
 570 322 570 322 535.5 356.5 c 128,-1,178
 501 391 501 391 484 438 c 0,179,180
 461 500 461 500 476 564 c 1,181,182
 475 564 475 564 475 564 c 1,183,-1
 474 564 l 2,160,161
283 389 m 1,184,185
 280 387 280 387 277 386 c 1,186,187
 280 387 280 387 283 389 c 1,184,185
350 365 m 0,188,189
 300 365 300 365 259 337.5 c 128,-1,190
 218 310 218 310 198 265 c 1,191,192
 151 264 151 264 118 230.5 c 128,-1,193
 85 197 85 197 85 150 c 0,194,195
 85 102 85 102 118.5 68.5 c 128,-1,196
 152 35 152 35 200 35 c 2,197,-1
 525 35 l 2,198,199
 562 35 562 35 588.5 61.5 c 128,-1,200
 615 88 615 88 615 125 c 128,-1,201
 615 162 615 162 588.5 188.5 c 128,-1,202
 562 215 562 215 525 215 c 0,203,204
 490 215 490 215 464 192 c 1,205,-1
 440 216 l 1,206,207
 469 243 469 243 508 249 c 1,208,209
 492 300 492 300 448.5 332.5 c 128,-1,210
 405 365 405 365 350 365 c 0,188,189
EndSplineSet
EndChar

StartChar: f
Encoding: 102 102 45
Width: 800
GlyphClass: 2
Flags: W
LayerCount: 2
Fore
SplineSet
466 463 m 0,0,1
 533 463 533 463 579.5 416.5 c 128,-1,2
 626 370 626 370 626 303 c 0,3,4
 626 260 626 260 604 222 c 1,5,6
 650 184 650 184 650 125 c 0,7,8
 650 73 650 73 613.5 36.5 c 128,-1,9
 577 0 577 0 525 0 c 2,10,-1
 350 0 l 1,11,-1
 200 0 l 2,12,13
 138 0 138 0 94 44 c 128,-1,14
 50 88 50 88 50 150 c 0,15,16
 50 206 50 206 86 247.5 c 128,-1,17
 122 289 122 289 176 298 c 1,18,19
 200 342 200 342 243.5 369.5 c 128,-1,20
 287 397 287 397 339 400 c 1,21,22
 361 429 361 429 394.5 446 c 128,-1,23
 428 463 428 463 466 463 c 0,0,1
466 428 m 0,24,25
 419 428 419 428 384 397 c 1,26,27
 443 387 443 387 486.5 346.5 c 128,-1,28
 530 306 530 306 544 249 c 1,29,30
 560 246 560 246 574 240 c 1,31,32
 592 270 592 270 592 303 c 0,33,34
 592 355 592 355 555 391.5 c 128,-1,35
 518 428 518 428 466 428 c 0,24,25
350 365 m 0,36,37
 300 365 300 365 259 337.5 c 128,-1,38
 218 310 218 310 198 265 c 1,39,40
 151 264 151 264 118 230.5 c 128,-1,41
 85 197 85 197 85 150 c 0,42,43
 85 102 85 102 118.5 68.5 c 128,-1,44
 152 35 152 35 200 35 c 2,45,-1
 525 35 l 2,46,47
 562 35 562 35 588.5 61.5 c 128,-1,48
 615 88 615 88 615 125 c 128,-1,49
 615 162 615 162 588.5 188.5 c 128,-1,50
 562 215 562 215 525 215 c 0,51,52
 490 215 490 215 464 192 c 1,53,-1
 440 216 l 1,54,55
 469 243 469 243 508 249 c 1,56,57
 492 300 492 300 448.5 332.5 c 128,-1,58
 405 365 405 365 350 365 c 0,36,37
416 600 m 256,59,60
 417 600 417 600 417 600 c 1,61,-1
 417 600 l 1,62,63
 418 600 418 600 418.5 600 c 128,-1,64
 419 600 419 600 419 600 c 1,65,-1
 419 599 l 1,66,67
 420 599 420 599 421 599 c 1,68,-1
 421 598 l 1,69,70
 422 598 422 598 423 597 c 2,71,72
 423 597 423 597 423 596 c 1,73,-1
 423 596 l 1,74,75
 424 595 424 595 424 595 c 1,76,-1
 455 508 l 1,77,-1
 455 508 l 1,78,-1
 455 507 l 1,79,-1
 456 507 l 1,80,-1
 456 506 l 1,81,-1
 456 506 l 1,82,-1
 456 505 l 1,83,-1
 456 505 l 1,84,85
 456 505 456 505 456 504.5 c 128,-1,86
 456 504 456 504 455.5 503.5 c 128,-1,87
 455 503 455 503 455 503 c 129,-1,88
 455 503 455 503 455 502.5 c 128,-1,89
 455 502 455 502 455 501.5 c 128,-1,90
 455 501 455 501 454 501 c 1,91,-1
 454 500 l 1,92,93
 454 500 454 500 453.5 499.5 c 128,-1,94
 453 499 453 499 453 499 c 257,95,96
 453 499 453 499 452 499 c 1,97,-1
 452 499 l 1,98,99
 451 498 451 498 450 498 c 2,100,-1
 449 498 l 1,101,-1
 418 492 l 1,102,-1
 417 492 l 1,103,-1
 417 492 l 1,104,-1
 416 492 l 2,105,106
 415 492 415 492 415 492 c 1,107,108
 415 493 415 493 414 493 c 2,109,-1
 413 493 l 1,110,111
 413 493 413 493 412 493 c 1,112,-1
 412 494 l 1,113,-1
 412 494 l 1,114,115
 411 494 411 494 411 494 c 1,116,-1
 411 495 l 1,117,118
 410 495 410 495 410 495.5 c 128,-1,119
 410 496 410 496 410 496.5 c 128,-1,120
 410 497 410 497 410 497 c 1,121,122
 409 497 409 497 409 498 c 1,123,-1
 409 498 l 1,124,-1
 409 499 l 1,125,126
 409 499 409 499 409 500 c 2,127,-1
 409 592 l 1,128,-1
 409 593 l 1,129,-1
 409 593 l 1,130,131
 409 594 409 594 409 594 c 1,132,-1
 409 594 l 1,133,134
 409 595 409 595 409 595 c 1,135,-1
 410 595 l 1,136,137
 410 596 410 596 410 596 c 1,138,-1
 410 596 l 1,139,-1
 410 597 l 1,140,-1
 411 597 l 1,141,142
 411 598 411 598 411 598 c 1,143,-1
 412 598 l 1,144,-1
 412 599 l 1,145,-1
 413 599 l 2,146,147
 414 599 414 599 414 599.5 c 128,-1,148
 414 600 414 600 415 600 c 2,149,150
 415 600 415 600 416 600 c 256,59,60
237 498 m 2,151,152
 238 499 238 499 238 499 c 1,153,-1
 238 499 l 1,154,155
 238 499 238 499 238.5 499.5 c 128,-1,156
 239 500 239 500 239 500 c 1,157,-1
 240 500 l 2,158,159
 241 500 241 500 242 500 c 2,160,-1
 243 500 l 1,161,162
 243 500 243 500 244 500 c 2,163,164
 244 500 244 500 245 500 c 2,165,-1
 246 500 l 1,166,167
 246 499 246 499 246 499 c 1,168,-1
 326 453 l 1,169,-1
 326 453 l 1,170,-1
 327 453 l 1,171,-1
 327 452 l 1,172,-1
 328 452 l 1,173,-1
 328 452 l 1,174,-1
 328 451 l 1,175,176
 328 451 328 451 328.5 451 c 128,-1,177
 329 451 329 451 329 450 c 2,178,179
 329 450 329 450 329.5 449.5 c 128,-1,180
 330 449 330 449 330 449 c 129,-1,181
 330 449 330 449 330 448.5 c 128,-1,182
 330 448 330 448 330 447.5 c 128,-1,183
 330 447 330 447 330 447 c 129,-1,184
 330 447 330 447 330 446.5 c 128,-1,185
 330 446 330 446 330 446 c 1,186,-1
 330 445 l 1,187,-1
 330 445 l 1,188,189
 330 445 330 445 330 444 c 2,190,-1
 330 443 l 2,191,192
 329 442 329 442 328 442 c 1,193,-1
 328 441 l 1,194,-1
 308 417 l 1,195,-1
 307 416 l 1,196,-1
 307 416 l 1,197,-1
 307 416 l 1,198,199
 307 416 307 416 306 415 c 0,200,201
 305 415 305 415 304.5 415 c 128,-1,202
 304 415 304 415 304 415 c 1,203,-1
 304 414 l 1,204,205
 303 414 303 414 303 414 c 1,206,-1
 302 414 l 1,207,208
 302 414 302 414 301.5 414 c 128,-1,209
 301 414 301 414 301 414 c 1,210,-1
 301 414 l 1,211,212
 300 414 300 414 300 414 c 1,213,-1
 300 415 l 1,214,215
 300 415 300 415 299 415 c 2,216,-1
 298 415 l 1,217,218
 298 415 298 415 298 416 c 1,219,-1
 297 416 l 1,220,-1
 297 416 l 1,221,222
 297 417 297 417 296 417 c 2,223,-1
 237 488 l 1,224,-1
 236 488 l 1,225,-1
 236 489 l 1,226,227
 236 489 236 489 236 489 c 1,228,-1
 236 490 l 1,229,230
 235 490 235 490 235 490 c 1,231,-1
 235 491 l 1,232,-1
 235 491 l 1,233,-1
 235 492 l 1,234,-1
 235 492 l 1,235,-1
 235 493 l 1,236,-1
 235 494 l 1,237,238
 235 494 235 494 235 494 c 1,239,-1
 235 495 l 1,240,-1
 235 495 l 1,241,-1
 236 496 l 1,242,243
 236 496 236 496 236 497 c 1,244,-1
 237 497 l 1,245,246
 237 498 237 498 237 498 c 2,151,152
748 199 m 1,247,248
 748 198 748 198 748 198 c 1,249,-1
 748 198 l 1,250,251
 748 198 748 198 747 197 c 2,252,-1
 747 196 l 1,253,-1
 746 196 l 1,254,255
 746 196 746 196 745 195 c 2,256,-1
 744 195 l 2,257,258
 743 195 743 195 743 195 c 2,259,260
 742 195 742 195 742 195 c 129,-1,261
 742 195 742 195 741 195 c 2,262,263
 741 195 741 195 740 195 c 2,264,-1
 650 211 l 1,265,-1
 649 211 l 1,266,-1
 649 211 l 1,267,-1
 648 211 l 1,268,-1
 648 211 l 1,269,-1
 647 211 l 1,270,-1
 647 212 l 1,271,-1
 646 212 l 1,272,-1
 646 212 l 1,273,274
 646 212 646 212 645.5 212.5 c 128,-1,275
 645 213 645 213 645 213.5 c 128,-1,276
 645 214 645 214 644.5 214 c 128,-1,277
 644 214 644 214 644 214 c 1,278,-1
 644 215 l 1,279,-1
 643 216 l 1,280,-1
 643 216 l 1,281,-1
 643 217 l 1,282,-1
 643 217 l 1,283,284
 643 217 643 217 643 218 c 2,285,-1
 643 219 l 2,286,287
 643 220 643 220 643 221 c 1,288,-1
 644 221 l 1,289,-1
 654 251 l 1,290,-1
 655 252 l 1,291,-1
 655 252 l 1,292,-1
 655 252 l 1,293,294
 655 252 655 252 655.5 252.5 c 128,-1,295
 656 253 656 253 656 253.5 c 128,-1,296
 656 254 656 254 656 254 c 1,297,298
 657 254 657 254 657 254 c 1,299,-1
 657 255 l 1,300,301
 658 255 658 255 658 255 c 1,302,-1
 659 255 l 1,303,-1
 659 256 l 1,304,-1
 660 256 l 1,305,-1
 660 256 l 1,306,307
 661 256 661 256 661 256 c 129,-1,308
 661 256 661 256 662 256 c 2,309,-1
 663 256 l 1,310,-1
 664 256 l 1,311,-1
 665 255 l 1,312,-1
 665 255 l 1,313,-1
 745 209 l 1,314,-1
 746 209 l 1,315,-1
 746 208 l 1,316,-1
 746 208 l 1,317,318
 746 208 746 208 747 208 c 1,319,-1
 747 207 l 1,320,321
 747 207 747 207 748 207 c 1,322,323
 748 206 748 206 748 206 c 1,324,-1
 748 206 l 1,325,-1
 749 205 l 1,326,-1
 749 205 l 1,327,328
 749 204 749 204 749 204 c 1,329,-1
 749 204 l 1,330,331
 749 204 749 204 749 203 c 1,332,-1
 749 203 l 1,333,-1
 749 202 l 2,334,335
 749 201 749 201 749 201 c 129,-1,336
 749 201 749 201 749 200 c 1,337,-1
 749 200 l 1,338,-1
 749 199 l 1,339,-1
 748 199 l 1,247,248
750 404 m 1,340,341
 750 404 750 404 750 404 c 1,342,-1
 750 403 l 1,343,344
 750 403 750 403 750 402.5 c 128,-1,345
 750 402 750 402 750 402 c 1,346,-1
 750 401 l 2,347,348
 750 400 750 400 749 400 c 1,349,-1
 749 399 l 2,350,351
 748 398 748 398 748 398 c 2,352,353
 748 397 748 397 747 397 c 1,354,-1
 747 397 l 1,355,356
 746 396 746 396 746 396 c 1,357,-1
 666 350 l 1,358,-1
 666 350 l 1,359,-1
 665 350 l 1,360,-1
 665 349 l 1,361,-1
 664 349 l 1,362,363
 664 349 664 349 663.5 349 c 128,-1,364
 663 349 663 349 662 349 c 2,365,366
 662 349 662 349 661.5 349 c 128,-1,367
 661 349 661 349 661 349 c 129,-1,368
 661 349 661 349 660.5 349 c 128,-1,369
 660 349 660 349 659.5 349 c 128,-1,370
 659 349 659 349 659 350 c 1,371,-1
 658 350 l 1,372,373
 658 350 658 350 657.5 350.5 c 128,-1,374
 657 351 657 351 657 351 c 129,-1,375
 657 351 657 351 657 351 c 1,376,-1
 656 352 l 2,377,378
 656 353 656 353 655 354 c 2,379,-1
 644 384 l 1,380,-1
 644 385 l 1,381,-1
 644 385 l 1,382,-1
 644 385 l 1,383,384
 644 386 644 386 644 386 c 2,385,386
 644 387 644 387 644 387 c 257,387,388
 644 387 644 387 644 388 c 1,389,390
 644 388 644 388 644 388 c 1,391,-1
 644 389 l 1,392,393
 644 389 644 389 644 390 c 1,394,-1
 644 390 l 1,395,-1
 645 391 l 1,396,397
 645 391 645 391 645 391 c 1,398,-1
 645 391 l 1,399,400
 645 391 645 391 646 392 c 1,401,-1
 646 392 l 1,402,403
 646 392 646 392 647 393 c 1,404,-1
 647 393 l 1,405,406
 648 393 648 393 648 393 c 1,407,-1
 648 394 l 1,408,-1
 649 394 l 1,409,410
 649 394 649 394 650 394 c 2,411,-1
 741 410 l 1,412,-1
 742 410 l 1,413,-1
 742 410 l 1,414,415
 742 410 742 410 743 410 c 1,416,-1
 743 410 l 1,417,418
 743 410 743 410 744 410 c 256,419,420
 745 410 745 410 745 410 c 1,421,-1
 745 410 l 1,422,423
 745 410 745 410 746 410 c 1,424,-1
 746 409 l 1,425,426
 747 409 747 409 747 409 c 1,427,-1
 747 409 l 1,428,429
 747 409 747 409 748 408 c 1,430,-1
 748 408 l 1,431,-1
 749 407 l 2,432,433
 749 406 749 406 749 406 c 2,434,435
 750 405 750 405 750 405 c 1,436,-1
 750 404 l 1,340,341
619 563 m 1,437,438
 619 563 619 563 619 562 c 1,439,-1
 619 562 l 1,440,441
 620 562 620 562 620 561.5 c 128,-1,442
 620 561 620 561 620 561 c 1,443,-1
 621 561 l 1,444,-1
 621 560 l 1,445,446
 621 560 621 560 621 559 c 2,447,-1
 621 558 l 2,448,449
 622 557 622 557 622 556 c 2,450,451
 622 556 622 556 621.5 555.5 c 128,-1,452
 621 555 621 555 621 555 c 1,453,-1
 621 554 l 1,454,-1
 590 468 l 1,455,-1
 589 467 l 1,456,-1
 589 467 l 1,457,-1
 589 466 l 1,458,-1
 588 465 l 1,459,460
 588 465 588 465 588 464.5 c 128,-1,461
 588 464 588 464 587.5 464 c 128,-1,462
 587 464 587 464 586.5 464 c 128,-1,463
 586 464 586 464 586 463.5 c 128,-1,464
 586 463 586 463 586 463 c 1,465,-1
 585 463 l 1,466,-1
 585 463 l 1,467,468
 585 463 585 463 584 463 c 1,469,-1
 584 462 l 1,470,-1
 583 462 l 1,471,-1
 583 462 l 1,472,473
 582 462 582 462 582 462 c 257,474,475
 582 462 582 462 581 462 c 1,476,-1
 581 462 l 1,477,-1
 580 463 l 2,478,479
 579 463 579 463 579 463 c 1,480,-1
 578 463 l 1,481,-1
 551 479 l 1,482,-1
 550 480 l 1,483,-1
 550 480 l 1,484,-1
 550 480 l 1,485,486
 549 480 549 480 549 481 c 0,487,488
 548 482 548 482 548 482 c 1,489,-1
 548 483 l 1,490,491
 547 483 547 483 547 484 c 1,492,-1
 547 484 l 1,493,-1
 547 485 l 1,494,495
 547 485 547 485 547 485 c 1,496,-1
 547 485 l 1,497,498
 547 486 547 486 547 486 c 129,-1,499
 547 486 547 486 547 486.5 c 128,-1,500
 547 487 547 487 547 487.5 c 128,-1,501
 547 488 547 488 547 488 c 2,502,503
 547 489 547 489 548 489 c 1,504,-1
 548 490 l 1,505,506
 548 490 548 490 549 491 c 2,507,-1
 608 562 l 1,508,-1
 609 562 l 1,509,-1
 609 562 l 1,510,511
 609 563 609 563 609 563 c 1,512,-1
 610 563 l 1,513,514
 610 563 610 563 610 563 c 1,515,-1
 611 564 l 1,516,-1
 611 564 l 1,517,-1
 612 564 l 1,518,-1
 612 564 l 1,519,-1
 613 564 l 1,520,-1
 614 564 l 1,521,522
 614 564 614 564 614 564 c 1,523,-1
 615 564 l 1,524,525
 615 564 615 564 615 564 c 1,526,-1
 616 564 l 1,527,528
 616 564 616 564 617 564 c 2,529,-1
 618 564 l 1,530,531
 618 563 618 563 618 563 c 1,532,-1
 619 563 l 1,437,438
EndSplineSet
EndChar

StartChar: g
Encoding: 103 103 46
Width: 700
GlyphClass: 2
Flags: W
LayerCount: 2
Fore
SplineSet
447.5 152 m 128,-1,1
 455 152 455 152 460 147 c 128,-1,2
 465 142 465 142 465 135 c 2,3,-1
 465 58 l 2,4,5
 465 50 465 50 460 45 c 128,-1,6
 455 40 455 40 447.5 40 c 128,-1,7
 440 40 440 40 435 45 c 128,-1,8
 430 50 430 50 430 58 c 2,9,-1
 430 135 l 2,10,11
 430 142 430 142 435 147 c 128,-1,0
 440 152 440 152 447.5 152 c 128,-1,1
447.5 315 m 128,-1,13
 455 315 455 315 460 310 c 128,-1,14
 465 305 465 305 465 298 c 2,15,-1
 465 220 l 2,16,17
 465 213 465 213 460 207.5 c 128,-1,18
 455 202 455 202 447.5 202 c 128,-1,19
 440 202 440 202 435 207.5 c 128,-1,20
 430 213 430 213 430 220 c 2,21,-1
 430 298 l 2,22,23
 430 305 430 305 435 310 c 128,-1,12
 440 315 440 315 447.5 315 c 128,-1,13
350 112 m 0,24,25
 357 112 357 112 362.5 107 c 128,-1,26
 368 102 368 102 368 95 c 2,27,-1
 368 18 l 2,28,29
 368 13 368 13 365.5 9 c 128,-1,30
 363 5 363 5 359 2.5 c 128,-1,31
 355 0 355 0 350 0 c 0,32,33
 343 0 343 0 337.5 5 c 128,-1,34
 332 10 332 10 332 18 c 2,35,-1
 332 95 l 2,36,37
 332 99 332 99 333.5 102 c 128,-1,38
 335 105 335 105 337.5 107.5 c 128,-1,39
 340 110 340 110 343 111 c 128,-1,40
 346 112 346 112 350 112 c 0,24,25
252 152 m 0,41,42
 260 152 260 152 265 147 c 128,-1,43
 270 142 270 142 270 135 c 2,44,-1
 270 58 l 2,45,46
 270 50 270 50 265 45 c 128,-1,47
 260 40 260 40 252.5 40 c 128,-1,48
 245 40 245 40 240 45 c 128,-1,49
 235 50 235 50 235 58 c 2,50,-1
 235 135 l 2,51,52
 235 140 235 140 237.5 144 c 128,-1,53
 240 148 240 148 244 150 c 128,-1,54
 248 152 248 152 252 152 c 0,41,42
350 275 m 128,-1,56
 357 275 357 275 362.5 270 c 128,-1,57
 368 265 368 265 368 258 c 2,58,-1
 368 180 l 2,59,60
 368 173 368 173 362.5 167.5 c 128,-1,61
 357 162 357 162 350 162 c 128,-1,62
 343 162 343 162 337.5 167.5 c 128,-1,63
 332 173 332 173 332 180 c 2,64,-1
 332 258 l 2,65,66
 332 265 332 265 337.5 270 c 128,-1,55
 343 275 343 275 350 275 c 128,-1,56
350 600 m 0,67,68
 420 600 420 600 474 557 c 128,-1,69
 528 514 528 514 544 449 c 1,70,71
 589 442 589 442 619.5 407 c 128,-1,72
 650 372 650 372 650 325 c 0,73,74
 650 273 650 273 613.5 236.5 c 128,-1,75
 577 200 577 200 525 200 c 2,76,-1
 512 200 l 1,77,-1
 512 235 l 1,78,-1
 525 235 l 2,79,80
 562 235 562 235 588.5 261.5 c 128,-1,81
 615 288 615 288 615 325 c 128,-1,82
 615 362 615 362 588.5 388.5 c 128,-1,83
 562 415 562 415 525 415 c 0,84,85
 490 415 490 415 464 392 c 1,86,-1
 440 416 l 1,87,88
 469 443 469 443 508 449 c 1,89,90
 497 482 497 482 474 508.5 c 128,-1,91
 451 535 451 535 418.5 550 c 128,-1,92
 386 565 386 565 350 565 c 0,93,94
 300 565 300 565 259 537.5 c 128,-1,95
 218 510 218 510 198 465 c 1,96,97
 151 464 151 464 118 430.5 c 128,-1,98
 85 397 85 397 85 350 c 0,99,100
 85 306 85 306 114.5 273 c 128,-1,101
 144 240 144 240 188 236 c 1,102,-1
 188 201 l 1,103,104
 130 205 130 205 90 248 c 128,-1,105
 50 291 50 291 50 350 c 0,106,107
 50 406 50 406 86 447.5 c 128,-1,108
 122 489 122 489 176 498 c 1,109,110
 202 544 202 544 248.5 572 c 128,-1,111
 295 600 295 600 350 600 c 0,67,68
252.5 315 m 128,-1,113
 260 315 260 315 265 310 c 128,-1,114
 270 305 270 305 270 298 c 2,115,-1
 270 220 l 2,116,117
 270 213 270 213 265 207.5 c 128,-1,118
 260 202 260 202 252 202 c 0,119,120
 248 202 248 202 244 204.5 c 128,-1,121
 240 207 240 207 237.5 211 c 128,-1,122
 235 215 235 215 235 220 c 2,123,-1
 235 298 l 2,124,125
 235 305 235 305 240 310 c 128,-1,112
 245 315 245 315 252.5 315 c 128,-1,113
EndSplineSet
EndChar

StartChar: h
Encoding: 104 104 47
Width: 700
GlyphClass: 2
Flags: W
LayerCount: 2
Fore
SplineSet
350 600 m 0,0,1
 420 600 420 600 474 557 c 128,-1,2
 528 514 528 514 544 449 c 1,3,4
 589 442 589 442 619.5 407 c 128,-1,5
 650 372 650 372 650 325 c 0,6,7
 650 273 650 273 613.5 236.5 c 128,-1,8
 577 200 577 200 525 200 c 2,9,-1
 505 200 l 1,10,-1
 505 235 l 1,11,-1
 525 235 l 2,12,13
 562 235 562 235 588.5 261.5 c 128,-1,14
 615 288 615 288 615 325 c 128,-1,15
 615 362 615 362 588.5 388.5 c 128,-1,16
 562 415 562 415 525 415 c 0,17,18
 490 415 490 415 464 392 c 1,19,-1
 440 416 l 1,20,21
 469 443 469 443 508 449 c 1,22,23
 497 482 497 482 474 508.5 c 128,-1,24
 451 535 451 535 418.5 550 c 128,-1,25
 386 565 386 565 350 565 c 0,26,27
 300 565 300 565 259 537.5 c 128,-1,28
 218 510 218 510 198 465 c 1,29,30
 151 464 151 464 118 430.5 c 128,-1,31
 85 397 85 397 85 350 c 0,32,33
 85 304 85 304 117 270.5 c 128,-1,34
 149 237 149 237 195 235 c 1,35,-1
 195 200 l 1,36,37
 155 201 155 201 122 221.5 c 128,-1,38
 89 242 89 242 69.5 276 c 128,-1,39
 50 310 50 310 50 350 c 0,40,41
 50 406 50 406 86 447.5 c 128,-1,42
 122 489 122 489 176 498 c 1,43,44
 202 544 202 544 248.5 572 c 128,-1,45
 295 600 295 600 350 600 c 0,0,1
412 110 m 2,46,-1
 537 110 l 2,47,48
 544 110 544 110 544 102.5 c 128,-1,49
 544 95 544 95 537 95 c 2,50,-1
 412 95 l 2,51,52
 404 95 404 95 404 102.5 c 128,-1,53
 404 110 404 110 412 110 c 2,46,-1
436 52 m 2,54,-1
 499 161 l 2,55,56
 503 167 503 167 509.5 163.5 c 128,-1,57
 516 160 516 160 512 153 c 2,58,-1
 449 45 l 2,59,60
 446 38 446 38 439.5 42 c 128,-1,61
 433 46 433 46 436 52 c 2,54,-1
499 45 m 2,62,-1
 436 153 l 2,63,64
 433 160 433 160 439.5 163.5 c 128,-1,65
 446 167 446 167 449 161 c 2,66,-1
 512 52 l 2,67,68
 516 46 516 46 509.5 42 c 128,-1,69
 503 38 503 38 499 45 c 2,62,-1
175 83 m 2,70,-1
 298 62 l 2,71,72
 305 60 305 60 303.5 53 c 128,-1,73
 302 46 302 46 295 47 c 2,74,-1
 172 69 l 2,75,76
 165 70 165 70 166 77.5 c 128,-1,77
 167 85 167 85 175 83 c 2,70,-1
189 22 m 2,78,-1
 269 118 l 2,79,80
 274 124 274 124 279.5 119 c 128,-1,81
 285 114 285 114 281 108 c 2,82,-1
 200 13 l 2,83,84
 196 7 196 7 190 11.5 c 128,-1,85
 184 16 184 16 189 22 c 2,78,-1
249 4 m 2,86,-1
 206 121 l 2,87,88
 204 128 204 128 211 131 c 128,-1,89
 218 134 218 134 220 127 c 2,90,-1
 263 9 l 2,91,92
 266 2 266 2 259 -0.5 c 128,-1,93
 252 -3 252 -3 249 4 c 2,86,-1
287 242 m 2,94,-1
 410 264 l 2,95,96
 418 265 418 265 419 258 c 128,-1,97
 420 251 420 251 413 249 c 2,98,-1
 290 228 l 2,99,100
 282 226 282 226 281 233.5 c 128,-1,101
 280 241 280 241 287 242 c 2,94,-1
322 190 m 2,102,-1
 364 307 l 2,103,104
 367 314 367 314 374 311.5 c 128,-1,105
 381 309 381 309 378 302 c 2,106,-1
 336 184 l 2,107,108
 333 177 333 177 326 180 c 128,-1,109
 319 183 319 183 322 190 c 2,102,-1
384 193 m 2,110,-1
 304 289 l 2,111,112
 299 295 299 295 305 299.5 c 128,-1,113
 311 304 311 304 316 298 c 2,114,-1
 396 203 l 2,115,116
 401 197 401 197 395 192 c 128,-1,117
 389 187 389 187 384 193 c 2,110,-1
EndSplineSet
EndChar

StartChar: i
Encoding: 105 105 48
Width: 700
GlyphClass: 2
Flags: W
LayerCount: 2
Fore
SplineSet
290 280 m 1,0,-1
 316 280 l 1,1,-1
 283 158 l 1,2,-1
 295 158 l 1,3,-1
 321 158 l 1,4,-1
 314 133 l 1,5,-1
 314 132 l 1,6,-1
 301 84 l 1,7,-1
 357 140 l 1,8,-1
 389 171 l 1,9,-1
 383 171 l 1,10,-1
 354 171 l 1,11,-1
 369 196 l 1,12,-1
 417 280 l 1,13,-1
 446 280 l 1,14,-1
 397 196 l 1,15,-1
 416 196 l 1,16,-1
 449 196 l 1,17,-1
 424 171 l 1,18,-1
 384 131 l 1,19,-1
 345 92 l 1,20,-1
 288 35 l 1,21,-1
 253 0 l 1,22,-1
 265 48 l 1,23,-1
 278 97 l 1,24,-1
 288 133 l 1,25,-1
 276 133 l 1,26,-1
 251 133 l 1,27,-1
 257 158 l 1,28,-1
 290 280 l 1,0,-1
350 600 m 0,29,30
 420 600 420 600 474 557 c 128,-1,31
 528 514 528 514 544 449 c 1,32,33
 589 442 589 442 619.5 407 c 128,-1,34
 650 372 650 372 650 325 c 0,35,36
 650 273 650 273 613.5 236.5 c 128,-1,37
 577 200 577 200 525 200 c 2,38,-1
 505 200 l 1,39,-1
 505 235 l 1,40,-1
 525 235 l 2,41,42
 562 235 562 235 588.5 261.5 c 128,-1,43
 615 288 615 288 615 325 c 128,-1,44
 615 362 615 362 588.5 388.5 c 128,-1,45
 562 415 562 415 525 415 c 0,46,47
 490 415 490 415 464 392 c 1,48,-1
 440 416 l 1,49,50
 469 443 469 443 508 449 c 1,51,52
 497 482 497 482 474 508.5 c 128,-1,53
 451 535 451 535 418.5 550 c 128,-1,54
 386 565 386 565 350 565 c 0,55,56
 300 565 300 565 259 537.5 c 128,-1,57
 218 510 218 510 198 465 c 1,58,59
 151 464 151 464 118 430.5 c 128,-1,60
 85 397 85 397 85 350 c 0,61,62
 85 304 85 304 117 270.5 c 128,-1,63
 149 237 149 237 195 235 c 1,64,-1
 195 200 l 1,65,66
 135 202 135 202 92.5 245.5 c 128,-1,67
 50 289 50 289 50 350 c 0,68,69
 50 406 50 406 86 447.5 c 128,-1,70
 122 489 122 489 176 498 c 1,71,72
 202 544 202 544 248.5 572 c 128,-1,73
 295 600 295 600 350 600 c 0,29,30
EndSplineSet
EndChar

StartChar: j
Encoding: 106 106 49
Width: 684
GlyphClass: 2
Flags: W
LayerCount: 2
Fore
SplineSet
350.5 460 m 128,-1,1
 394 460 394 460 431 438.5 c 128,-1,2
 468 417 468 417 489.5 380 c 128,-1,3
 511 343 511 343 511 300 c 0,4,5
 511 234 511 234 464 187 c 128,-1,6
 417 140 417 140 350.5 140 c 128,-1,7
 284 140 284 140 237.5 187 c 128,-1,8
 191 234 191 234 191 300 c 0,9,10
 191 343 191 343 212.5 380 c 128,-1,11
 234 417 234 417 270.5 438.5 c 128,-1,0
 307 460 307 460 350.5 460 c 128,-1,1
350.5 425 m 128,-1,13
 299 425 299 425 262.5 388.5 c 128,-1,14
 226 352 226 352 226 300 c 128,-1,15
 226 248 226 248 262.5 211.5 c 128,-1,16
 299 175 299 175 350.5 175 c 128,-1,17
 402 175 402 175 439 211.5 c 128,-1,18
 476 248 476 248 476 300 c 128,-1,19
 476 352 476 352 439 388.5 c 128,-1,12
 402 425 402 425 350.5 425 c 128,-1,13
300 597 m 2,20,21
 301 597 301 597 301 597 c 1,22,-1
 302 597 l 1,23,24
 302 597 302 597 302.5 596.5 c 128,-1,25
 303 596 303 596 303 596 c 257,26,27
 303 596 303 596 304 596 c 2,28,29
 304 596 304 596 305 595 c 2,30,-1
 306 595 l 1,31,32
 306 594 306 594 307 594 c 1,33,34
 307 593 307 593 307 593 c 129,-1,35
 307 593 307 593 307 592 c 1,36,-1
 308 592 l 1,37,-1
 308 591 l 1,38,-1
 339 505 l 1,39,-1
 340 504 l 1,40,-1
 340 504 l 1,41,-1
 340 503 l 1,42,-1
 340 502 l 1,43,44
 340 502 340 502 340 501.5 c 128,-1,45
 340 501 340 501 340 501 c 257,46,47
 340 501 340 501 340 500.5 c 128,-1,48
 340 500 340 500 340 500 c 1,49,-1
 340 499 l 1,50,51
 339 499 339 499 339 499 c 129,-1,52
 339 499 339 499 339 498.5 c 128,-1,53
 339 498 339 498 339 498 c 1,54,-1
 338 497 l 1,55,-1
 338 497 l 1,56,-1
 338 496 l 1,57,58
 337 496 337 496 337 496 c 129,-1,59
 337 496 337 496 337 496 c 1,60,-1
 336 496 l 1,61,-1
 336 495 l 1,62,63
 335 495 335 495 334 495 c 2,64,-1
 302 489 l 1,65,-1
 301 489 l 1,66,-1
 301 489 l 1,67,-1
 301 489 l 1,68,69
 301 489 301 489 300 489 c 2,70,71
 300 489 300 489 299 489 c 2,72,73
 299 489 299 489 298 489 c 1,74,-1
 298 489 l 1,75,76
 297 490 297 490 297 490 c 1,77,-1
 296 490 l 1,78,-1
 296 491 l 1,79,80
 295 491 295 491 295 491 c 1,81,-1
 295 491 l 1,82,83
 295 491 295 491 295 492 c 1,84,-1
 294 492 l 1,85,86
 294 492 294 492 294 493 c 2,87,-1
 294 494 l 1,88,-1
 293 495 l 1,89,-1
 293 496 l 1,90,-1
 293 497 l 1,91,-1
 293 589 l 1,92,-1
 293 589 l 1,93,-1
 293 590 l 1,94,95
 293 590 293 590 293 591 c 1,96,-1
 293 591 l 1,97,98
 294 591 294 591 294 592 c 2,99,100
 294 592 294 592 294 593 c 1,101,-1
 294 593 l 1,102,-1
 295 593 l 1,103,-1
 295 594 l 1,104,105
 295 594 295 594 295 594 c 1,106,-1
 296 595 l 1,107,108
 296 595 296 595 296 595 c 1,109,-1
 297 595 l 1,110,-1
 297 596 l 1,111,112
 298 596 298 596 298 596 c 129,-1,113
 298 596 298 596 299 596 c 0,114,115
 300 597 300 597 300 597 c 2,20,21
122 495 m 1,116,117
 122 495 122 495 122 495 c 1,118,-1
 122 496 l 1,119,120
 123 496 123 496 123.5 496 c 128,-1,121
 124 496 124 496 124 496 c 1,122,-1
 124 497 l 1,123,124
 125 497 125 497 126 497 c 2,125,-1
 127 497 l 2,126,127
 128 497 128 497 128 497 c 257,128,129
 128 497 128 497 128.5 496.5 c 128,-1,130
 129 496 129 496 130 496 c 1,131,-1
 130 496 l 1,132,-1
 131 496 l 1,133,-1
 210 450 l 1,134,-1
 211 449 l 1,135,-1
 211 449 l 1,136,-1
 212 449 l 1,137,-1
 212 448 l 1,138,139
 213 448 213 448 213 448 c 1,140,-1
 213 447 l 1,141,-1
 213 447 l 1,142,143
 213 447 213 447 213.5 446.5 c 128,-1,144
 214 446 214 446 214 445.5 c 128,-1,145
 214 445 214 445 214 445 c 129,-1,146
 214 445 214 445 214 444.5 c 128,-1,147
 214 444 214 444 214 444 c 1,148,-1
 214 443 l 1,149,-1
 214 443 l 1,150,151
 214 443 214 443 214 442 c 256,152,153
 214 441 214 441 214 441 c 257,154,155
 214 441 214 441 214 441 c 1,156,-1
 214 440 l 2,157,158
 213 439 213 439 213 438 c 2,159,-1
 192 414 l 1,160,-1
 192 413 l 1,161,-1
 191 413 l 1,162,-1
 191 413 l 1,163,-1
 191 412 l 1,164,165
 191 412 191 412 190 412 c 0,166,167
 189 411 189 411 189 411 c 1,168,-1
 188 411 l 1,169,170
 188 411 188 411 187 411 c 1,171,-1
 187 411 l 1,172,-1
 186 411 l 1,173,-1
 186 411 l 1,174,-1
 185 411 l 1,175,176
 185 411 185 411 184.5 411 c 128,-1,177
 184 411 184 411 184 411 c 129,-1,178
 184 411 184 411 183.5 411 c 128,-1,179
 183 411 183 411 183 412 c 1,180,181
 182 412 182 412 182 412 c 1,182,-1
 181 413 l 1,183,184
 181 413 181 413 180 413 c 1,185,-1
 180 414 l 1,186,-1
 121 484 l 1,187,-1
 121 485 l 1,188,-1
 120 485 l 1,189,190
 120 485 120 485 120 486 c 1,191,-1
 120 486 l 1,192,193
 120 486 120 486 120 487 c 1,194,-1
 119 487 l 1,195,196
 119 487 119 487 119 488 c 1,197,-1
 119 488 l 1,198,-1
 119 489 l 1,199,-1
 119 489 l 1,200,201
 119 490 119 490 119 490 c 1,202,-1
 119 490 l 1,203,204
 119 491 119 491 119 491 c 129,-1,205
 119 491 119 491 119 492 c 1,206,-1
 120 492 l 1,207,208
 120 493 120 493 120 493 c 129,-1,209
 120 493 120 493 120 494 c 1,210,-1
 121 494 l 1,211,212
 121 494 121 494 121 495 c 1,213,-1
 122 495 l 1,116,117
50 302 m 1,214,215
 50 302 50 302 50 303 c 1,216,-1
 50 303 l 1,217,218
 50 303 50 303 50.5 303.5 c 128,-1,219
 51 304 51 304 51 304 c 1,220,-1
 51 305 l 2,221,222
 51 306 51 306 52 306 c 1,223,-1
 52 307 l 1,224,-1
 53 307 l 1,225,226
 53 307 53 307 54 308 c 2,227,228
 54 308 54 308 55 308 c 1,229,-1
 55 308 l 1,230,231
 56 308 56 308 56 308 c 1,232,-1
 147 324 l 1,233,-1
 147 325 l 1,234,-1
 148 325 l 1,235,-1
 149 325 l 1,236,-1
 149 325 l 1,237,-1
 150 325 l 1,238,239
 150 325 150 325 150.5 324.5 c 128,-1,240
 151 324 151 324 151 324 c 257,241,242
 151 324 151 324 151.5 324 c 128,-1,243
 152 324 152 324 152.5 324 c 128,-1,244
 153 324 153 324 153 323.5 c 128,-1,245
 153 323 153 323 153 323 c 1,246,-1
 154 323 l 1,247,248
 154 323 154 323 154 322 c 1,249,-1
 154 322 l 1,250,-1
 155 322 l 1,251,252
 155 322 155 322 155 321 c 1,253,254
 155 321 155 321 155 321 c 1,255,256
 155 320 155 320 156 320 c 1,257,258
 156 320 156 320 156 319 c 256,259,260
 156 318 156 318 156 317 c 2,261,-1
 156 285 l 1,262,-1
 156 284 l 1,263,-1
 156 284 l 1,264,-1
 156 284 l 1,265,-1
 156 283 l 2,266,267
 156 282 156 282 156 282 c 1,268,269
 155 282 155 282 155 281 c 1,270,-1
 155 281 l 1,271,272
 154 280 154 280 154 280 c 1,273,-1
 154 279 l 1,274,-1
 153 279 l 1,275,276
 153 279 153 279 153 279 c 1,277,-1
 153 279 l 1,278,279
 152 278 152 278 152 278 c 1,280,-1
 152 278 l 1,281,282
 151 278 151 278 151 278 c 129,-1,283
 151 278 151 278 150 278 c 1,284,285
 150 277 150 277 149 277 c 1,286,-1
 149 277 l 1,287,-1
 148 277 l 1,288,289
 148 277 148 277 147 278 c 2,290,-1
 56 294 l 1,291,-1
 56 294 l 1,292,-1
 55 294 l 1,293,294
 55 294 55 294 55 294 c 1,295,-1
 54 294 l 1,296,297
 54 294 54 294 54 294 c 1,298,-1
 53 295 l 1,299,-1
 53 295 l 1,300,-1
 52 295 l 1,301,-1
 52 296 l 1,302,-1
 52 296 l 1,303,304
 51 296 51 296 51 296.5 c 128,-1,305
 51 297 51 297 51 297 c 129,-1,306
 51 297 51 297 51 298 c 1,307,-1
 50 298 l 1,308,-1
 50 299 l 1,309,310
 50 299 50 299 50 300 c 2,311,-1
 50 301 l 1,312,-1
 50 302 l 1,214,215
119 108 m 257,313,314
 119 108 119 108 119 109 c 1,315,-1
 118 109 l 1,316,317
 118 109 118 109 118 109.5 c 128,-1,318
 118 110 118 110 118 111 c 1,319,-1
 118 111 l 1,320,321
 118 112 118 112 118 113 c 2,322,-1
 118 114 l 2,323,324
 118 115 118 115 118 115 c 257,325,326
 118 115 118 115 119 116 c 2,327,-1
 119 117 l 1,328,329
 119 117 119 117 120 117 c 2,330,-1
 179 188 l 1,331,-1
 179 188 l 1,332,-1
 180 188 l 1,333,-1
 180 189 l 1,334,-1
 180 189 l 1,335,-1
 181 189 l 1,336,337
 181 189 181 189 181 190 c 1,338,-1
 182 190 l 1,339,-1
 182 190 l 1,340,341
 182 190 182 190 182.5 190.5 c 128,-1,342
 183 191 183 191 183 191 c 1,343,-1
 184 191 l 1,344,-1
 184 191 l 1,345,346
 185 191 185 191 185 191 c 129,-1,347
 185 191 185 191 186 191 c 1,348,-1
 186 191 l 1,349,350
 187 191 187 191 187 190 c 1,351,352
 188 190 188 190 188 190 c 257,353,354
 188 190 188 190 188 190 c 1,355,-1
 189 190 l 1,356,357
 189 190 189 190 189 189 c 1,358,359
 190 189 190 189 191 188 c 2,360,-1
 211 164 l 1,361,-1
 211 163 l 1,362,-1
 212 163 l 1,363,-1
 212 162 l 1,364,-1
 212 162 l 1,365,366
 213 161 213 161 213 161 c 2,367,368
 213 160 213 160 213 160 c 1,369,-1
 213 159 l 1,370,371
 213 159 213 159 213 158 c 1,372,-1
 213 158 l 1,373,-1
 213 157 l 1,374,375
 213 157 213 157 213 157 c 1,376,-1
 213 156 l 1,377,378
 212 156 212 156 212 155.5 c 128,-1,379
 212 155 212 155 212 154.5 c 128,-1,380
 212 154 212 154 212 154 c 1,381,-1
 211 154 l 1,382,383
 211 154 211 154 211 153 c 1,384,-1
 210 153 l 1,385,-1
 210 152 l 1,386,387
 210 152 210 152 209 152 c 2,388,-1
 129 106 l 1,389,-1
 129 105 l 1,390,-1
 128 105 l 1,391,392
 128 105 128 105 128 105 c 1,393,-1
 127 105 l 1,394,395
 127 105 127 105 127 105 c 1,396,-1
 126 105 l 1,397,-1
 125 105 l 1,398,-1
 125 105 l 1,399,-1
 124 105 l 1,400,401
 124 105 124 105 123 105 c 1,402,-1
 123 105 l 1,403,404
 123 105 123 105 122 105 c 1,405,-1
 122 105 l 1,406,407
 122 105 122 105 121 106 c 2,408,409
 121 106 121 106 120.5 106.5 c 128,-1,410
 120 107 120 107 120 107 c 2,411,412
 119 108 119 108 119 108 c 257,313,314
297 4 m 2,413,414
 296 4 296 4 296 4 c 1,415,-1
 295 5 l 1,416,417
 295 5 295 5 294.5 5 c 128,-1,418
 294 5 294 5 294 5 c 1,419,-1
 294 6 l 1,420,421
 293 6 293 6 293 7 c 1,422,-1
 292 7 l 1,423,-1
 292 8 l 1,424,425
 292 8 292 8 292 9 c 2,426,427
 292 9 292 9 291 10 c 2,428,-1
 291 11 l 1,429,-1
 291 12 l 1,430,-1
 291 104 l 1,431,-1
 291 104 l 1,432,-1
 291 105 l 1,433,-1
 291 105 l 1,434,-1
 291 106 l 1,435,-1
 292 106 l 1,436,437
 292 106 292 106 292 106.5 c 128,-1,438
 292 107 292 107 292 108 c 1,439,440
 292 108 292 108 292 108 c 1,441,-1
 293 108 l 1,442,443
 293 109 293 109 293 109 c 129,-1,444
 293 109 293 109 293.5 109.5 c 128,-1,445
 294 110 294 110 294 110 c 129,-1,446
 294 110 294 110 294 110 c 1,447,-1
 295 110 l 1,448,-1
 295 111 l 1,449,450
 295 111 295 111 296 111 c 1,451,452
 296 111 296 111 296 111 c 1,453,-1
 297 111 l 1,454,-1
 297 111 l 1,455,-1
 298 111 l 2,456,457
 299 112 299 112 300 111 c 2,458,-1
 331 106 l 1,459,-1
 332 106 l 1,460,-1
 333 106 l 1,461,-1
 333 105 l 1,462,463
 333 105 333 105 334 105 c 256,464,465
 335 105 335 105 335 104.5 c 128,-1,466
 335 104 335 104 336 104 c 1,467,468
 336 103 336 103 337 103 c 1,469,-1
 337 103 l 1,470,-1
 337 102 l 1,471,472
 337 102 337 102 337 102 c 1,473,-1
 337 101 l 1,474,475
 337 101 337 101 337.5 100.5 c 128,-1,476
 338 100 338 100 338 100 c 129,-1,477
 338 100 338 100 338 99.5 c 128,-1,478
 338 99 338 99 338 99 c 2,479,480
 338 98 338 98 338 98 c 1,481,-1
 338 97 l 1,482,-1
 338 97 l 1,483,484
 338 96 338 96 338 96 c 1,485,-1
 337 96 l 1,486,-1
 306 9 l 1,487,-1
 306 8 l 1,488,-1
 305 8 l 1,489,490
 305 8 305 8 305 7 c 1,491,-1
 305 7 l 1,492,493
 305 7 305 7 305 6 c 1,494,-1
 304 6 l 1,495,-1
 304 6 l 1,496,-1
 303 5 l 1,497,-1
 303 5 l 1,498,-1
 302 5 l 1,499,500
 302 5 302 5 302 4 c 1,501,-1
 302 4 l 1,502,503
 301 4 301 4 301 4 c 1,504,-1
 300 4 l 1,505,-1
 300 4 l 1,506,507
 299 4 299 4 299 4 c 129,-1,508
 299 4 299 4 298 4 c 256,509,510
 297 4 297 4 297 4 c 2,413,414
499 39 m 1,511,512
 499 38 499 38 499 38 c 1,513,-1
 498 38 l 1,514,515
 498 38 498 38 497.5 38 c 128,-1,516
 497 38 497 38 497 38 c 1,517,-1
 496 38 l 2,518,519
 495 38 495 38 494 38 c 1,520,-1
 494 38 l 1,521,522
 493 39 493 39 492 39 c 2,523,524
 492 39 492 39 491.5 39.5 c 128,-1,525
 491 40 491 40 491 40 c 257,526,527
 491 40 491 40 491 41 c 2,528,-1
 431 111 l 1,529,-1
 431 112 l 1,530,-1
 431 112 l 1,531,-1
 430 113 l 1,532,-1
 430 113 l 1,533,-1
 430 114 l 1,534,-1
 430 114 l 1,535,536
 430 115 430 115 430 115 c 257,537,538
 430 115 430 115 429.5 115.5 c 128,-1,539
 429 116 429 116 429 116.5 c 128,-1,540
 429 117 429 117 429 117 c 129,-1,541
 429 117 429 117 429 118 c 1,542,-1
 430 118 l 1,543,-1
 430 119 l 1,544,-1
 430 119 l 1,545,546
 430 119 430 119 430 120 c 1,547,548
 430 120 430 120 430 120 c 1,549,-1
 431 121 l 1,550,-1
 431 121 l 1,551,-1
 431 122 l 1,552,553
 432 122 432 122 433 123 c 2,554,-1
 461 139 l 1,555,-1
 462 139 l 1,556,-1
 462 140 l 1,557,-1
 462 140 l 1,558,559
 462 140 462 140 463 140 c 2,560,561
 463 140 463 140 464 140 c 256,562,563
 465 140 465 140 465 140 c 2,564,565
 466 140 466 140 467 140 c 1,566,-1
 467 140 l 1,567,-1
 468 140 l 1,568,-1
 468 139 l 1,569,-1
 468 139 l 1,570,571
 468 139 468 139 469 139 c 1,572,-1
 469 139 l 1,573,574
 469 138 469 138 470 138 c 1,575,-1
 470 138 l 1,576,577
 471 137 471 137 471 137 c 1,578,-1
 471 136 l 1,579,-1
 472 136 l 1,580,581
 472 136 472 136 472 135 c 2,582,-1
 503 48 l 1,583,-1
 504 48 l 1,584,-1
 504 47 l 1,585,586
 504 47 504 47 504 47 c 1,587,-1
 504 46 l 1,588,589
 504 46 504 46 504 45 c 2,590,591
 504 45 504 45 504 44 c 1,592,-1
 504 44 l 1,593,-1
 504 43 l 1,594,-1
 504 43 l 1,595,596
 503 43 503 43 503 42 c 1,597,-1
 503 42 l 1,598,599
 503 42 503 42 503 41 c 1,600,-1
 503 41 l 1,601,-1
 502 41 l 1,602,-1
 502 40 l 1,603,604
 502 40 502 40 501.5 40 c 128,-1,605
 501 40 501 40 501 39 c 1,606,-1
 500 39 l 1,607,-1
 499 39 l 1,511,512
633 195 m 1,608,609
 633 195 633 195 632 195 c 1,610,-1
 632 194 l 1,611,612
 632 194 632 194 631.5 193.5 c 128,-1,613
 631 193 631 193 631 193 c 1,614,-1
 631 193 l 1,615,616
 630 192 630 192 629 192 c 2,617,-1
 628 192 l 1,618,619
 628 191 628 191 627 191 c 2,620,-1
 626 191 l 1,621,622
 626 191 626 191 625 191 c 1,623,624
 625 191 625 191 625 191 c 1,625,-1
 624 191 l 1,626,-1
 534 207 l 1,627,-1
 533 207 l 1,628,-1
 533 208 l 1,629,-1
 532 208 l 1,630,-1
 531 208 l 1,631,632
 531 208 531 208 531 208 c 1,633,-1
 531 209 l 1,634,635
 530 209 530 209 530 209 c 129,-1,636
 530 209 530 209 530 209 c 1,637,-1
 529 209 l 1,638,639
 529 210 529 210 529 210 c 129,-1,640
 529 210 529 210 529 210 c 1,641,-1
 529 211 l 1,642,643
 528 211 528 211 528 211 c 129,-1,644
 528 211 528 211 528 212 c 1,645,-1
 528 212 l 1,646,647
 528 213 528 213 527 213 c 1,648,649
 527 214 527 214 527 214 c 257,650,651
 527 214 527 214 527 214 c 1,652,-1
 527 215 l 1,653,-1
 527 215 l 1,654,655
 527 216 527 216 528 217 c 2,656,-1
 528 218 l 1,657,-1
 539 247 l 1,658,-1
 539 248 l 1,659,-1
 539 248 l 1,660,-1
 539 249 l 1,661,-1
 539 249 l 1,662,663
 539 249 539 249 540 250 c 2,664,665
 540 250 540 250 541 251 c 1,666,-1
 541 251 l 1,667,668
 542 252 542 252 542 252 c 1,669,-1
 543 252 l 1,670,671
 543 252 543 252 543.5 252 c 128,-1,672
 544 252 544 252 544 252 c 1,673,-1
 544 252 l 1,674,675
 544 252 544 252 545 253 c 1,676,-1
 545 253 l 1,677,678
 546 253 546 253 546 253 c 129,-1,679
 546 253 546 253 547 253 c 1,680,681
 547 252 547 252 548 252 c 1,682,683
 548 252 548 252 548 252 c 1,684,-1
 549 252 l 1,685,-1
 550 251 l 1,686,-1
 629 205 l 1,687,-1
 630 205 l 1,688,-1
 630 205 l 1,689,690
 631 205 631 205 631 204 c 1,691,-1
 631 204 l 1,692,693
 632 204 632 204 632 204 c 1,694,-1
 632 203 l 1,695,-1
 632 203 l 1,696,-1
 633 202 l 1,697,-1
 633 202 l 1,698,-1
 633 201 l 1,699,-1
 633 200 l 1,700,701
 633 200 633 200 633 200 c 1,702,-1
 634 199 l 1,703,-1
 634 199 l 1,704,-1
 634 198 l 1,705,706
 633 198 633 198 633 197 c 2,707,-1
 633 196 l 1,708,-1
 633 195 l 1,608,609
634 401 m 1,709,710
 634 401 634 401 634 400 c 1,711,-1
 634 400 l 1,712,713
 634 400 634 400 634 399.5 c 128,-1,714
 634 399 634 399 634 398 c 1,715,-1
 634 398 l 1,716,717
 634 397 634 397 633 396 c 2,718,-1
 633 395 l 1,719,720
 633 395 633 395 632 394 c 256,721,722
 631 393 631 393 631 393 c 257,723,724
 631 393 631 393 630 393 c 2,725,-1
 550 347 l 1,726,-1
 550 347 l 1,727,-1
 550 346 l 1,728,-1
 549 346 l 1,729,-1
 549 346 l 1,730,-1
 548 346 l 1,731,732
 548 346 548 346 547.5 346 c 128,-1,733
 547 346 547 346 547 346 c 257,734,735
 547 346 547 346 546 346 c 128,-1,736
 545 346 545 346 545 346 c 129,-1,737
 545 346 545 346 545 346 c 1,738,-1
 544 346 l 1,739,-1
 544 346 l 1,740,741
 544 346 544 346 543 346 c 1,742,-1
 543 347 l 1,743,-1
 542 347 l 1,744,-1
 542 347 l 1,745,746
 541 347 541 347 541 347 c 1,747,-1
 541 348 l 1,748,-1
 541 348 l 1,749,-1
 540 348 l 1,750,-1
 540 349 l 1,751,752
 540 349 540 349 539 350 c 2,753,-1
 539 351 l 1,754,-1
 528 380 l 1,755,-1
 528 381 l 1,756,-1
 528 381 l 1,757,-1
 528 382 l 1,758,-1
 528 382 l 1,759,760
 528 382 528 382 528 383 c 256,761,762
 528 384 528 384 528 384 c 2,763,764
 528 385 528 385 528 385 c 2,765,766
 528 386 528 386 528 386 c 1,767,-1
 529 386 l 1,768,-1
 529 387 l 1,769,770
 529 387 529 387 529 387.5 c 128,-1,771
 529 388 529 388 529 388 c 1,772,-1
 529 388 l 1,773,774
 530 388 530 388 530 388.5 c 128,-1,775
 530 389 530 389 530 389 c 129,-1,776
 530 389 530 389 531 389 c 1,777,-1
 531 390 l 1,778,779
 532 390 532 390 532 390 c 1,780,-1
 533 390 l 1,781,-1
 533 391 l 1,782,783
 534 391 534 391 534 391 c 1,784,-1
 625 407 l 1,785,-1
 626 407 l 1,786,-1
 626 407 l 1,787,788
 626 407 626 407 627 407 c 1,789,-1
 627 407 l 1,790,791
 628 407 628 407 628 407 c 2,792,793
 629 407 629 407 629 407 c 1,794,-1
 629 406 l 1,795,-1
 630 406 l 1,796,-1
 631 406 l 1,797,-1
 631 405 l 1,798,799
 631 405 631 405 632 405 c 1,800,-1
 632 405 l 1,801,-1
 632 404 l 1,802,-1
 633 404 l 1,803,804
 633 403 633 403 633 403 c 129,-1,805
 633 403 633 403 634 403 c 1,806,-1
 634 402 l 1,807,-1
 634 401 l 1,709,710
503 560 m 1,808,809
 503 559 503 559 503 559 c 1,810,-1
 504 559 l 1,811,812
 504 559 504 559 504 558.5 c 128,-1,813
 504 558 504 558 505 558 c 1,814,-1
 505 557 l 2,815,816
 505 556 505 556 506 555 c 1,817,-1
 506 555 l 1,818,819
 506 554 506 554 506 553 c 2,820,821
 506 553 506 553 506 552 c 1,822,-1
 505 552 l 1,823,824
 505 551 505 551 505 551 c 1,825,-1
 474 464 l 1,826,-1
 474 464 l 1,827,-1
 473 463 l 1,828,-1
 473 463 l 1,829,-1
 473 462 l 1,830,-1
 472 462 l 1,831,832
 472 462 472 462 472 461.5 c 128,-1,833
 472 461 472 461 472 461 c 1,834,-1
 471 461 l 1,835,836
 471 461 471 461 471 460.5 c 128,-1,837
 471 460 471 460 470.5 460 c 128,-1,838
 470 460 470 460 469.5 459.5 c 128,-1,839
 469 459 469 459 469 459 c 129,-1,840
 469 459 469 459 468 459 c 1,841,-1
 468 459 l 1,842,843
 467 459 467 459 467 459 c 1,844,-1
 467 459 l 1,845,-1
 466 459 l 1,846,847
 466 459 466 459 466 459 c 1,848,-1
 465 459 l 1,849,-1
 465 459 l 1,850,851
 464 459 464 459 463 460 c 2,852,-1
 435 476 l 1,853,-1
 434 476 l 1,854,-1
 434 477 l 1,855,-1
 434 477 l 1,856,857
 434 477 434 477 433.5 477.5 c 128,-1,858
 433 478 433 478 433 478 c 2,859,860
 432 478 432 478 432 478 c 1,861,862
 432 479 432 479 432 479 c 2,863,864
 432 480 432 480 431 480 c 1,865,-1
 431 481 l 1,866,-1
 431 481 l 1,867,868
 431 481 431 481 431 482 c 1,869,-1
 431 482 l 1,870,871
 431 482 431 482 431 483 c 1,872,-1
 431 483 l 1,873,874
 431 484 431 484 431 484 c 129,-1,875
 431 484 431 484 431 485 c 1,876,-1
 432 485 l 1,877,878
 432 485 432 485 432 486 c 1,879,-1
 432 486 l 1,880,-1
 432 487 l 1,881,882
 433 487 433 487 433 487 c 1,883,-1
 433 488 l 1,884,-1
 492 558 l 1,885,-1
 493 559 l 1,886,-1
 493 559 l 1,887,888
 493 559 493 559 494 559 c 1,889,-1
 494 560 l 1,890,891
 494 560 494 560 494 560 c 1,892,-1
 495 560 l 1,893,894
 495 560 495 560 495 561 c 1,895,-1
 496 561 l 1,896,-1
 496 561 l 1,897,-1
 497 561 l 1,898,899
 497 561 497 561 498 561 c 1,900,-1
 498 561 l 1,901,902
 498 561 498 561 499 561 c 1,903,-1
 499 561 l 1,904,-1
 500 561 l 2,905,906
 501 561 501 561 501 561 c 129,-1,907
 501 561 501 561 501 560 c 1,908,-1
 502 560 l 1,909,-1
 503 560 l 1,808,809
EndSplineSet
EndChar

StartChar: k
Encoding: 107 107 50
Width: 692
GlyphClass: 2
Flags: W
LayerCount: 2
Fore
SplineSet
95 171 m 2,0,-1
 580 171 l 2,1,2
 587 171 587 171 587 163.5 c 128,-1,3
 587 156 587 156 580 156 c 2,4,-1
 95 156 l 2,5,6
 87 156 87 156 87 163.5 c 128,-1,7
 87 171 87 171 95 171 c 2,0,-1
120 121 m 2,8,-1
 555 121 l 2,9,10
 562 121 562 121 562 113.5 c 128,-1,11
 562 106 562 106 555 106 c 2,12,-1
 120 106 l 2,13,14
 112 106 112 106 112 113.5 c 128,-1,15
 112 121 112 121 120 121 c 2,8,-1
195 71 m 2,16,-1
 480 71 l 2,17,18
 487 71 487 71 487 63.5 c 128,-1,19
 487 56 487 56 480 56 c 2,20,-1
 195 56 l 2,21,22
 187 56 187 56 187 63.5 c 128,-1,23
 187 71 187 71 195 71 c 2,16,-1
154 474 m 1,24,25
 154 475 154 475 155 475 c 1,26,-1
 155 475 l 1,27,28
 155 475 155 475 156 475 c 2,29,-1
 157 475 l 2,30,31
 158 476 158 476 159 476 c 1,32,-1
 159 475 l 1,33,-1
 160 475 l 1,34,35
 160 475 160 475 161 475 c 2,36,37
 161 475 161 475 161.5 474.5 c 128,-1,38
 162 474 162 474 162 474 c 2,39,40
 163 474 163 474 163 474 c 1,41,-1
 234 414 l 1,42,-1
 234 414 l 1,43,-1
 234 414 l 1,44,-1
 235 413 l 1,45,46
 235 413 235 413 235 413 c 1,47,-1
 235 412 l 1,48,49
 235 412 235 412 235.5 411.5 c 128,-1,50
 236 411 236 411 236 411 c 257,51,52
 236 411 236 411 236 411 c 1,53,-1
 236 410 l 1,54,-1
 236 410 l 1,55,56
 237 410 237 410 237 409.5 c 128,-1,57
 237 409 237 409 237 408.5 c 128,-1,58
 237 408 237 408 237 408 c 1,59,-1
 236 407 l 1,60,-1
 236 407 l 1,61,62
 236 407 236 407 236 406 c 1,63,64
 236 406 236 406 236 406 c 1,65,66
 236 405 236 405 236 405 c 1,67,-1
 235 404 l 2,68,69
 235 403 235 403 234 403 c 2,70,-1
 209 382 l 1,71,-1
 209 382 l 1,72,-1
 208 381 l 1,73,-1
 208 381 l 1,74,75
 208 381 208 381 207 381 c 0,76,77
 206 380 206 380 206 380 c 129,-1,78
 206 380 206 380 205 380 c 256,79,80
 204 380 204 380 204 380 c 1,81,-1
 204 380 l 1,82,-1
 203 380 l 1,83,84
 203 380 203 380 202 380 c 1,85,-1
 202 381 l 1,86,87
 201 381 201 381 201 381 c 129,-1,88
 201 381 201 381 200.5 381.5 c 128,-1,89
 200 382 200 382 200 382 c 2,90,91
 199 382 199 382 199 382 c 1,92,-1
 199 383 l 1,93,-1
 198 383 l 1,94,95
 198 384 198 384 198 384 c 1,96,-1
 152 464 l 1,97,-1
 151 465 l 1,98,99
 151 465 151 465 151 465 c 129,-1,100
 151 465 151 465 151 466 c 1,101,-1
 151 466 l 1,102,103
 151 466 151 466 151 467 c 2,104,105
 151 467 151 467 151 468 c 1,106,-1
 151 468 l 1,107,-1
 151 469 l 1,108,-1
 151 469 l 1,109,110
 151 470 151 470 151 470 c 1,111,-1
 151 470 l 1,112,113
 151 471 151 471 151 471 c 129,-1,114
 151 471 151 471 151 471 c 1,115,-1
 152 472 l 2,116,117
 152 473 152 473 152 473 c 129,-1,118
 152 473 152 473 153 473 c 1,119,-1
 153 474 l 1,120,121
 153 474 153 474 154 474 c 1,24,25
50 297 m 1,122,123
 50 297 50 297 50 297 c 1,124,-1
 50 298 l 1,125,126
 50 298 50 298 50.5 298.5 c 128,-1,127
 51 299 51 299 51 299 c 1,128,-1
 52 300 l 1,129,130
 52 300 52 300 53 301 c 2,131,-1
 54 301 l 1,132,133
 54 302 54 302 55 302 c 2,134,135
 55 302 55 302 56 302 c 2,136,-1
 57 302 l 1,137,-1
 57 302 l 1,138,-1
 149 302 l 1,139,-1
 150 302 l 1,140,-1
 150 302 l 1,141,-1
 151 302 l 1,142,-1
 151 302 l 1,143,-1
 152 302 l 1,144,145
 152 302 152 302 153 302 c 1,146,-1
 153 301 l 1,147,-1
 153 301 l 1,148,149
 153 301 153 301 153.5 301 c 128,-1,150
 154 301 154 301 154.5 300.5 c 128,-1,151
 155 300 155 300 155 300 c 129,-1,152
 155 300 155 300 155.5 299.5 c 128,-1,153
 156 299 156 299 156 299 c 1,154,-1
 156 298 l 1,155,-1
 156 298 l 1,156,157
 156 298 156 298 157 298 c 1,158,159
 157 297 157 297 157 297 c 1,160,-1
 157 296 l 1,161,162
 157 296 157 296 157 296 c 1,163,164
 157 295 157 295 157 295 c 2,165,166
 157 294 157 294 157 293 c 2,167,-1
 152 262 l 1,168,-1
 152 261 l 1,169,-1
 151 261 l 1,170,-1
 151 260 l 1,171,172
 151 260 151 260 151 260 c 1,173,174
 151 259 151 259 151 259 c 1,175,176
 150 259 150 259 150 258 c 1,177,-1
 150 258 l 1,178,179
 149 257 149 257 149 257 c 1,180,-1
 148 257 l 1,181,-1
 148 256 l 1,182,-1
 147 256 l 1,183,-1
 147 256 l 1,184,185
 146 256 146 256 146 256 c 129,-1,186
 146 256 146 256 145 255 c 2,187,-1
 144 255 l 1,188,-1
 143 255 l 1,189,-1
 142 256 l 1,190,-1
 141 256 l 1,191,-1
 55 287 l 1,192,-1
 55 288 l 1,193,-1
 54 288 l 1,194,-1
 54 288 l 1,195,196
 54 288 54 288 53 288 c 1,197,-1
 53 288 l 1,198,199
 53 289 53 289 52 289 c 1,200,201
 52 289 52 289 52 290 c 1,202,-1
 51 290 l 1,203,-1
 51 290 l 1,204,-1
 51 291 l 1,205,206
 50 291 50 291 50 291 c 1,207,-1
 50 292 l 1,208,209
 50 292 50 292 50 292 c 1,210,-1
 50 293 l 1,211,-1
 50 293 l 1,212,-1
 50 294 l 1,213,214
 50 294 50 294 50 295 c 2,215,-1
 50 296 l 1,216,-1
 50 297 l 1,122,123
642 293 m 2,217,218
 642 293 642 293 642 292 c 1,219,-1
 642 292 l 1,220,221
 642 292 642 292 642 291 c 128,-1,222
 642 290 642 290 642 290 c 1,223,-1
 642 290 l 1,224,225
 642 289 642 289 641 288 c 1,226,-1
 641 288 l 1,227,228
 640 287 640 287 639 287 c 1,229,230
 639 286 639 286 638.5 286 c 128,-1,231
 638 286 638 286 638 286 c 1,232,-1
 637 286 l 1,233,-1
 637 285 l 1,234,-1
 551 254 l 1,235,-1
 550 254 l 1,236,237
 550 254 550 254 550 254 c 1,238,-1
 549 253 l 1,239,-1
 548 253 l 1,240,241
 548 253 548 253 548 253 c 1,242,-1
 547 253 l 1,243,-1
 547 253 l 1,244,245
 547 253 547 253 546.5 253.5 c 128,-1,246
 546 254 546 254 545.5 254 c 128,-1,247
 545 254 545 254 544.5 254 c 128,-1,248
 544 254 544 254 544 254.5 c 128,-1,249
 544 255 544 255 543 255 c 1,250,-1
 543 255 l 1,251,252
 543 255 543 255 542.5 255.5 c 128,-1,253
 542 256 542 256 542 256 c 129,-1,254
 542 256 542 256 541 257 c 1,255,-1
 541 257 l 1,256,-1
 541 258 l 2,257,258
 541 259 541 259 540 260 c 2,259,-1
 535 291 l 1,260,-1
 535 292 l 1,261,-1
 535 292 l 1,262,-1
 535 293 l 1,263,264
 535 293 535 293 535 293 c 1,265,266
 535 294 535 294 535 294 c 2,267,268
 535 295 535 295 535 295 c 1,269,-1
 535 296 l 1,270,271
 536 296 536 296 536 297 c 1,272,-1
 536 297 l 1,273,-1
 537 298 l 1,274,-1
 537 298 l 1,275,276
 537 298 537 298 537.5 298.5 c 128,-1,277
 538 299 538 299 538 299 c 129,-1,278
 538 299 538 299 538.5 299 c 128,-1,279
 539 299 539 299 539 300 c 1,280,281
 540 300 540 300 540 300 c 1,282,-1
 541 300 l 1,283,-1
 541 300 l 1,284,285
 542 300 542 300 542 300 c 1,286,-1
 635 300 l 1,287,-1
 635 300 l 1,288,-1
 636 300 l 1,289,290
 636 300 636 300 636 300 c 1,291,-1
 637 300 l 1,292,293
 637 300 637 300 637 300 c 1,294,-1
 638 300 l 1,295,296
 638 299 638 299 638 299 c 1,297,-1
 639 299 l 1,298,-1
 639 299 l 1,299,-1
 640 298 l 1,300,-1
 640 298 l 1,301,-1
 641 298 l 1,302,303
 641 298 641 298 641 297 c 1,304,-1
 641 297 l 1,305,-1
 641 296 l 1,306,-1
 642 296 l 1,307,308
 642 295 642 295 642 295 c 1,309,-1
 642 294 l 1,310,311
 642 294 642 294 642 293 c 2,217,218
541 472 m 1,312,313
 541 472 541 472 541 471 c 1,314,-1
 541 471 l 1,315,316
 542 471 542 471 542 470 c 2,317,-1
 542 469 l 2,318,319
 543 468 543 468 543 467 c 1,320,-1
 543 467 l 1,321,322
 543 466 543 466 542 465 c 2,323,324
 542 465 542 465 542 464 c 2,325,-1
 542 463 l 1,326,-1
 541 463 l 1,327,-1
 496 383 l 1,328,-1
 495 383 l 1,329,-1
 495 382 l 1,330,-1
 495 382 l 1,331,-1
 494 381 l 1,332,-1
 494 381 l 1,333,334
 494 381 494 381 493 381 c 1,335,-1
 493 380 l 1,336,-1
 493 380 l 1,337,338
 493 380 493 380 492.5 380 c 128,-1,339
 492 380 492 380 492 379 c 1,340,-1
 491 379 l 1,341,-1
 491 379 l 1,342,-1
 490 379 l 1,343,344
 490 379 490 379 489.5 379 c 128,-1,345
 489 379 489 379 488.5 379 c 128,-1,346
 488 379 488 379 488 379 c 2,347,348
 487 379 487 379 487 379 c 257,349,350
 487 379 487 379 487 379 c 1,351,-1
 486 379 l 1,352,-1
 486 380 l 1,353,354
 485 380 485 380 484 381 c 2,355,-1
 460 401 l 1,356,-1
 459 401 l 1,357,-1
 459 402 l 1,358,-1
 459 402 l 1,359,-1
 458 402 l 1,360,361
 458 402 458 402 458 403 c 2,362,363
 458 403 458 403 458 404 c 1,364,365
 457 404 457 404 457 404 c 1,366,367
 457 405 457 405 457 405 c 2,368,369
 457 406 457 406 457 406 c 1,370,-1
 457 407 l 1,371,372
 457 407 457 407 457 407.5 c 128,-1,373
 457 408 457 408 457 408 c 1,374,-1
 457 408 l 1,375,376
 457 408 457 408 457 409 c 1,377,-1
 457 409 l 1,378,379
 457 410 457 410 457 410 c 129,-1,380
 457 410 457 410 457 411 c 1,381,-1
 458 411 l 1,382,-1
 458 412 l 1,383,-1
 459 412 l 1,384,385
 459 413 459 413 459 413 c 1,386,-1
 530 472 l 1,387,-1
 531 473 l 1,388,-1
 531 473 l 1,389,390
 531 473 531 473 532 473 c 1,391,-1
 532 474 l 1,392,393
 532 474 532 474 533 474 c 2,394,395
 533 474 533 474 534 474 c 1,396,-1
 534 474 l 1,397,-1
 535 474 l 1,398,-1
 535 474 l 1,399,400
 535 474 535 474 536 474 c 1,401,-1
 536 474 l 1,402,403
 536 474 536 474 536.5 474 c 128,-1,404
 537 474 537 474 537 474 c 1,405,-1
 538 474 l 2,406,407
 539 473 539 473 539 473 c 129,-1,408
 539 473 539 473 540 473 c 1,409,410
 540 472 540 472 540 472 c 1,411,-1
 541 472 l 1,312,313
348 543 m 1,412,413
 348 543 348 543 348 543 c 1,414,-1
 349 543 l 1,415,416
 349 543 349 543 350 543 c 2,417,-1
 351 543 l 1,418,-1
 351 542 l 1,419,420
 352 542 352 542 352 541 c 1,421,-1
 353 541 l 1,422,423
 353 540 353 540 354 539 c 0,424,425
 354 538 354 538 354 538 c 257,426,427
 354 538 354 538 354 537 c 2,428,-1
 370 446 l 1,429,-1
 370 446 l 1,430,-1
 370 445 l 1,431,-1
 370 445 l 1,432,433
 370 445 370 445 370 444 c 1,434,-1
 370 444 l 1,435,436
 370 444 370 444 370 443.5 c 128,-1,437
 370 443 370 443 370 442 c 2,438,439
 370 442 370 442 370 441.5 c 128,-1,440
 370 441 370 441 370 441 c 1,441,-1
 369 441 l 1,442,443
 369 441 369 441 369 440.5 c 128,-1,444
 369 440 369 440 369 440 c 129,-1,445
 369 440 369 440 368 439 c 1,446,-1
 368 439 l 1,447,448
 368 439 368 439 367 438 c 1,449,450
 367 438 367 438 367 438 c 1,451,-1
 366 438 l 1,452,-1
 366 438 l 1,453,-1
 365 438 l 1,454,-1
 365 437 l 1,455,456
 364 437 364 437 363 437 c 2,457,-1
 331 437 l 1,458,-1
 330 437 l 1,459,-1
 330 437 l 1,460,-1
 329 437 l 1,461,462
 329 437 329 437 329 437 c 1,463,-1
 328 438 l 1,464,465
 328 438 328 438 327 438 c 1,466,-1
 327 438 l 1,467,468
 326 439 326 439 326 439 c 1,469,-1
 325 439 l 1,470,-1
 325 440 l 1,471,-1
 325 440 l 1,472,-1
 325 440 l 1,473,-1
 324 441 l 1,474,475
 324 441 324 441 324 441.5 c 128,-1,476
 324 442 324 442 323.5 442.5 c 128,-1,477
 323 443 323 443 323 443 c 2,478,479
 323 444 323 444 323 444 c 1,480,-1
 323 445 l 2,481,482
 323 446 323 446 323 446 c 1,483,-1
 339 537 l 1,484,-1
 340 538 l 1,485,-1
 340 538 l 1,486,487
 340 538 340 538 340 539 c 1,488,-1
 340 539 l 1,489,490
 340 539 340 539 340 540 c 1,491,-1
 341 540 l 1,492,493
 341 540 341 540 341 541 c 1,494,-1
 341 541 l 1,495,-1
 342 541 l 1,496,-1
 342 542 l 1,497,498
 342 542 342 542 343 542 c 1,499,-1
 343 542 l 1,500,501
 343 542 343 542 343 543 c 1,502,-1
 344 543 l 1,503,-1
 344 543 l 1,504,-1
 345 543 l 1,505,506
 345 543 345 543 346 543 c 2,507,-1
 347 544 l 1,508,-1
 348 543 l 1,412,413
342 403 m 0,509,510
 358 403 358 403 374 400 c 0,511,512
 440 389 440 389 478 334.5 c 128,-1,513
 516 280 516 280 504 215 c 2,514,515
 504 215 504 215 502 206 c 1,516,-1
 466 206 l 1,517,518
 469 215 469 215 470 221 c 0,519,520
 476 254 476 254 464.5 285.5 c 128,-1,521
 453 317 453 317 427.5 338.5 c 128,-1,522
 402 360 402 360 368 366 c 0,523,524
 317 375 317 375 275 345 c 128,-1,525
 233 315 233 315 224 264 c 0,526,527
 218 235 218 235 227 206 c 1,528,-1
 191 206 l 1,529,530
 183 238 183 238 189 270 c 0,531,532
 196 308 196 308 218 338 c 128,-1,533
 240 368 240 368 272.5 385 c 128,-1,534
 305 402 305 402 342 403 c 0,509,510
EndSplineSet
EndChar

StartChar: l
Encoding: 108 108 51
Width: 697
GlyphClass: 2
Flags: W
LayerCount: 2
Fore
SplineSet
134 600 m 1,0,-1
 226 600 l 1,1,-1
 57 530 l 1,2,3
 53 546 53 546 50 565 c 1,4,-1
 134 600 l 1,0,-1
395 600 m 1,5,-1
 487 600 l 1,6,-1
 107 443 l 1,7,8
 95 457 95 457 85 472 c 1,9,-1
 395 600 l 1,5,-1
647 596 m 1,10,11
 646 565 646 565 622 548 c 1,12,-1
 183 366 l 1,13,14
 167 381 167 381 156 392 c 1,15,-1
 647 596 l 1,10,11
537 442 m 1,16,17
 539 428 539 428 545 408 c 1,18,-1
 251 286 l 1,19,20
 243 299 243 299 230 315 c 1,21,-1
 537 442 l 1,16,17
563 345 m 1,22,23
 567 326 567 326 568 309 c 1,24,-1
 285 192 l 1,25,26
 283 211 283 211 279 227 c 1,27,-1
 563 345 l 1,22,23
559 235 m 1,28,29
 552 217 552 217 537 196 c 1,30,-1
 268 85 l 1,31,32
 274 100 274 100 278 119 c 1,33,-1
 559 235 l 1,28,29
428 81 m 1,34,35
 401 52 401 52 385 33 c 1,36,-1
 305 0 l 1,37,-1
 234 0 l 1,38,-1
 428 81 l 1,34,35
EndSplineSet
EndChar

